<svg id="SvgjsSvg1125" xmlns="http://www.w3.org/2000/svg" version="1.1" xmlns:xlink="http://www.w3.org/1999/xlink" xmlns:svgjs="http://svgjs.com/svgjs" width="128" height="128" viewBox="0 0 128 128"><title>banknote</title><desc>Created with Avocode.</desc><defs id="SvgjsDefs1126"></defs><path id="SvgjsPath1127" d="M741.66 1722.344L701.66 1682.344C699.6719999999999 1680.3600000000001 696.8 1679.564 694.076 1680.236C692.64 1680.5880000000002 691.356 1681.3280000000002 690.344 1682.344C689.436 1683.252 688.748 1684.376 688.356 1685.632C686.54 1691.508 683.408 1696.616 678.776 1701.248C672.584 1707.4360000000001 664.52 1712.124 655.9879999999999 1717.0800000000002C646.9319999999999 1722.3280000000002 637.5759999999999 1727.7640000000001 629.9079999999999 1735.428C623.3919999999999 1741.952 618.9559999999999 1749.2120000000002 616.3559999999999 1757.632C615.4839999999999 1760.476 616.2439999999999 1763.556 618.3399999999999 1765.656L658.3439999999999 1805.656C660.328 1807.6399999999999 663.1999999999999 1808.436 665.924 1807.764C667.36 1807.408 668.644 1806.6719999999998 669.66 1805.656C670.564 1804.748 671.252 1803.624 671.644 1802.36C673.46 1796.484 676.592 1791.376 681.228 1786.744C687.4159999999999 1780.5559999999998 695.4799999999999 1775.876 704.016 1770.924C713.068 1765.664 722.424 1760.228 730.092 1752.564C736.608 1746.048 741.044 1738.78 743.644 1730.3600000000001C744.516 1727.5240000000001 743.756 1724.4360000000001 741.66 1722.344ZM664.004 1800C650.7520000000001 1786.752 637.248 1773.244 624 1760C635.364 1723.196 684.636 1724.804 695.996 1688C709.2479999999999 1701.244 722.752 1714.752 736.004 1728C724.636 1764.796 675.364 1763.196 664.004 1800ZM694.244 1739.6C692.94 1738.5079999999998 691.628 1737.764 690.308 1737.3999999999999C688.996 1737.032 687.68 1736.8839999999998 686.352 1736.9759999999999C685.04 1737.08 683.696 1737.376 682.352 1737.8919999999998C681.012 1738.4159999999997 679.66 1738.984 678.3 1739.6399999999999C676.1519999999999 1737.1719999999998 674.0039999999999 1734.7359999999999 671.852 1732.4679999999998C672.824 1731.5919999999999 673.76 1731.148 674.668 1731.1159999999998C675.572 1731.0799999999997 676.448 1731.1719999999998 677.276 1731.3839999999998C678.12 1731.5919999999999 678.8919999999999 1731.7719999999997 679.6039999999999 1731.9159999999997C680.324 1732.0559999999998 680.948 1731.8999999999996 681.496 1731.4359999999997C682.072 1730.9359999999997 682.3919999999999 1730.2879999999998 682.4399999999999 1729.5079999999996C682.4799999999999 1728.7199999999996 682.18 1727.9519999999995 681.5239999999999 1727.2039999999995C680.6799999999998 1726.2359999999994 679.6679999999999 1725.6479999999995 678.4479999999999 1725.4279999999994C677.2439999999999 1725.2199999999993 676.0119999999998 1725.2359999999994 674.7279999999998 1725.5159999999994C673.4639999999998 1725.8039999999994 672.2599999999999 1726.2799999999993 671.1199999999999 1726.9519999999993C669.9799999999999 1727.6239999999993 669.0639999999999 1728.3119999999992 668.3839999999999 1728.9839999999992C668.1239999999999 1728.7359999999992 667.8639999999999 1728.4919999999993 667.6039999999999 1728.2519999999993C667.3159999999999 1727.9839999999992 666.9559999999999 1727.8439999999994 666.5239999999999 1727.8519999999992C666.0879999999999 1727.8519999999992 665.7279999999998 1728.0399999999993 665.4319999999999 1728.383999999999C665.1439999999999 1728.7199999999991 665.012 1729.107999999999 665.0639999999999 1729.5239999999992C665.1039999999998 1729.9519999999993 665.2759999999998 1730.2799999999993 665.5719999999999 1730.5319999999992C665.8319999999999 1730.7519999999993 666.0919999999999 1730.9679999999992 666.3519999999999 1731.1959999999992C665.3319999999999 1732.4279999999992 664.4879999999998 1733.7959999999991 663.8239999999998 1735.2359999999992C663.1519999999998 1736.6799999999992 662.7519999999998 1738.1079999999993 662.6039999999998 1739.499999999999C662.4479999999999 1740.8999999999992 662.5959999999998 1742.1799999999992 663.0239999999998 1743.367999999999C663.4559999999998 1744.563999999999 664.2439999999998 1745.579999999999 665.3999999999997 1746.539999999999C667.2839999999998 1748.099999999999 669.5039999999998 1748.763999999999 672.0719999999998 1748.615999999999C674.6359999999997 1748.4599999999991 677.3999999999997 1747.695999999999 680.3679999999998 1746.099999999999C682.7319999999999 1748.827999999999 685.0999999999998 1751.539999999999 687.4639999999998 1754.055999999999C686.4639999999998 1754.899999999999 685.5879999999999 1755.3839999999989 684.8159999999998 1755.5399999999988C684.0399999999998 1755.7039999999988 683.3519999999997 1755.6879999999987 682.7279999999998 1755.4999999999989C682.1039999999998 1755.303999999999 681.5239999999999 1755.0239999999988 680.9959999999999 1754.6639999999989C680.4639999999998 1754.295999999999 679.9399999999998 1753.9839999999988 679.4159999999998 1753.727999999999C678.8999999999999 1753.467999999999 678.3679999999998 1753.3279999999988 677.8239999999998 1753.319999999999C677.2759999999998 1753.311999999999 676.6959999999998 1753.575999999999 676.0559999999998 1754.1239999999991C675.3999999999999 1754.695999999999 675.0719999999998 1755.3599999999992 675.0719999999998 1756.107999999999C675.0719999999998 1756.851999999999 675.4159999999998 1757.607999999999 676.0879999999997 1758.375999999999C676.7679999999997 1759.139999999999 677.6519999999997 1759.779999999999 678.7199999999997 1760.287999999999C679.7919999999997 1760.7959999999991 680.9959999999996 1761.115999999999 682.3239999999997 1761.203999999999C683.6519999999997 1761.2959999999991 685.0479999999998 1761.091999999999 686.5239999999998 1760.547999999999C688.0119999999998 1760.0079999999991 689.4799999999998 1759.031999999999 690.9239999999998 1757.579999999999C691.6239999999998 1758.259999999999 692.3279999999997 1758.907999999999 693.0239999999998 1759.531999999999C693.3239999999997 1759.787999999999 693.6799999999997 1759.915999999999 694.1199999999998 1759.883999999999C694.5399999999997 1759.867999999999 694.9079999999998 1759.6719999999991 695.1959999999998 1759.319999999999C695.4959999999998 1758.9599999999991 695.6199999999998 1758.563999999999 695.5719999999998 1758.147999999999C695.5319999999998 1757.727999999999 695.3599999999998 1757.407999999999 695.0719999999998 1757.171999999999C694.3679999999998 1756.6079999999988 693.6679999999998 1756.015999999999 692.9639999999998 1755.391999999999C694.1599999999999 1753.9239999999988 695.1199999999998 1752.3759999999988 695.8319999999999 1750.843999999999C696.5399999999998 1749.303999999999 696.9639999999998 1747.819999999999 697.1039999999999 1746.4439999999988C697.2439999999999 1745.0639999999987 697.0799999999999 1743.8119999999988 696.6279999999999 1742.679999999999C696.18 1741.531999999999 695.3839999999999 1740.5479999999989 694.2439999999999 1739.599999999999ZM671.884 1742.312C670.7520000000001 1742.36 669.764 1741.984 668.9 1741.148C668.5319999999999 1740.7959999999998 668.276 1740.368 668.12 1739.86C667.956 1739.3519999999999 667.9 1738.7959999999998 667.964 1738.1879999999999C668.0160000000001 1737.588 668.196 1736.9599999999998 668.5120000000001 1736.328C668.8080000000001 1735.696 669.244 1735.064 669.8080000000001 1734.452C671.8360000000001 1736.468 673.8560000000001 1738.68 675.8840000000001 1740.968C674.3520000000001 1741.8120000000001 673.0160000000001 1742.2640000000001 671.8840000000001 1742.3120000000001ZM690.752 1750.32C690.3919999999999 1750.984 689.9799999999999 1751.58 689.492 1752.0919999999999C687.256 1749.828 685.012 1747.3439999999998 682.776 1744.7879999999998C683.3439999999999 1744.5319999999997 683.948 1744.264 684.596 1743.9919999999997C685.244 1743.7199999999998 685.892 1743.5399999999997 686.54 1743.4279999999997C687.204 1743.3279999999997 687.86 1743.3599999999997 688.516 1743.5159999999996C689.168 1743.6799999999996 689.784 1744.0319999999997 690.352 1744.5879999999995C690.9159999999999 1745.1479999999995 691.276 1745.7359999999994 691.4159999999999 1746.3679999999995C691.5719999999999 1747.0079999999996 691.5799999999999 1747.6559999999995 691.472 1748.3199999999995C691.352 1748.9839999999995 691.12 1749.6479999999995 690.752 1750.3199999999995ZM674.868 1768.72H674.86C672.36 1770.64 669.92 1772.664 667.664 1774.928C665.492 1777.1000000000001 663.524 1779.392 661.8199999999999 1781.728L659.084 1785.46L659.092 1785.468C658.592 1786.2520000000002 658.6759999999999 1787.296 659.356 1787.976C660.14 1788.7600000000002 661.412 1788.7600000000002 662.196 1787.976C662.32 1787.852 662.412 1787.72 662.4920000000001 1787.5800000000002L665.0480000000001 1784.0800000000002C666.6360000000001 1781.9160000000002 668.4680000000001 1779.7800000000002 670.4960000000001 1777.7600000000002C672.7360000000001 1775.5160000000003 674.82 1773.7800000000002 677.3480000000001 1771.8600000000001L677.344 1771.852C677.412 1771.796 677.484 1771.7520000000002 677.5440000000001 1771.688C678.3320000000001 1770.9080000000001 678.3320000000001 1769.632 677.5440000000001 1768.852C676.8160000000001 1768.116 675.6560000000001 1768.084 674.868 1768.72ZM689.512 1710.86C687.42 1712.952 685.1519999999999 1714.836 682.804 1716.6319999999998C682.636 1716.7279999999998 682.472 1716.8279999999997 682.332 1716.9759999999999C681.54 1717.764 681.54 1719.0479999999998 682.332 1719.8359999999998C683.1 1720.6079999999997 684.336 1720.6239999999998 685.132 1719.8919999999998L685.1439999999999 1719.8999999999999C687.6479999999999 1717.9759999999999 690.0799999999999 1715.944 692.3399999999999 1713.6879999999999C694.5079999999999 1711.5159999999998 696.4759999999999 1709.2359999999999 698.18 1706.8999999999999L700.9159999999999 1703.148L700.9079999999999 1703.1399999999999C701.5879999999999 1702.3439999999998 701.56 1701.156 700.8079999999999 1700.408C700.0199999999999 1699.616 698.7439999999999 1699.616 697.9559999999999 1700.408C697.8119999999999 1700.5559999999998 697.6999999999999 1700.7279999999998 697.608 1700.8999999999999L694.948 1704.54C693.364 1706.712 691.5319999999999 1708.836 689.512 1710.86Z " fill="#202728" fill-opacity="1" transform="matrix(1,0,0,1,-616,-1680)"></path></svg>