<svg id="SvgjsSvg1080" xmlns="http://www.w3.org/2000/svg" version="1.1" xmlns:xlink="http://www.w3.org/1999/xlink" xmlns:svgjs="http://svgjs.com/svgjs" width="128" height="112" viewBox="0 0 128 112"><title>bubble</title><desc>Created with Avocode.</desc><defs id="SvgjsDefs1081"></defs><path id="SvgjsPath1082" d="M684 1236C660.148 1236 640 1248.824 640 1264C640 1265.104 640.896 1266 642 1266C643.104 1266 644 1265.104 644 1264C644 1251.216 662.692 1240 684 1240C685.104 1240 686 1239.104 686 1238C686 1236.896 685.104 1236 684 1236ZM684 1216C648.652 1216 620 1237.492 620 1264C620 1280.508 631.116 1295.064 648.032 1303.704C648.032 1303.812 648 1303.884 648 1304C648 1311.172 642.644 1318.892 640.288 1322.944C640.292 1322.944 640.296 1322.944 640.296 1322.944C640.1080000000001 1323.384 640 1323.868 640 1324.376C640 1326.3799999999999 641.62 1328 643.624 1328C644 1328 644.66 1327.9 644.644 1327.948C657.144 1325.904 668.92 1314.42 671.656 1311.0880000000002C675.6519999999999 1311.6720000000003 679.7719999999999 1312.0000000000002 684 1312.0000000000002C719.344 1312.0000000000002 748 1290.5080000000003 748 1264.0000000000002C748 1237.4920000000002 719.344 1216.0000000000002 684 1216.0000000000002ZM684 1304C680.332 1304 676.572 1303.724 672.816 1303.172C672.428 1303.112 672.0400000000001 1303.088 671.6560000000001 1303.088C669.2800000000001 1303.088 667.004 1304.144 665.4720000000001 1306.012C663.7600000000001 1308.096 658.892 1312.744 653.1320000000001 1316.168C654.692 1312.5919999999999 655.916 1308.5759999999998 655.9960000000001 1304.4399999999998C656.0200000000001 1304.1839999999997 656.032 1303.9239999999998 656.032 1303.7039999999997C656.032 1300.6999999999998 654.3480000000001 1297.9439999999997 651.672 1296.5799999999997C636.8480000000001 1289.0079999999998 628 1276.8279999999997 628 1263.9999999999998C628 1241.9439999999997 653.12 1223.9999999999998 684 1223.9999999999998C714.88 1223.9999999999998 740 1241.9439999999997 740 1263.9999999999998C740 1286.0559999999998 714.88 1303.9999999999998 684 1303.9999999999998Z " fill="#202728" fill-opacity="1" transform="matrix(1,0,0,1,-620,-1216)"></path></svg>