<svg id="SvgjsSvg1050" xmlns="http://www.w3.org/2000/svg" version="1.1" xmlns:xlink="http://www.w3.org/1999/xlink" xmlns:svgjs="http://svgjs.com/svgjs" width="88" height="128" viewBox="0 0 88 128"><title>bulb</title><desc>Created with Avocode.</desc><defs id="SvgjsDefs1051"></defs><path id="SvgjsPath1052" d="M684 968C659.7 968 640 987.7 640 1012C640 1028.124 654.756 1045.212 660.124 1060.22C668.136 1082.604 667.2520000000001 1096 684 1096C701 1096 699.86 1082.664 707.876 1060.312C713.264 1045.272 728 1028 728 1011.9999999999999C728 987.6999999999999 708.3 967.9999999999999 684 967.9999999999999ZM694.372 1076.704L674.536 1079.184C673.828 1077.132 673.068 1074.7359999999999 672.1439999999999 1071.608C672.132 1071.572 672.1159999999999 1071.524 672.108 1071.484L696.8639999999999 1068.3919999999998C696.512 1069.5759999999998 696.132 1070.8159999999998 695.8079999999999 1071.9279999999999C695.2839999999999 1073.724 694.8119999999999 1075.2839999999999 694.3719999999998 1076.704ZM670.944 1067.632C670.2199999999999 1065.228 669.4 1062.688 668.4839999999999 1060H699.5479999999999C699.0599999999998 1061.436 698.5679999999999 1062.876 698.1399999999999 1064.236ZM684 1088C679.948 1088 678.084 1087.536 676.012 1083L692.9639999999999 1080.88C690.512 1087.4920000000002 688.7239999999999 1088 683.9999999999999 1088ZM702.688 1052H665.356C663.364 1047.684 660.972 1043.36 658.612 1039.132C653.396 1029.7920000000001 648 1020.1320000000001 648 1012.0000000000001C648 992.1480000000001 664.148 976.0000000000001 684 976.0000000000001C703.852 976.0000000000001 720 992.1480000000001 720 1012.0000000000001C720 1020.0720000000001 714.6 1029.784 709.38 1039.18C707.04 1043.396 704.668 1047.704 702.688 1052ZM684 988C670.764 988 660 998.764 660 1012C660 1013.104 660.896 1014 662 1014C663.104 1014 664 1013.104 664 1012C664 1000.972 672.972 992 684 992C685.104 992 686 991.104 686 990C686 988.896 685.104 988 684 988Z " fill="#202728" fill-opacity="1" transform="matrix(1,0,0,1,-640,-968)"></path></svg>