<svg id="SvgjsSvg1158" xmlns="http://www.w3.org/2000/svg" version="1.1" xmlns:xlink="http://www.w3.org/1999/xlink" xmlns:svgjs="http://svgjs.com/svgjs" width="128" height="128" viewBox="0 0 128 128"><title>calendar</title><desc>Created with Avocode.</desc><defs id="SvgjsDefs1159"></defs><path id="SvgjsPath1160" d="M497.332 2208H480V2200C480 2197.788 478.208 2196 476 2196C473.792 2196 472 2197.788 472 2200V2208H448V2200C448 2197.788 446.208 2196 444 2196C441.792 2196 440 2197.788 440 2200V2208H416V2200C416 2197.788 414.208 2196 412 2196C409.792 2196 408 2197.788 408 2200V2208H390.666C384.7752 2208 380 2212.772 380 2218.664V2313.3320000000003C380 2319.224 384.7752 2324.0000000000005 390.666 2324.0000000000005H497.332C503.224 2324.0000000000005 508 2319.2240000000006 508 2313.3320000000003V2218.664C508 2212.7720000000004 503.224 2208 497.332 2208ZM500 2313.332C500 2314.804 498.804 2316 497.332 2316H390.666C389.1952 2316 388 2314.804 388 2313.332V2218.6639999999998C388 2217.196 389.1952 2215.9999999999995 390.666 2215.9999999999995H408V2223.9999999999995C408 2226.2119999999995 409.792 2227.9999999999995 412 2227.9999999999995C414.208 2227.9999999999995 416 2226.2119999999995 416 2223.9999999999995V2215.9999999999995H440V2223.9999999999995C440 2226.2119999999995 441.792 2227.9999999999995 444 2227.9999999999995C446.208 2227.9999999999995 448 2226.2119999999995 448 2223.9999999999995V2215.9999999999995H472V2223.9999999999995C472 2226.2119999999995 473.792 2227.9999999999995 476 2227.9999999999995C478.208 2227.9999999999995 480 2226.2119999999995 480 2223.9999999999995V2215.9999999999995H497.332C498.804 2215.9999999999995 500 2217.1959999999995 500 2218.6639999999998ZM424 2256V2244H408V2256ZM424 2276V2264H408V2276ZM424 2296V2284H408V2296ZM452 2296V2284H436V2296ZM452 2276V2264H436V2276ZM452 2256V2244H436V2256ZM480 2296V2284H464V2296ZM480 2276V2264H464V2276ZM480 2256V2244H464V2256Z " fill="#202728" fill-opacity="1" transform="matrix(1,0,0,1,-380,-2196)"></path></svg>