<svg id="SvgjsSvg1059" xmlns="http://www.w3.org/2000/svg" version="1.1" xmlns:xlink="http://www.w3.org/1999/xlink" xmlns:svgjs="http://svgjs.com/svgjs" width="128" height="108" viewBox="0 0 128 108"><title>camera</title><desc>Created with Avocode.</desc><defs id="SvgjsDefs1060"></defs><path id="SvgjsPath1061" d="M1404 768.008C1386.324 768.008 1372 782.332 1372 800.008C1372 817.6800000000001 1386.324 832.008 1404 832.008C1421.676 832.008 1436 817.6800000000001 1436 800.008C1436 782.332 1421.676 768.008 1404 768.008ZM1422.22 815.624C1413.592 825.688 1398.444 826.8480000000001 1388.384 818.2280000000001C1378.316 809.604 1377.156 794.4520000000001 1385.78 784.388C1394.404 774.3240000000001 1409.556 773.164 1419.616 781.788C1429.684 790.408 1430.844 805.5600000000001 1422.22 815.624ZM1404 784.008C1395.164 784.008 1388.004 791.172 1388 800.004V800.008C1388 801.1120000000001 1388.896 802.008 1390 802.008C1391.104 802.008 1392 801.1120000000001 1392 800.008V800.004C1392.004 793.376 1397.372 788.008 1404 788.008C1405.104 788.008 1406 787.1120000000001 1406 786.004C1406 784.9 1405.104 784.008 1404 784.008ZM1457.972 764.168L1440.632 761.276L1435.14 747.54C1433.304 742.9599999999999 1428.928 740.004 1424 740.004H1384C1379.072 740.004 1374.696 742.96 1372.856 747.544L1367.368 761.276L1350.0359999999998 764.168C1344.2199999999998 765.1320000000001 1339.9999999999998 770.1080000000001 1339.9999999999998 776.004V836C1339.9999999999998 842.616 1345.3839999999998 848 1351.9999999999998 848H1455.9999999999998C1462.6159999999998 848 1467.9999999999998 842.616 1467.9999999999998 836V776.004C1467.9999999999998 770.1080000000001 1463.7799999999997 765.1320000000001 1457.9719999999998 764.168ZM1460 836C1460 838.208 1458.212 840 1456 840H1352C1349.788 840 1348 838.208 1348 836V776.004C1348 774.044 1349.416 772.376 1351.344 772.056L1373.1200000000001 768.428L1380.284 750.516C1380.8960000000002 749 1382.364 748 1384 748H1424C1425.636 748 1427.104 749 1427.716 750.516L1434.8799999999999 768.428L1456.656 772.056C1458.588 772.3760000000001 1460 774.0440000000001 1460 776.004Z " fill="#202728" fill-opacity="1" transform="matrix(1,0,0,1,-1340,-740)"></path></svg>