<svg id="SvgjsSvg1176" xmlns="http://www.w3.org/2000/svg" version="1.1" xmlns:xlink="http://www.w3.org/1999/xlink" xmlns:svgjs="http://svgjs.com/svgjs" width="128" height="116" viewBox="0 0 128 116"><title>clip</title><desc>Created with Avocode.</desc><defs id="SvgjsDefs1177"></defs><path id="SvgjsPath1178" d="M1453.452 1954.536C1439.4 1940.488 1416.6 1940.488 1402.548 1954.536L1344.188 2012.14C1333.2720000000002 2023.048 1333.2720000000002 2040.796 1344.188 2051.7000000000003C1355.1000000000001 2062.6040000000003 1372.8680000000002 2062.6040000000003 1383.7800000000002 2051.7000000000003L1442.14 1994.0920000000003C1449.952 1986.2880000000002 1449.952 1973.6400000000003 1442.14 1965.8360000000002C1434.3280000000002 1958.0360000000003 1421.6640000000002 1958.0360000000003 1413.8600000000001 1965.8360000000002L1369.9840000000002 2009.6600000000003C1368.4240000000002 2011.2240000000004 1368.4240000000002 2013.7480000000003 1369.9840000000002 2015.3160000000003C1371.5480000000002 2016.8760000000002 1374.0800000000002 2016.8760000000002 1375.64 2015.3160000000003L1419.516 1971.4840000000002C1424.1960000000001 1966.8160000000003 1431.804 1966.8160000000003 1436.4840000000002 1971.4840000000002C1441.1640000000002 1976.16 1441.1640000000002 1983.7640000000001 1436.4840000000002 1988.44L1378.1240000000003 2046.048C1370.3120000000004 2053.852 1357.6560000000002 2053.852 1349.8440000000003 2046.048C1342.0320000000004 2038.248 1342.0320000000004 2025.596 1349.8440000000003 2017.796L1407.6320000000003 1960.752C1418.5720000000003 1949.8239999999998 1436.3040000000003 1949.8239999999998 1447.2280000000003 1960.752C1458.1720000000003 1971.68 1458.1720000000003 1989.3799999999999 1447.2360000000003 2000.308L1403.9280000000003 2043.564C1402.3600000000004 2045.1280000000002 1402.3600000000004 2047.652 1403.9280000000003 2049.216C1405.4920000000004 2050.7799999999997 1408.0240000000003 2050.7799999999997 1409.5880000000004 2049.216L1453.4520000000005 2005.3919999999998C1467.5160000000005 1991.3479999999997 1467.5160000000005 1968.58 1453.4520000000005 1954.5359999999998Z " fill="#202728" fill-opacity="1" transform="matrix(1,0,0,1,-1336,-1944)"></path></svg>