<svg id="SvgjsSvg1008" xmlns="http://www.w3.org/2000/svg" version="1.1" xmlns:xlink="http://www.w3.org/1999/xlink" xmlns:svgjs="http://svgjs.com/svgjs" width="128" height="92" viewBox="0 0 128 92"><title>cloud</title><desc>Created with Avocode.</desc><defs id="SvgjsDefs1009"></defs><path id="SvgjsPath1010" d="M243.6564 536.572C241.9024 518.32 226.7072 504 208 504C193.5236 504 181.1292 512.592 175.414 524.92C173.69559999999998 524.376 171.9024 524 170.004 524C160.0624 524 152.004 532.064 152.004 542C152.004 543.976 152.39839999999998 545.844 152.98839999999998 547.616C145.25799999999998 552.124 140.004 560.404 140.004 569.996C140.004 584.356 151.6448 595.996 166.004 595.996V596H238V595.996C254.5704 595.996 267.996 582.568 267.996 565.996C267.996 551.3679999999999 257.5156 539.22 243.6564 536.572ZM238 587.996V588H166.00400000000002C156.07840000000002 587.996 148.00400000000002 579.924 148.00400000000002 569.996C148.00400000000002 563.596 151.3752 557.816 157.01960000000003 554.528C162.50400000000002 551.376 162.87920000000003 550.7520000000001 160.57840000000002 545.092C160.19160000000002 543.928 160.00400000000002 542.92 160.00400000000002 542C160.00400000000002 536.484 164.4884 532 170.00400000000002 532C170.00400000000002 532 172.62920000000003 531.812 175.41400000000002 532.924C180.00400000000002 534.752 180.50400000000002 533 182.67200000000003 528.284C187.25800000000004 518.396 197.19920000000002 512 208.00000000000003 512C222.39840000000004 512 234.30480000000003 522.892 235.69160000000002 537.336C236.18760000000003 543.064 236.18760000000003 543.064 242.15640000000002 544.428C252.496 546.404 260 555.476 260 565.996C260 578.1279999999999 250.1328 587.996 238 587.996Z " fill="#202728" fill-opacity="1" transform="matrix(1,0,0,1,-140,-504)"></path></svg>