<svg id="SvgjsSvg1086" xmlns="http://www.w3.org/2000/svg" version="1.1" xmlns:xlink="http://www.w3.org/1999/xlink" xmlns:svgjs="http://svgjs.com/svgjs" width="112" height="128" viewBox="0 0 112 128"><title>cup</title><desc>Created with Avocode.</desc><defs id="SvgjsDefs1087"></defs><path id="SvgjsPath1088" d="M1212.448 1228.092L1207.592 1213.468C1206.5 1210.2040000000002 1203.4440000000002 1208 1200 1208H1128C1124.556 1208 1121.5 1210.204 1120.412 1213.468L1115.512 1228.096C1111.336 1228.368 1108 1231.76 1108 1236V1248C1108 1252.42 1111.584 1256 1116 1256H1120.136C1120.136 1256.3 1120.016 1256.584 1120.052 1256.884L1128.052 1328.884C1128.5 1332.932 1131.924 1336 1136 1336H1192C1196.08 1336 1199.5 1332.932 1199.948 1328.884L1207.948 1256.884C1207.9840000000002 1256.584 1207.864 1256.3 1207.864 1256H1212C1216.42 1256 1220 1252.42 1220 1248V1236C1220 1231.744 1216.644 1228.336 1212.448 1228.092ZM1128 1216H1200L1204 1228H1124ZM1136 1328L1134.668 1316H1193.3319999999999L1191.9999999999998 1328ZM1193.776 1312H1134.2240000000002L1129.776 1272H1198.2240000000002ZM1198.668 1268H1129.3319999999999L1127.9999999999998 1256H1199.9999999999998ZM1212 1248H1116V1236H1212Z " fill="#202728" fill-opacity="1" transform="matrix(1,0,0,1,-1108,-1208)"></path></svg>