<svg id="SvgjsSvg1128" xmlns="http://www.w3.org/2000/svg" version="1.1" xmlns:xlink="http://www.w3.org/1999/xlink" xmlns:svgjs="http://svgjs.com/svgjs" width="112" height="128" viewBox="0 0 112 128"><title>data</title><desc>Created with Avocode.</desc><defs id="SvgjsDefs1129"></defs><path id="SvgjsPath1130" d="M924 1680C897.028 1680 868 1688.132 868 1706V1782C868 1799.86 897.028 1808 924 1808C950.972 1808 980 1799.86 980 1782V1706C980 1688.132 950.972 1680 924 1680ZM972 1782C972 1791.936 950.512 1800 924 1800C897.488 1800 876 1791.936 876 1782V1767.056C884.264 1775.5720000000001 904.204 1780 924 1780C943.796 1780 963.736 1775.572 972 1767.056ZM972 1758H971.984C971.984 1758.04 972 1758.088 972 1758.124C972 1768 950.508 1776 924 1776C897.492 1776 876 1768 876 1758.124C876 1758.088 876.016 1758.04 876.016 1758H876V1743.056C884.264 1751.5720000000001 904.204 1756 924 1756C943.796 1756 963.736 1751.572 972 1743.056ZM972 1734H971.984C971.984 1734.04 972 1734.088 972 1734.124C972 1744 950.508 1752 924 1752C897.492 1752 876 1744 876 1734.124C876 1734.088 876.016 1734.04 876.016 1734H876V1720.26C886.484 1728.244 905.704 1732 924 1732C942.296 1732 961.516 1728.244 972 1720.26ZM924 1724C897.488 1724 876 1715.936 876 1706C876 1696.056 897.488 1688 924 1688C950.512 1688 972 1696.056 972 1706C972 1715.936 950.512 1724 924 1724ZM960 1788C962.212 1788 964 1786.212 964 1784C964 1781.788 962.212 1780 960 1780C957.788 1780 956 1781.788 956 1784C956 1786.212 957.788 1788 960 1788ZM960 1764C962.212 1764 964 1762.212 964 1760C964 1757.788 962.212 1756 960 1756C957.788 1756 956 1757.788 956 1760C956 1762.212 957.788 1764 960 1764ZM960 1740C962.212 1740 964 1738.212 964 1736C964 1733.788 962.212 1732 960 1732C957.788 1732 956 1733.788 956 1736C956 1738.212 957.788 1740 960 1740Z " fill="#202728" fill-opacity="1" transform="matrix(1,0,0,1,-868,-1680)"></path></svg>