<svg id="SvgjsSvg1053" xmlns="http://www.w3.org/2000/svg" version="1.1" xmlns:xlink="http://www.w3.org/1999/xlink" xmlns:svgjs="http://svgjs.com/svgjs" width="130" height="96" viewBox="0 0 130 96"><title>diamond</title><desc>Created with Avocode.</desc><defs id="SvgjsDefs1054"></defs><path id="SvgjsPath1055" d="M1225.656 1006.688L1205.336 986.364C1203.836 984.864 1201.8 984.02 1199.68 984.02H1128.324C1126.2040000000002 984.02 1124.1680000000001 984.864 1122.6680000000001 986.364L1102.3480000000002 1006.688C1100.7760000000003 1008.256 1099.9920000000002 1010.328 1100.0000000000002 1012.396C1100.0120000000002 1014.276 1100.6840000000002 1016.156 1102.0240000000001 1017.664L1158.0200000000002 1077.296C1159.5400000000002 1079.0040000000001 1161.7160000000001 1079.98 1164.0000000000002 1079.98C1166.2840000000003 1079.98 1168.4600000000003 1079.004 1169.9800000000002 1077.296L1225.9800000000002 1017.6640000000001C1227.3480000000002 1016.1240000000001 1228.0200000000002 1014.1920000000001 1228.0000000000002 1012.272C1227.9840000000002 1010.244 1227.1960000000001 1008.2280000000001 1225.6560000000002 1006.6880000000001ZM1172.88 1012.02H1155.1200000000001L1164.0000000000002 1004.624ZM1167.124 1002.02L1178.06 992.908L1186.128 1000.98L1176 1009.416ZM1152 1009.416L1141.872 1000.98L1149.94 992.908L1160.876 1002.02ZM1173.96 1016.02L1164 1065.8319999999999L1154.04 1016.0199999999999ZM1178.04 1016.02H1197.668L1168.2279999999998 1065.096ZM1179.12 1012.02L1188.9679999999998 1003.8199999999999L1197.1719999999998 1012.02ZM1182.828 992.02H1196.8799999999999L1189.216 998.408ZM1164 999.42L1155.12 992.02H1172.8799999999999ZM1138.784 998.408L1131.1200000000001 992.02H1145.172ZM1139.032 1003.82L1148.8799999999999 1012.0200000000001H1130.828ZM1149.96 1016.02L1159.772 1065.096L1130.3319999999999 1016.02ZM1150.816 1057.936L1111.4560000000001 1016.02H1125.672ZM1202.328 1016.02H1216.548L1177.18 1057.94ZM1202.828 1012.02L1192.056 1001.2479999999999L1201.248 993.588L1219.6760000000002 1012.02ZM1126.744 993.58L1135.944 1001.248L1125.172 1012.0200000000001H1108.0240000000001Z " fill="#202728" fill-opacity="1" transform="matrix(1,0,0,1,-1099,-984)"></path></svg>