<svg id="SvgjsSvg1077" xmlns="http://www.w3.org/2000/svg" version="1.1" xmlns:xlink="http://www.w3.org/1999/xlink" xmlns:svgjs="http://svgjs.com/svgjs" width="130" height="80" viewBox="0 0 130 80"><title>eye</title><desc>Created with Avocode.</desc><defs id="SvgjsDefs1078"></defs><path id="SvgjsPath1079" d="M507.896 1271.12C507.85200000000003 1270.952 507.87600000000003 1270.772 507.812 1270.608C507.788 1270.54 507.732 1270.5 507.704 1270.44C507.664 1270.3400000000001 507.672 1270.236 507.62 1270.144C495.992 1247.94 470.692 1232.028 444 1232.028C417.308 1232.028 392.0076 1247.912 380.3796 1270.116C380.3288 1270.208 380.33639999999997 1270.316 380.2976 1270.412C380.27 1270.476 380.2116 1270.512 380.1876 1270.58C380.12519999999995 1270.744 380.1488 1270.924 380.1096 1271.0919999999999C380.0392 1271.3919999999998 379.9684 1271.6799999999998 379.9684 1271.9879999999998C379.9684 1272.292 380.0392 1272.58 380.1096 1272.8799999999999C380.1488 1273.0479999999998 380.1252 1273.2279999999998 380.1876 1273.3919999999998C380.2116 1273.4599999999998 380.27 1273.4959999999999 380.2976 1273.5599999999997C380.33639999999997 1273.6599999999996 380.3288 1273.7639999999997 380.3796 1273.8559999999998C392.00759999999997 1296.0599999999997 417.308 1311.9719999999998 444 1311.9719999999998C470.692 1311.9719999999998 495.992 1296.0879999999997 507.62 1273.8839999999998C507.672 1273.7919999999997 507.664 1273.6839999999997 507.704 1273.5879999999997C507.732 1273.5239999999997 507.788 1273.4879999999998 507.812 1273.4199999999998C507.87600000000003 1273.2559999999999 507.85200000000003 1273.0759999999998 507.896 1272.908C507.96000000000004 1272.608 508.03200000000004 1272.32 508.03200000000004 1272.012C508.03200000000004 1271.7079999999999 507.96000000000004 1271.4199999999998 507.896 1271.12ZM444 1303.972C421.5 1303.972 399.468 1291.2 388.4892 1271.992C399.52639999999997 1252.752 421.52799999999996 1240.028 444 1240.028C466.5 1240.028 488.532 1252.8 499.512 1272.008C488.472 1291.248 466.472 1303.972 444 1303.972ZM444 1256.008C443.992 1256.008 443.984 1256.012 443.976 1256.012C435.144 1256.028 427.98 1263.176 427.98 1272C427.98 1273.104 428.87600000000003 1274 429.98400000000004 1274C431.088 1274 431.98400000000004 1273.104 431.98400000000004 1272C431.98400000000004 1265.388 437.372 1260.008 444.00000000000006 1260.008C445.10400000000004 1260.008 446.00000000000006 1259.112 446.00000000000006 1258.008C446.00000000000006 1256.904 445.10400000000004 1256.008 444.00000000000006 1256.008ZM443.908 1244.012C428.41200000000003 1244.012 415.85200000000003 1256.548 415.85200000000003 1272.012C415.85200000000003 1287.48 428.41200000000003 1300.012 443.908 1300.012C459.40000000000003 1300.012 471.96000000000004 1287.48 471.96000000000004 1272.012C471.96000000000004 1256.548 459.40000000000003 1244.012 443.908 1244.012ZM443.908 1296.012C430.648 1296.012 419.86 1285.248 419.86 1272.012C419.86 1258.78 430.648 1248.012 443.908 1248.012C457.168 1248.012 467.952 1258.78 467.952 1272.012C467.952 1285.248 457.168 1296.012 443.908 1296.012Z " fill="#202728" fill-opacity="1" transform="matrix(1,0,0,1,-379,-1232)"></path></svg>