<svg id="SvgjsSvg1149" xmlns="http://www.w3.org/2000/svg" version="1.1" xmlns:xlink="http://www.w3.org/1999/xlink" xmlns:svgjs="http://svgjs.com/svgjs" width="90" height="128" viewBox="0 0 90 128"><title>fire</title><desc>Created with Avocode.</desc><defs id="SvgjsDefs1150"></defs><path id="SvgjsPath1151" d="M1179.988 1976C1179.736 1986.7 1171.704 1995.736 1171.704 1995.736C1171.704 1975.832 1155.988 1960 1155.988 1960C1155.988 1960 1155.776 1971.848 1147.816 1983.792C1139.852 1955.924 1115.964 1940 1115.964 1940C1127.908 1983.792 1111.984 1999.72 1111.984 2031.568C1111.984 2050.256 1127.8 2068 1151.9879999999998 2068C1187.8159999999998 2068 1194.744 2054.848 1198.4479999999999 2040.028C1203.5479999999998 2019.624 1195.908 1995.904 1179.9879999999998 1976ZM1190.688 2038.088C1188.1200000000001 2048.36 1185.212 2060 1151.988 2060C1131.9560000000001 2060 1119.988 2045.544 1119.988 2031.568C1119.988 2020.864 1121.94 2012.076 1124.0040000000001 2002.768C1126.6280000000002 1990.972 1129.316 1978.9 1128.152 1962.924C1140.488 1980 1144.876 2002.624 1144.876 2002.624C1144.876 2002.624 1156.36 1986.5 1159.4479999999999 1979.012C1161.8159999999998 1983.828 1163.9879999999998 2000 1163.9879999999998 2016C1163.9879999999998 2016 1174.6119999999999 2007.252 1182.58 1994.092C1190.972 2009.1360000000002 1193.9959999999999 2024.8680000000002 1190.6879999999999 2038.0880000000002ZM1181.712 2007.18L1178.316 2011.1200000000001C1174.104 2016.0320000000002 1170.1200000000001 2020.688 1159.48 2026.044C1157.9560000000001 2021.476 1156.5720000000001 2016.4440000000002 1156.5720000000001 2008.7520000000002V2001.9120000000003L1150.5040000000001 2011.4240000000002C1148.4560000000001 2014.6680000000001 1146.7600000000002 2017.3600000000001 1144.228 2020.928C1140.392 2012.2800000000002 1137.68 2005.8880000000001 1135.6200000000001 2000.084L1133.7040000000002 1994.684L1131.6280000000002 2000.724C1128.988 2008.408 1126.488 2015.664 1126.488 2034.5C1126.488 2035.604 1127.376 2036.5 1128.488 2036.5C1129.588 2036.5 1130.488 2035.604 1130.488 2034.5C1130.488 2020.064 1131.924 2012.916 1133.844 2006.736C1135.924 2012.0240000000001 1138.548 2018.036 1141.996 2025.736L1143.4 2028.872L1145.432 2026.1000000000001C1148.752 2021.584 1150.728 2018.544 1152.892 2015.1280000000002C1153.5240000000001 2021.0480000000002 1154.988 2025.2880000000002 1156.432 2029.488L1157.16 2031.6000000000001L1159.18 2030.6440000000002C1169.992 2025.5080000000003 1175.056 2020.8320000000003 1179.0720000000001 2016.3440000000003C1179.6960000000001 2023.8000000000002 1178.7120000000002 2031.9600000000003 1176.3760000000002 2037.7560000000003C1175.9640000000002 2038.7760000000003 1176.4640000000002 2039.9400000000003 1177.4880000000003 2040.3560000000002C1177.7280000000003 2040.4520000000002 1177.9880000000003 2040.5000000000002 1178.2360000000003 2040.5000000000002C1179.0240000000003 2040.5000000000002 1179.7760000000003 2040.0280000000002 1180.0880000000004 2039.2480000000003C1183.1880000000003 2031.5520000000004 1184.1200000000003 2020.5920000000003 1182.4560000000004 2011.3160000000003Z " fill="#202728" fill-opacity="1" transform="matrix(1,0,0,1,-1111,-1940)"></path></svg>