<svg id="SvgjsSvg1179" xmlns="http://www.w3.org/2000/svg" version="1.1" xmlns:xlink="http://www.w3.org/1999/xlink" xmlns:svgjs="http://svgjs.com/svgjs" width="128" height="130" viewBox="0 0 128 130"><title>food</title><desc>Created with Avocode.</desc><defs id="SvgjsDefs1180"></defs><path id="SvgjsPath1181" d="M738 2023.96H727.236C727.056 2023 726.832 2022.068 726.596 2021.132L745.788 2011.516C747.764 2010.5240000000001 748.564 2008.116 747.576 2006.136C746.588 2004.156 744.192 2003.364 742.208 2004.344L723.9 2013.516C716.9119999999999 1998.4160000000002 701.6759999999999 1987.892 684 1987.892C662.472 1987.892 644.54 2003.472 640.764 2023.96H630C624.484 2023.96 620 2028.452 620 2033.98C620 2035.944 620.716 2037.84 622.02 2039.308L636 2055.064V2058.028C636 2063.5519999999997 640.484 2068.048 646 2068.048H722C727.512 2068.048 732 2063.5519999999997 732 2058.028V2055.064L745.976 2039.3079999999998C747.28 2037.8399999999997 748 2035.9439999999997 748 2033.9799999999998C748 2028.4519999999998 743.512 2023.9599999999998 738 2023.9599999999998ZM723.192 2023.96H720.944L722.9399999999999 2022.96C723.02 2023.296 723.1239999999999 2023.6200000000001 723.1919999999999 2023.96ZM684 1991.9C700.116 1991.9 714 2001.52 720.328 2015.308L716.764 2017.092C711.104 2004.6080000000002 698.58 1995.9080000000001 684 1995.9080000000001C666.872 1995.9080000000001 652.564 2007.9040000000002 648.92 2023.96H644.804C648.524 2005.692 664.684 1991.9 684 1991.9ZM702.304 2023.96C699.208 2016.896 692.18 2011.9360000000001 684 2011.9360000000001C675.82 2011.9360000000001 668.792 2016.8960000000002 665.696 2023.96H661.4C664.704 2014.636 673.572 2007.928 684 2007.928C693.864 2007.928 702.348 2013.9240000000002 706.0360000000001 2022.4640000000002L703.052 2023.9600000000003ZM684 2019.952C680.464 2019.952 677.316 2021.52 675.12 2023.96H670.224C673 2019.192 678.104 2015.944 684 2015.944C689.892 2015.944 695 2019.192 697.776 2023.96H692.876C690.68 2021.52 687.5319999999999 2019.952 684 2019.952ZM684 2003.92C671.34 2003.92 660.632 2012.3880000000001 657.18 2023.96H653.0519999999999C656.6199999999999 2010.156 669.1199999999999 1999.912 683.9999999999999 1999.912C696.9879999999998 1999.912 708.1719999999999 2007.72 713.1799999999998 2018.888L709.6079999999998 2020.676C705.2599999999999 2010.828 695.4239999999999 2003.9199999999998 683.9999999999999 2003.9199999999998ZM724 2052.016V2058.0280000000002C724 2059.1360000000004 723.104 2060.032 722 2060.032H646C644.892 2060.032 644 2059.136 644 2058.0280000000002V2052.016L628 2033.98C628 2032.872 628.892 2031.976 630 2031.976H738C739.104 2031.976 740 2032.872 740 2033.98ZM651.904 1986.736C651.9159999999999 1986.76 651.924 1986.784 651.936 1986.808C651.936 1986.808 651.94 1986.808 651.9440000000001 1986.808C652.2800000000001 1987.448 652.9440000000001 1987.892 653.7160000000001 1987.892C654.8280000000001 1987.892 655.7280000000001 1986.988 655.7280000000001 1985.876C655.7280000000001 1985.704 655.7 1985.536 655.6560000000001 1985.372C655.6640000000001 1985.3480000000002 655.6640000000001 1985.324 655.6560000000001 1985.296C654.1560000000001 1981.76 655.58 1977.884 657.3320000000001 1973.708C659.2240000000002 1969.192 661.2520000000001 1964.1840000000002 659.0200000000001 1959.0880000000002C658.7320000000001 1958.352 658.0280000000001 1957.832 657.1960000000001 1957.832C656.1120000000002 1957.832 655.2320000000001 1958.7120000000002 655.2320000000001 1959.796C655.2320000000001 1960.036 655.2840000000001 1960.26 655.3600000000001 1960.472C655.3640000000001 1960.48 655.3640000000001 1960.488 655.3680000000002 1960.4959999999999C655.3720000000002 1960.5079999999998 655.3760000000002 1960.5199999999998 655.3800000000001 1960.532C655.3840000000001 1960.548 655.392 1960.5639999999999 655.3960000000001 1960.58C657.0120000000001 1964.224 655.4520000000001 1967.956 653.6880000000001 1972.172C651.82 1976.6200000000001 649.7600000000001 1981.544 651.8360000000001 1986.568C651.8600000000001 1986.628 651.8800000000001 1986.68 651.9040000000001 1986.7359999999999ZM700.62 1986.152C700.632 1986.176 700.64 1986.2 700.652 1986.224C700.652 1986.224 700.6560000000001 1986.224 700.6600000000001 1986.224C700.9960000000001 1986.864 701.6600000000001 1987.308 702.4320000000001 1987.308C703.5400000000001 1987.308 704.4440000000001 1986.404 704.4440000000001 1985.292C704.4440000000001 1985.12 704.412 1984.952 704.3720000000001 1984.792C704.3800000000001 1984.764 704.3800000000001 1984.74 704.3720000000001 1984.712C702.8720000000001 1981.18 704.296 1977.3 706.0440000000001 1973.124C707.94 1968.612 709.9680000000001 1963.6000000000001 707.7320000000001 1958.5040000000001C707.4480000000001 1957.768 706.7400000000001 1957.248 705.9080000000001 1957.248C704.8280000000001 1957.248 703.9480000000001 1958.1280000000002 703.9480000000001 1959.212C703.9480000000001 1959.452 703.9960000000001 1959.68 704.0760000000001 1959.892C704.0760000000001 1959.9 704.0760000000001 1959.9080000000001 704.0800000000002 1959.912C704.0840000000002 1959.924 704.0880000000002 1959.936 704.0960000000001 1959.948C704.1000000000001 1959.9640000000002 704.1080000000001 1959.98 704.1120000000001 1959.996C705.7280000000001 1963.64 704.1640000000001 1967.372 702.4000000000001 1971.5880000000002C700.5360000000001 1976.0360000000003 698.4720000000001 1980.9640000000002 700.5520000000001 1985.9840000000002C700.5720000000001 1986.044 700.5960000000001 1986.0960000000002 700.6200000000001 1986.152ZM680.072 1968.856C680.084 1968.8799999999999 680.092 1968.904 680.104 1968.9279999999999C680.104 1968.9279999999999 680.1080000000001 1968.9279999999999 680.1120000000001 1968.9279999999999C680.4480000000001 1969.568 681.1120000000001 1970.012 681.8840000000001 1970.012C682.9960000000001 1970.012 683.8960000000001 1969.108 683.8960000000001 1967.9959999999999C683.8960000000001 1967.8239999999998 683.868 1967.656 683.8240000000001 1967.4959999999999C683.8320000000001 1967.4679999999998 683.8320000000001 1967.444 683.8240000000001 1967.416C682.3240000000001 1963.884 683.748 1960.004 685.5000000000001 1955.828C687.3920000000002 1951.316 689.4200000000001 1946.304 687.1880000000001 1941.208C686.9000000000001 1940.472 686.1960000000001 1939.952 685.3640000000001 1939.952C684.2800000000002 1939.952 683.4000000000001 1940.832 683.4000000000001 1941.916C683.4000000000001 1942.156 683.4520000000001 1942.384 683.5280000000001 1942.596C683.5320000000002 1942.604 683.5320000000002 1942.612 683.5360000000002 1942.62C683.5400000000002 1942.628 683.5400000000002 1942.6399999999999 683.5480000000001 1942.6519999999998C683.5520000000001 1942.668 683.5600000000001 1942.6839999999997 683.5640000000001 1942.6999999999998C685.1800000000001 1946.3439999999998 683.6200000000001 1950.08 681.8560000000001 1954.292C679.988 1958.74 677.9280000000001 1963.668 680.0040000000001 1968.6879999999999C680.0280000000001 1968.7479999999998 680.0480000000001 1968.8039999999999 680.0720000000001 1968.8559999999998Z " fill="#202728" fill-opacity="1" transform="matrix(1,0,0,1,-620,-1939)"></path></svg>