<svg id="SvgjsSvg1011" xmlns="http://www.w3.org/2000/svg" version="1.1" xmlns:xlink="http://www.w3.org/1999/xlink" xmlns:svgjs="http://svgjs.com/svgjs" width="128" height="112" viewBox="0 0 128 112"><title>heart</title><desc>Created with Avocode.</desc><defs id="SvgjsDefs1012"></defs><path id="SvgjsPath1013" d="M496.768 503.168C482.248 488.80400000000003 459.044 488.5 444 502.02C428.96 488.5 405.756 488.804 391.2332 503.168C376.2684 517.968 376.2684 541.96 391.2332 556.764C395.5108 560.996 435.444 600.488 435.444 600.488C440.17600000000004 605.1640000000001 447.82800000000003 605.1640000000001 452.55600000000004 600.488C452.55600000000004 600.488 496.28400000000005 557.244 496.76800000000003 556.764C511.732 541.96 511.732 517.968 496.76800000000003 503.168ZM491.06 551.124L446.852 594.844C445.28 596.4000000000001 442.71599999999995 596.4000000000001 441.152 594.844L396.9404 551.124C385.13960000000003 539.456 385.13960000000003 520.476 396.9404 508.808C408.31600000000003 497.56 426.604 497.164 438.576 507.92L444 512.796L449.424 507.9200000000001C461.39599999999996 497.1640000000001 479.692 497.56000000000006 491.06 508.80800000000005C502.864 520.476 502.864 539.456 491.06 551.124ZM417.008 512.104C417 512.104 417 512.1080000000001 416.99199999999996 512.1080000000001C407.61199999999997 512.1160000000001 400.008 519.7120000000001 400.008 529.0840000000001C400.008 530.1880000000001 400.9 531.0840000000001 402.008 531.0840000000001C403.11199999999997 531.0840000000001 404.008 530.1880000000001 404.008 529.0840000000001V529.08C404.008 521.912 409.828 516.1 417.00399999999996 516.1H417.008C418.11199999999997 516.1 419.008 515.208 419.008 514.104C419.008 513 418.11199999999997 512.104 417.008 512.104Z " fill="#202728" fill-opacity="1" transform="matrix(1,0,0,1,-380,-492)"></path></svg>