<svg id="SvgjsSvg1032" xmlns="http://www.w3.org/2000/svg" version="1.1" xmlns:xlink="http://www.w3.org/1999/xlink" xmlns:svgjs="http://svgjs.com/svgjs" width="130" height="128" viewBox="0 0 130 128"><title>key</title><desc>Created with Avocode.</desc><defs id="SvgjsDefs1033"></defs><path id="SvgjsPath1034" d="M708.008 728C685.916 728 668.008 745.912 668.008 768C668.008 773.14 669.0840000000001 778.004 670.86 782.516L622.264 831.112C620.864 832.516 619.992 833.856 619.992 836V848C619.992 852.284 623.708 856 627.992 856H639.992C642.136 856 643.492 855.144 644.896 853.744L650.636 848H660.0079999999999C664.424 848 668.0079999999999 844.416 668.0079999999999 840V832H676.0079999999999C680.424 832 684.0079999999999 828.42 684.0079999999999 824V814.624L693.4879999999999 805.144C697.9999999999999 806.924 702.8639999999999 808 708.0079999999999 808C730.0959999999999 808 748.0079999999999 790.092 748.0079999999999 768C748.0079999999999 745.912 730.0959999999999 728 708.0079999999999 728ZM708.008 800C702.0840000000001 800 696.604 798.28 691.8480000000001 795.472L678.3520000000001 808.968C676.8520000000001 810.468 676.008 812.5039999999999 676.008 814.6239999999999V823.9999999999999H668.008C663.5880000000001 823.9999999999999 660.008 827.5839999999998 660.008 831.9999999999999V839.9999999999999H650.6360000000001C648.5160000000001 839.9999999999999 646.4800000000001 840.8439999999999 644.9800000000001 842.3439999999999L639.3080000000001 848.016L628.0080000000002 848L627.9960000000002 836.604L674.6560000000002 790.028C674.6560000000002 790.028 674.6560000000002 790.032 674.6600000000002 790.0360000000001L680.5360000000002 784.1600000000001C677.7280000000002 779.4040000000001 676.0080000000002 773.9200000000001 676.0080000000002 768.0000000000001C676.0080000000002 750.3280000000001 690.3360000000001 736.0000000000001 708.0080000000002 736.0000000000001C725.6800000000002 736.0000000000001 740.0080000000002 750.3280000000001 740.0080000000002 768.0000000000001C740.0080000000002 785.6720000000001 725.6800000000002 800.0000000000001 708.0080000000002 800.0000000000001ZM731.276 760.956C726.7879999999999 754.712 721.328 749.26 715.06 744.744C714.0319999999999 744.004 712.7159999999999 743.816 711.524 744.236C705.968 746.192 702.168 749.992 700.22 755.548C700.072 755.96 700 756.396 700 756.824C700 757.62 700.252 758.4119999999999 700.728 759.0799999999999C705.228 765.3359999999999 710.684 770.7879999999999 716.9359999999999 775.2879999999999C717.9599999999999 776.0239999999999 719.276 776.2159999999999 720.4639999999999 775.7999999999998C726.0239999999999 773.8559999999999 729.828 770.0519999999998 731.78 764.4879999999998C731.928 764.0759999999998 732 763.6399999999999 732 763.2119999999999C732 762.4159999999998 731.752 761.6239999999999 731.276 760.9559999999999ZM719.272 772.044C713.364 767.788 708.216 762.64 703.9920000000001 756.872C705.5400000000001 752.4599999999999 708.436 749.564 712.724 747.9879999999999C718.6360000000001 752.252 723.7760000000001 757.3839999999999 727.984 763.232C726.4240000000001 767.608 723.5360000000001 770.4879999999999 719.272 772.044Z " fill="#202728" fill-opacity="1" transform="matrix(1,0,0,1,-619,-728)"></path></svg>