<svg id="SvgjsSvg1143" xmlns="http://www.w3.org/2000/svg" version="1.1" xmlns:xlink="http://www.w3.org/1999/xlink" xmlns:svgjs="http://svgjs.com/svgjs" width="129" height="128" viewBox="0 0 129 128"><title>lab</title><desc>Created with Avocode.</desc><defs id="SvgjsDefs1144"></defs><path id="SvgjsPath1145" d="M462.728 1954.928C460.84000000000003 1953.0400000000002 458.32800000000003 1952 455.656 1952C452.984 1952 450.476 1953.04 448.584 1954.932L442.936 1960.584C441.044 1962.468 440.00399999999996 1964.98 440 1967.656C440 1969.54 440.516 1971.344 441.484 1972.912L387.1776 1994.664C383.54679999999996 1996.26 380.9416 1999.536 380.2088 2003.424C379.4708 2007.328 380.7088 2011.336 383.5468 2014.168L434.428 2064.488C436.62 2066.68 439.532 2067.924 442.608 2067.9959999999996C442.676 2067.9999999999995 442.844 2067.9999999999995 442.916 2067.9999999999995C443.724 2067.9999999999995 444.54 2067.9199999999996 445.356 2067.7479999999996C449.328 2066.9239999999995 452.588 2064.1799999999994 454.064 2060.4359999999997L475.428 2006.9319999999998C477.044 2007.9919999999997 478.928 2008.5639999999999 480.904 2008.5639999999999C483.576 2008.5639999999999 486.092 2007.5199999999998 487.972 2005.628L493.604 2000C495.508 1998.104 496.56 1995.592 496.56 1992.908C496.56 1990.224 495.508 1987.7079999999999 493.628 1985.836ZM446.632 2057.468C446.14 2058.7239999999997 445.044 2059.644 443.728 2059.9159999999997C443.42400000000004 2059.9799999999996 443.116 2060.008 442.812 2059.9999999999995C441.796 2059.9759999999997 440.82 2059.5679999999998 440.084 2058.8319999999994L389.172 2008.4799999999993C388.2364 2007.5479999999993 387.8244 2006.2119999999993 388.0704 2004.9079999999994C388.31440000000003 2003.6119999999994 389.18760000000003 2002.5199999999995 390.3964 2001.9879999999994L415.264 1992.0279999999993C432.024 1997.5959999999993 448.784 1992.2319999999993 465.544 2010.1159999999993ZM487.968 1994.32L482.31600000000003 1999.972C481.53200000000004 2000.76 480.26800000000003 2000.76 479.48800000000006 1999.972L472.4200000000001 1992.908L467.1671400000001 2006.0511399999998C455.1274200000001 1994.0319299999999 442.88774000000006 1992.5159699999997 431.84800000000007 1991.1599999999999C428.30000000000007 1990.724 424.8640000000001 1990.2679999999998 421.4800000000001 1989.54L455.4480000000001 1975.932L448.5880000000001 1969.076C447.8040000000001 1968.292 447.8040000000001 1967.028 448.5880000000001 1966.248L454.2440000000001 1960.588C455.02400000000006 1959.8039999999999 456.28800000000007 1959.8039999999999 457.07200000000006 1960.588L487.9680000000001 1991.492C488.7560000000001 1992.272 488.7560000000001 1993.54 487.9680000000001 1994.32ZM467.16714 2006.05114C467.16743 2006.05143 467.16771 2006.05171 467.168 2006.0520000000001L466.684 2007.2600000000002ZM446 2024C451.512 2024 456 2019.516 456 2014C456 2008.484 451.512 2004 446 2004C440.488 2004 436 2008.484 436 2014C436 2019.516 440.488 2024 446 2024ZM446 2008C449.316 2008 452 2010.688 452 2014C452 2017.312 449.316 2020 446 2020C442.684 2020 440 2017.312 440 2014C440 2010.688 442.684 2008 446 2008ZM498 1940C492.488 1940 488 1944.484 488 1950C488 1955.516 492.488 1960 498 1960C503.512 1960 508 1955.516 508 1950C508 1944.484 503.512 1940 498 1940ZM498 1956C494.684 1956 492 1953.312 492 1950C492 1946.688 494.684 1944 498 1944C501.316 1944 504 1946.688 504 1950C504 1953.312 501.316 1956 498 1956ZM412 2008C412 2012.412 415.588 2016 420 2016C424.412 2016 428 2012.412 428 2008C428 2003.592 424.412 2000 420 2000C415.588 2000 412 2003.592 412 2008ZM420 2004C422.208 2004 424 2005.788 424 2008C424 2010.212 422.208 2012 420 2012C417.792 2012 416 2010.212 416 2008C416 2005.788 417.792 2004 420 2004ZM432 2036C434.208 2036 436 2034.212 436 2032C436 2029.788 434.208 2028 432 2028C429.792 2028 428 2029.788 428 2032C428 2034.212 429.792 2036 432 2036ZM496 1968C493.792 1968 492 1969.788 492 1972C492 1974.212 493.792 1976 496 1976C498.208 1976 500 1974.212 500 1972C500 1969.788 498.208 1968 496 1968Z " fill="#202728" fill-opacity="1" transform="matrix(1,0,0,1,-379,-1940)"></path></svg>