<svg id="SvgjsSvg1098" xmlns="http://www.w3.org/2000/svg" version="1.1" xmlns:xlink="http://www.w3.org/1999/xlink" xmlns:svgjs="http://svgjs.com/svgjs" width="128" height="128" viewBox="0 0 128 128"><title>like</title><desc>Created with Avocode.</desc><defs id="SvgjsDefs1099"></defs><path id="SvgjsPath1100" d="M736.656 1485.884C731.66 1484.5720000000001 719.9 1484.588 702.704 1484.136C703.52 1480.3799999999999 703.704 1477 703.704 1470.992C703.704 1456.6399999999999 693.252 1444 684 1444C677.468 1444 672.084 1449.34 672 1455.904C671.912 1463.96 669.424 1477.876 656 1484.9279999999999C655.016 1485.4479999999999 652.2 1486.8359999999998 651.788 1487.02L651.81317 1487.04137C649.72914 1485.3040199999998 646.9003700000001 1484 644 1484H632C625.384 1484 620 1489.38 620 1496V1560C620 1566.62 625.384 1572 632 1572H644C648.76 1572 652.744 1569.128 654.672 1565.096C654.72 1565.112 654.804 1565.132 654.86 1565.14C655.124 1565.212 655.432 1565.2920000000001 655.816 1565.392C655.888 1565.4080000000001 655.924 1565.416 656 1565.44C658.304 1566.008 662.74 1567.0720000000001 672.22 1569.252C674.2520000000001 1569.712 684.984 1572 696.1120000000001 1572H717.9760000000001C724.6440000000001 1572 729.4440000000001 1569.44 732.3040000000001 1564.292C732.3480000000001 1564.212 733.2680000000001 1562.416 734.0200000000001 1559.984C734.5840000000001 1558.156 734.7920000000001 1555.572 734.1120000000001 1552.9479999999999C738.4080000000001 1549.992 739.7880000000001 1545.532 740.6920000000001 1542.628C742.1960000000001 1537.86 741.7440000000001 1534.2839999999999 740.6960000000001 1531.72C743.1080000000002 1529.44 745.1720000000001 1525.96 746.0440000000001 1520.656C746.58 1517.368 746.0040000000001 1513.984 744.4840000000002 1511.168C746.7520000000002 1508.6239999999998 747.7840000000001 1505.424 747.9000000000002 1502.464L747.9440000000002 1501.628C747.9760000000002 1501.1 748.0000000000002 1500.7759999999998 748.0000000000002 1499.624C748.0000000000002 1494.568 744.5040000000002 1488.128 736.6560000000002 1485.884ZM648 1560C648 1562.212 646.212 1564 644 1564H632C629.788 1564 628 1562.212 628 1560V1496C628 1493.788 629.788 1492 632 1492H644C646.212 1492 648 1493.788 648 1496ZM739.912 1502.14C739.8280000000001 1504.1160000000002 739 1508 732 1508C726 1508 724 1508 724 1508C722.896 1508 722 1508.892 722 1510C722 1511.104 722.896 1512 724 1512C724 1512 725.752 1512 731.752 1512C737.752 1512 738.54 1516.976 738.1479999999999 1519.376C737.6599999999999 1522.36 736.2599999999999 1528 729.5039999999999 1528C722.752 1528 719.9999999999999 1528 719.9999999999999 1528C718.8959999999998 1528 717.9999999999999 1528.892 717.9999999999999 1530C717.9999999999999 1531.104 718.8959999999998 1532 719.9999999999999 1532C719.9999999999999 1532 724.7519999999998 1532 727.8759999999999 1532C734.6239999999999 1532 734.0359999999998 1537.148 733.0639999999999 1540.22C731.7879999999999 1544.26 731.0079999999998 1548 722.5039999999999 1548C719.6239999999999 1548 715.9759999999999 1548 715.9759999999999 1548C714.8719999999998 1548 713.9759999999999 1548.892 713.9759999999999 1550C713.9759999999999 1551.104 714.8719999999998 1552 715.9759999999999 1552C715.9759999999999 1552 718.7519999999998 1552 722.2519999999998 1552C726.6239999999998 1552 726.8319999999999 1556.14 726.3759999999999 1557.628C725.8759999999999 1559.252 725.2839999999999 1560.456 725.2559999999999 1560.508C724.0479999999999 1562.688 722.0999999999999 1564 717.9759999999999 1564H696.1119999999999C685.1239999999998 1564 674.2319999999999 1561.508 673.9479999999999 1561.448C657.3319999999999 1557.6200000000001 656.4559999999999 1557.3200000000002 655.4159999999998 1557.0240000000001C655.4159999999998 1557.0240000000001 652.0319999999998 1556.4560000000001 652.0319999999998 1553.5000000000002L651.9999999999998 1498.2520000000002C651.9999999999998 1496.3760000000002 653.1959999999998 1494.6840000000002 655.1759999999998 1494.0840000000003C655.4239999999999 1493.9880000000003 655.7599999999998 1493.8840000000002 655.9999999999998 1493.7840000000003C674.2719999999998 1486.2160000000003 679.8359999999998 1469.6240000000003 679.9999999999998 1456.0000000000002C680.0239999999998 1454.0840000000003 681.4999999999998 1452.0000000000002 683.9999999999998 1452.0000000000002C688.2319999999997 1452.0000000000002 695.7039999999997 1460.4880000000003 695.7039999999997 1470.9920000000002C695.7039999999997 1480.476 695.3239999999997 1482.1160000000002 691.9999999999998 1492.0000000000002C731.9999999999998 1492.0000000000002 731.7199999999998 1492.5720000000001 735.2519999999997 1493.5000000000002C739.6239999999997 1494.7480000000003 739.9999999999998 1498.3760000000002 739.9999999999998 1499.6240000000003C739.9999999999998 1500.9960000000003 739.9599999999998 1500.7960000000003 739.9119999999998 1502.1400000000003ZM638 1548C634.688 1548 632 1550.688 632 1554C632 1557.312 634.688 1560 638 1560C641.312 1560 644 1557.312 644 1554C644 1550.688 641.312 1548 638 1548ZM638 1556C636.9 1556 636 1555.104 636 1554C636 1552.9 636.9 1552 638 1552C639.1 1552 640 1552.9 640 1554C640 1555.104 639.1 1556 638 1556Z " fill="#202728" fill-opacity="1" transform="matrix(1,0,0,1,-620,-1444)"></path></svg>