<svg id="SvgjsSvg1116" xmlns="http://www.w3.org/2000/svg" version="1.1" xmlns:xlink="http://www.w3.org/1999/xlink" xmlns:svgjs="http://svgjs.com/svgjs" width="98" height="128" viewBox="0 0 98 128"><title>location</title><desc>Created with Avocode.</desc><defs id="SvgjsDefs1117"></defs><path id="SvgjsPath1118" d="M204.004 1278.984C217.238 1278.984 228.004 1268.22 228.004 1254.984C228.004 1241.752 217.238 1230.984 204.004 1230.984C190.7696 1230.984 180.004 1241.752 180.004 1254.984C180.004 1268.22 190.7696 1278.984 204.004 1278.984ZM204.004 1234.984C215.0352 1234.984 224.004 1243.952 224.004 1254.984C224.004 1266.0159999999998 215.0352 1274.984 204.004 1274.984C192.9724 1274.984 184.004 1266.0159999999998 184.004 1254.984C184.004 1243.952 192.9724 1234.984 204.004 1234.984ZM204 1208C177.5272 1208 155.996 1229.264 155.996 1256.008C155.996 1284.012 180 1312.652 197.5 1332.78C197.5664 1332.86 200.3748 1336 203.8476 1336C203.8552 1336 204.1404 1336 204.1524 1336C207.6248 1336 210.4336 1332.86 210.5 1332.78C228.004 1312.652 252.004 1284.012 252.004 1256.008C252.004 1229.2640000000001 230.4724 1208 204 1208ZM204.4648 1327.532C204.3828 1327.608 204.1368 1327.792 203.9256 1327.9279999999999C203.8868 1327.812 203.5896 1327.58 203.41 1327.3919999999998C188.75 1310.524 163.99599999999998 1282.0599999999997 163.99599999999998 1256.0079999999998C163.99599999999998 1233.9479999999999 181.94519999999997 1215.9999999999998 203.99999999999997 1215.9999999999998C226.05839999999998 1215.9999999999998 244.00399999999996 1233.9479999999999 244.00399999999996 1256.0079999999998C244.00399999999996 1282.0599999999997 219.25399999999996 1310.524 204.46479999999997 1327.5319999999997Z " fill="#202728" fill-opacity="1" transform="matrix(1,0,0,1,-155,-1208)"></path></svg>