<svg id="SvgjsSvg1047" xmlns="http://www.w3.org/2000/svg" version="1.1" xmlns:xlink="http://www.w3.org/1999/xlink" xmlns:svgjs="http://svgjs.com/svgjs" width="96" height="128" viewBox="0 0 96 128"><title>lock</title><desc>Created with Avocode.</desc><defs id="SvgjsDefs1048"></defs><path id="SvgjsPath1049" d="M480 1020V1004C480 984.116 463.884 968 444 968C424.116 968 408 984.116 408 1004V1020C401.372 1020 396 1025.372 396 1032V1060C396 1079.884 412.116 1096 432 1096H456C475.884 1096 492 1079.884 492 1060V1032C492 1025.372 486.628 1020 480 1020ZM416 1004C416 988.536 428.536 976 444 976C459.464 976 472 988.536 472 1004V1020H464V1004.012C464 992.9639999999999 455.048 984.012 444 984.012C432.952 984.012 424 992.9639999999999 424 1004.012V1020H416ZM460 1004V1020H428V1004C428 995.164 435.164 988 444 988C452.836 988 460 995.164 460 1004ZM484 1060C484 1075.436 471.436 1088 456 1088H432C416.564 1088 404 1075.436 404 1060V1032C404 1029.792 405.792 1028 408 1028C410.668 1028 413.332 1028 416 1028H472C474.668 1028 477.332 1028 480 1028C482.208 1028 484 1029.792 484 1032ZM444 1044C439.584 1044 436 1047.584 436 1052C436 1054.432 437.332 1059.04 438.668 1062.688C439.76 1065.6560000000002 441.124 1067.996 444 1067.996C447.124 1067.996 448.244 1065.68 449.336 1062.728C450.688 1059.0720000000001 452 1054.44 452 1052C452 1047.584 448.42 1044 444 1044Z " fill="#202728" fill-opacity="1" transform="matrix(1,0,0,1,-396,-968)"></path></svg>