<svg id="SvgjsSvg1095" xmlns="http://www.w3.org/2000/svg" version="1.1" xmlns:xlink="http://www.w3.org/1999/xlink" xmlns:svgjs="http://svgjs.com/svgjs" width="128" height="84" viewBox="0 0 128 84"><title>mail</title><desc>Created with Avocode.</desc><defs id="SvgjsDefs1096"></defs><path id="SvgjsPath1097" d="M492 1468H396C387.164 1468 380 1475.164 380 1484V1536C380 1544.836 387.164 1552 396 1552H492C500.836 1552 508 1544.836 508 1536V1484C508 1475.164 500.836 1468 492 1468ZM388 1489L415.996 1510L388 1531ZM492 1544H396C391.59 1544 388 1540.412 388 1536L419.328 1512.5L436.79999999999995 1525.608C438.93199999999996 1527.204 441.46399999999994 1528.008 443.99999999999994 1528.008C446.53599999999994 1528.008 449.0679999999999 1527.204 451.19999999999993 1525.608L468.6719999999999 1512.5L499.9999999999999 1536C499.9999999999999 1540.412 496.41199999999986 1544 491.9999999999999 1544ZM500 1531L472.004 1510L500 1489ZM448.8 1522.404C447.404 1523.452 445.744 1524.008 444 1524.008C442.26 1524.008 440.596 1523.452 439.2 1522.404L422.65999999999997 1510L419.328 1507.5L388 1484.004V1484C388 1479.592 391.59 1476 396 1476H492C496.412 1476 500 1479.592 500 1484Z " fill="#202728" fill-opacity="1" transform="matrix(1,0,0,1,-380,-1468)"></path></svg>