<svg id="SvgjsSvg1134" xmlns="http://www.w3.org/2000/svg" version="1.1" xmlns:xlink="http://www.w3.org/1999/xlink" xmlns:svgjs="http://svgjs.com/svgjs" width="128" height="128" viewBox="0 0 128 128"><title>megaphone</title><desc>Created with Avocode.</desc><defs id="SvgjsDefs1135"></defs><path id="SvgjsPath1136" d="M1436 1680C1427.788 1680 1421.34 1685.64 1416.704 1694.344L1416.616 1694.296C1409.892 1707.468 1399.876 1716 1388.904 1716H1352C1343.028 1716 1336 1724.788 1336 1736C1336 1747.22 1343.028 1756 1352 1756C1356.412 1756.016 1359.98 1759.588 1359.98 1764V1800C1359.98 1804.424 1363.564 1808 1367.98 1808H1383.98C1388.4 1808 1391.98 1804.424 1391.98 1800V1796C1391.98 1792 1387.98 1790.212 1387.98 1788V1760C1387.98 1759.908 1388.044 1759.844 1388.052 1759.752C1388.0919999999999 1759.18 1388.2479999999998 1758.648 1388.5 1758.172C1388.572 1758.04 1388.648 1757.936 1388.736 1757.82C1389.056 1757.3439999999998 1389.4560000000001 1756.952 1389.948 1756.648C1389.972 1756.6319999999998 1389.98 1756.608 1390.0040000000001 1756.5919999999999C1390.0200000000002 1756.5919999999999 1390.0320000000002 1756.58 1390.0480000000002 1756.58C1390.3680000000002 1756.3999999999999 1390.7520000000002 1756.36 1391.1080000000002 1756.26C1401.208 1757.328 1410.3480000000002 1765.4759999999999 1416.6160000000002 1777.752L1416.7240000000002 1777.704C1421.3600000000001 1786.376 1427.8000000000002 1792 1436.0000000000002 1792C1454.3840000000002 1792 1464.0000000000002 1763.828 1464.0000000000002 1736C1464.0000000000002 1708.172 1454.3840000000002 1680 1436.0000000000002 1680ZM1416 1736C1416 1731.852 1416.24 1727.844 1416.656 1724H1428C1432.42 1724 1436 1729.376 1436 1736C1436 1742.632 1432.42 1748 1428 1748H1416.656C1416.24 1744.156 1416 1740.156 1416 1736ZM1344 1736C1344 1729.376 1347.584 1724 1352 1724H1380.056C1377.576 1726.916 1376 1731.148 1376 1736C1376 1740.86 1377.576 1745.092 1380.056 1748H1352C1347.584 1748 1344 1742.632 1344 1736ZM1383.98 1800H1367.98V1764C1367.98 1761.088 1367.2 1758.36 1365.832 1756H1368.624V1756.048H1380.656C1380.2279999999998 1757.288 1379.98 1758.608 1379.98 1760V1788C1379.98 1791.852 1382.132 1794.416 1383.42 1795.944C1383.592 1796.156 1383.8000000000002 1796.376 1383.98 1796.608ZM1388.904 1748.048H1388V1748C1383.584 1748 1380 1742.632 1380 1736C1380 1729.376 1383.584 1724 1388 1724H1388.904C1396.444 1724 1403.512 1721.032 1409.728 1715.928C1408.588 1722.3680000000002 1408 1729.188 1408 1736C1408 1742.836 1408.588 1749.68 1409.736 1756.124C1403.5200000000002 1751.016 1396.448 1748.048 1388.904 1748.048ZM1436 1784C1427.928 1784 1421 1772.516 1417.836 1756H1428C1436.972 1756 1444 1747.22 1444 1736C1444 1724.788 1436.972 1716 1428 1716H1417.836C1421 1699.492 1427.928 1688 1436 1688C1447.048 1688 1456 1709.492 1456 1736C1456 1762.508 1447.048 1784 1436 1784Z " fill="#202728" fill-opacity="1" transform="matrix(1,0,0,1,-1336,-1680)"></path></svg>