<svg id="SvgjsSvg1131" xmlns="http://www.w3.org/2000/svg" version="1.1" xmlns:xlink="http://www.w3.org/1999/xlink" xmlns:svgjs="http://svgjs.com/svgjs" width="129" height="128" viewBox="0 0 129 128"><title>music</title><desc>Created with Avocode.</desc><defs id="SvgjsDefs1132"></defs><path id="SvgjsPath1133" d="M1217.14 1681.876C1215.692 1680.656 1213.8680000000002 1680 1212 1680C1211.54 1680 1211.072 1680.04 1210.612 1680.124L1142.604 1692.124C1138.78 1692.796 1135.992 1696.116 1135.992 1700V1768.68C1131.936 1765.736 1126.668 1764 1120.816 1764C1117.42 1764 1114.016 1764.564 1110.7 1765.664C1103.112 1768.196 1097.0240000000001 1773.272 1094 1779.6C1091.664 1784.492 1091.364 1789.812 1093.144 1794.588C1096.188 1802.7359999999999 1104.836 1808 1115.176 1808C1118.576 1808 1121.9759999999999 1807.444 1125.288 1806.336C1132.88 1803.8120000000001 1138.964 1798.736 1141.988 1792.416C1143.288 1789.6879999999999 1143.896 1786.828 1143.924 1784H1143.992V1720C1144.456 1720 1144.924 1719.96 1145.384 1719.884L1212 1708.124V1756.68C1207.944 1753.736 1202.676 1752 1196.82 1752C1193.424 1752 1190.02 1752.564 1186.704 1753.664C1179.116 1756.196 1173.028 1761.272 1170.008 1767.6C1167.672 1772.492 1167.372 1777.812 1169.152 1782.588C1172.1960000000001 1790.7359999999999 1180.8400000000001 1796 1191.18 1796C1194.5800000000002 1796 1197.9840000000002 1795.444 1201.296 1794.336C1208.8880000000001 1791.8120000000001 1214.972 1786.736 1217.996 1780.416C1219.296 1777.6879999999999 1219.904 1774.828 1219.932 1772H1220V1688C1220 1685.64 1218.956 1683.392 1217.14 1681.876ZM1122.752 1798.752C1113.164 1801.944 1103.26 1798.82 1100.632 1791.788C1098 1784.752 1103.636 1776.452 1113.22 1773.26C1122.804 1770.064 1132.712 1773.18 1135.336 1780.22C1137.968 1787.26 1132.336 1795.556 1122.752 1798.752ZM1198.612 1786.752C1189.02 1789.944 1179.116 1786.82 1176.488 1779.788C1173.856 1772.752 1179.492 1764.452 1189.076 1761.26C1198.664 1758.064 1208.5720000000001 1761.18 1211.196 1768.22C1213.828 1775.26 1208.196 1783.556 1198.6119999999999 1786.752ZM1211.84 1700L1143.8319999999999 1712V1700L1211.84 1688Z " fill="#202728" fill-opacity="1" transform="matrix(1,0,0,1,-1091,-1680)"></path></svg>