<svg id="SvgjsSvg1113" xmlns="http://www.w3.org/2000/svg" version="1.1" xmlns:xlink="http://www.w3.org/1999/xlink" xmlns:svgjs="http://svgjs.com/svgjs" width="128" height="128" viewBox="0 0 128 128"><title>news</title><desc>Created with Avocode.</desc><defs id="SvgjsDefs1114"></defs><path id="SvgjsPath1115" d="M256 1444H168C161.3712 1444 156 1449.372 156 1456V1464H152C145.3712 1464 140 1469.372 140 1476V1556C140 1564.836 147.164 1572 156 1572H252C260.836 1572 268 1564.836 268 1556V1456C268 1449.372 262.6288 1444 256 1444ZM260 1556C260 1560.408 256.41 1564 252 1564H156C151.59 1564 148 1560.408 148 1556V1476C148 1473.792 149.7928 1472 152 1472H156V1552C156 1554.212 157.7892 1556 160 1556C162.2108 1556 164 1554.212 164 1552V1456C164 1453.792 165.7928 1452 168 1452H256C258.2072 1452 260 1453.792 260 1456ZM217.996 1496.024H249.996C251.10160000000002 1496.024 251.996 1495.128 251.996 1494.024C251.996 1492.916 251.10160000000002 1492.024 249.996 1492.024H217.996C216.8908 1492.024 215.996 1492.916 215.996 1494.024C215.996 1495.128 216.8908 1496.024 217.996 1496.024ZM217.996 1484.024H249.996C251.10160000000002 1484.024 251.996 1483.128 251.996 1482.024C251.996 1480.916 251.10160000000002 1480.024 249.996 1480.024H217.996C216.8908 1480.024 215.996 1480.916 215.996 1482.024C215.996 1483.128 216.8908 1484.024 217.996 1484.024ZM217.996 1472.024H249.996C251.10160000000002 1472.024 251.996 1471.128 251.996 1470.024C251.996 1468.916 251.10160000000002 1468.024 249.996 1468.024H217.996C216.8908 1468.024 215.996 1468.916 215.996 1470.024C215.996 1471.128 216.8908 1472.024 217.996 1472.024ZM206 1552.016H174C172.8944 1552.016 172 1552.9160000000002 172 1554.016C172 1555.1280000000002 172.8944 1556.016 174 1556.016H206C207.1056 1556.016 208 1555.1280000000002 208 1554.016C208 1552.9160000000002 207.1056 1552.016 206 1552.016ZM206 1540.016H174C172.8944 1540.016 172 1540.9160000000002 172 1542.016C172 1543.1280000000002 172.8944 1544.016 174 1544.016H206C207.1056 1544.016 208 1543.1280000000002 208 1542.016C208 1540.9160000000002 207.1056 1540.016 206 1540.016ZM206 1528.016H174C172.8944 1528.016 172 1528.9160000000002 172 1530.016C172 1531.1280000000002 172.8944 1532.016 174 1532.016H206C207.1056 1532.016 208 1531.1280000000002 208 1530.016C208 1528.9160000000002 207.1056 1528.016 206 1528.016ZM250 1552.016H218C216.8944 1552.016 216 1552.9160000000002 216 1554.016C216 1555.1280000000002 216.8944 1556.016 218 1556.016H250C251.1056 1556.016 252 1555.1280000000002 252 1554.016C252 1552.9160000000002 251.1056 1552.016 250 1552.016ZM250 1540.016H218C216.8944 1540.016 216 1540.9160000000002 216 1542.016C216 1543.1280000000002 216.8944 1544.016 218 1544.016H250C251.1056 1544.016 252 1543.1280000000002 252 1542.016C252 1540.9160000000002 251.1056 1540.016 250 1540.016ZM250 1528.016H218C216.8944 1528.016 216 1528.9160000000002 216 1530.016C216 1531.1280000000002 216.8944 1532.016 218 1532.016H250C251.1056 1532.016 252 1531.1280000000002 252 1530.016C252 1528.9160000000002 251.1056 1528.016 250 1528.016ZM250 1504.02H174C172.8944 1504.02 172 1504.912 172 1506.02C172 1507.124 172.8944 1508.02 174 1508.02H250C251.1056 1508.02 252 1507.124 252 1506.02C252 1504.912 251.1056 1504.02 250 1504.02ZM250 1516.016H174C172.8944 1516.016 172 1516.9160000000002 172 1518.016C172 1519.1280000000002 172.8944 1520.016 174 1520.016H250C251.1056 1520.016 252 1519.1280000000002 252 1518.016C252 1516.9160000000002 251.1056 1516.016 250 1516.016ZM176 1496H204C206.2108 1496 208 1494.208 208 1492V1464.02C208 1461.808 206.2108 1460.02 204 1460.02H176C173.7892 1460.02 172 1461.808 172 1464.02V1492C172 1494.208 173.7892 1496 176 1496ZM180 1468H200V1488H180Z " fill="#202728" fill-opacity="1" transform="matrix(1,0,0,1,-140,-1444)"></path></svg>