<svg id="SvgjsSvg1104" xmlns="http://www.w3.org/2000/svg" version="1.1" xmlns:xlink="http://www.w3.org/1999/xlink" xmlns:svgjs="http://svgjs.com/svgjs" width="128" height="120" viewBox="0 0 128 120"><title>note</title><desc>Created with Avocode.</desc><defs id="SvgjsDefs1105"></defs><path id="SvgjsPath1106" d="M1225.656 1474.344L1201.656 1450.344C1200.156 1448.844 1198.12 1448 1196 1448H1112C1105.384 1448 1100 1453.38 1100 1460V1556C1100 1562.62 1105.384 1568 1112 1568H1216C1222.616 1568 1228 1562.62 1228 1556V1480C1228 1477.876 1227.156 1475.844 1225.656 1474.344ZM1220 1556C1220 1558.212 1218.212 1560 1216 1560H1112C1109.788 1560 1108 1558.212 1108 1556V1460C1108 1457.788 1109.788 1456 1112 1456H1192V1472H1191.996C1191.996 1478.628 1197.3680000000002 1484 1203.996 1484H1220ZM1203.996 1480C1199.5880000000002 1480 1195.996 1476.408 1195.996 1472H1196V1456L1220 1480ZM1162 1476H1182C1183.104 1476 1184 1475.104 1184 1474C1184 1472.892 1183.104 1472 1182 1472H1162C1160.896 1472 1160 1472.892 1160 1474C1160 1475.104 1160.896 1476 1162 1476ZM1162 1488H1182C1183.104 1488 1184 1487.104 1184 1486C1184 1484.892 1183.104 1484 1182 1484H1162C1160.896 1484 1160 1484.892 1160 1486C1160 1487.104 1160.896 1488 1162 1488ZM1160 1498C1160 1499.104 1160.896 1500 1162 1500H1210C1211.104 1500 1212 1499.104 1212 1498C1212 1496.892 1211.104 1496 1210 1496H1162C1160.896 1496 1160 1496.892 1160 1498ZM1210 1520H1118C1116.896 1520 1116 1520.892 1116 1522C1116 1523.104 1116.896 1524 1118 1524H1210C1211.104 1524 1212 1523.104 1212 1522C1212 1520.892 1211.104 1520 1210 1520ZM1210 1532H1118C1116.896 1532 1116 1532.892 1116 1534C1116 1535.104 1116.896 1536 1118 1536H1210C1211.104 1536 1212 1535.104 1212 1534C1212 1532.892 1211.104 1532 1210 1532ZM1210 1544H1118C1116.896 1544 1116 1544.892 1116 1546C1116 1547.104 1116.896 1548 1118 1548H1210C1211.104 1548 1212 1547.104 1212 1546C1212 1544.892 1211.104 1544 1210 1544ZM1210 1508H1118C1116.896 1508 1116 1508.892 1116 1510C1116 1511.104 1116.896 1512 1118 1512H1210C1211.104 1512 1212 1511.104 1212 1510C1212 1508.892 1211.104 1508 1210 1508ZM1120 1500H1148C1150.212 1500 1152 1498.208 1152 1496V1472C1152 1469.788 1150.212 1468 1148 1468H1120C1117.788 1468 1116 1469.788 1116 1472V1496C1116 1498.208 1117.788 1500 1120 1500ZM1124 1476H1144V1492H1124Z " fill="#202728" fill-opacity="1" transform="matrix(1,0,0,1,-1100,-1448)"></path></svg>