<svg id="SvgjsSvg1119" xmlns="http://www.w3.org/2000/svg" version="1.1" xmlns:xlink="http://www.w3.org/1999/xlink" xmlns:svgjs="http://svgjs.com/svgjs" width="128" height="128" viewBox="0 0 128 128"><title>paperplane</title><desc>Created with Avocode.</desc><defs id="SvgjsDefs1120"></defs><path id="SvgjsPath1121" d="M266.1712 1680.64C265.5108 1680.212 264.7532 1680 263.9992 1680C263.2256 1680 262.45239999999995 1680.22 261.7804 1680.672L141.7804 1760.672C140.546 1761.492 139.8664 1762.936 140.0228 1764.416C140.17479999999998 1765.892 141.136 1767.164 142.5144 1767.712L173.8116 1780.2359999999999L188.5264 1805.984C189.2296 1807.22 190.5384 1807.984 191.9564 1808C191.972 1808 191.9836 1808 191.9988 1808C193.4016 1808 194.706 1807.26 195.4288 1806.056L203.7376 1792.204L242.51479999999998 1807.712C242.9912 1807.908 243.49519999999998 1808 243.9988 1808C244.6788 1808 245.35479999999998 1807.828 245.95999999999998 1807.484C247.01479999999998 1806.8919999999998 247.74519999999998 1805.8519999999999 247.94439999999997 1804.656L267.9444 1684.656C268.2064 1683.088 267.51079999999996 1681.508 266.1712 1680.6399999999999ZM152.546 1763.108L245.2452 1701.3039999999999L177.84680000000003 1773.4519999999998C177.49120000000002 1773.2439999999997 177.17480000000003 1772.9599999999998 176.78440000000003 1772.8039999999999ZM180.7572 1776.264C180.7492 1776.252 180.7372 1776.244 180.7296 1776.2279999999998L256.4992 1695.1239999999998L191.9056 1795.7719999999997ZM240.8704 1798.436L206.70639999999997 1784.772C205.89 1784.452 205.04559999999998 1784.3439999999998 204.20999999999998 1784.2959999999998L256.8196 1702.7399999999998Z " fill="#202728" fill-opacity="1" transform="matrix(1,0,0,1,-140,-1680)"></path></svg>