<svg id="SvgjsSvg1122" xmlns="http://www.w3.org/2000/svg" version="1.1" xmlns:xlink="http://www.w3.org/1999/xlink" xmlns:svgjs="http://svgjs.com/svgjs" width="128" height="128" viewBox="0 0 128 128"><title>params</title><desc>Created with Avocode.</desc><defs id="SvgjsDefs1123"></defs><path id="SvgjsPath1124" d="M412 1704.088V1692C412 1685.384 406.616 1680 400 1680C393.3828 1680 388 1685.384 388 1692V1704.088C383.168 1707.74 380 1713.4759999999999 380 1720C380 1726.524 383.168 1732.26 388 1735.908V1796C388 1802.616 393.3828 1808 400 1808C406.616 1808 412 1802.616 412 1796V1735.908C416.832 1732.26 420 1726.524 420 1720C420 1713.476 416.832 1707.74 412 1704.088ZM396 1692C396 1689.788 397.7892 1688 400 1688C402.212 1688 404 1689.788 404 1692V1700.4C402.708 1700.14 401.372 1700 400 1700C398.6288 1700 397.2928 1700.14 396 1700.4ZM404 1796C404 1798.212 402.212 1800 400 1800C397.7892 1800 396 1798.212 396 1796V1739.592C397.2928 1739.8600000000001 398.6288 1740 400 1740C401.372 1740 402.708 1739.86 404 1739.592ZM411.46 1723.36C411.4 1723.572 411.34 1723.78 411.26399999999995 1723.992C410.888 1725.048 410.4 1726.048 409.756 1726.936C409.73999999999995 1726.9599999999998 409.71599999999995 1726.9759999999999 409.7 1727C409.00399999999996 1727.952 408.176 1728.796 407.236 1729.508C407.21999999999997 1729.5240000000001 407.20799999999997 1729.532 407.19599999999997 1729.54C406.23199999999997 1730.264 405.15599999999995 1730.8519999999999 403.99999999999994 1731.26C402.74399999999997 1731.712 401.40799999999996 1732 399.99999999999994 1732C398.5899999999999 1732 397.2579999999999 1731.712 395.99999999999994 1731.26C394.8435999999999 1730.852 393.76959999999997 1730.264 392.80479999999994 1729.54C392.79279999999994 1729.532 392.78119999999996 1729.524 392.76559999999995 1729.508C391.82439999999997 1728.796 390.9959999999999 1727.952 390.3007999999999 1727C390.2851999999999 1726.976 390.26159999999993 1726.96 390.2459999999999 1726.936C389.6015999999999 1726.048 389.11319999999995 1725.048 388.73439999999994 1723.992C388.6599999999999 1723.78 388.60159999999996 1723.572 388.53919999999994 1723.36C388.21879999999993 1722.288 387.99999999999994 1721.1719999999998 387.99999999999994 1720C387.99999999999994 1718.82 388.21879999999993 1717.704 388.53919999999994 1716.632C388.60159999999996 1716.424 388.6599999999999 1716.212 388.73439999999994 1716.008C389.11319999999995 1714.952 389.60159999999996 1713.952 390.2459999999999 1713.056C390.26159999999993 1713.0320000000002 390.2851999999999 1713.016 390.3007999999999 1712.992C390.9959999999999 1712.048 391.8243999999999 1711.196 392.76559999999995 1710.484C392.78119999999996 1710.4759999999999 392.79279999999994 1710.46 392.80479999999994 1710.452C393.76959999999997 1709.736 394.8435999999999 1709.148 395.99999999999994 1708.736C397.2579999999999 1708.288 398.5899999999999 1708 399.99999999999994 1708C401.40799999999996 1708 402.74399999999997 1708.288 403.99999999999994 1708.736C405.15599999999995 1709.1480000000001 406.23199999999997 1709.736 407.19599999999997 1710.452C407.20799999999997 1710.46 407.21999999999997 1710.4759999999999 407.236 1710.484C408.176 1711.196 409.00399999999996 1712.048 409.7 1712.992C409.716 1713.0159999999998 409.74 1713.032 409.756 1713.056C410.4 1713.952 410.888 1714.952 411.26399999999995 1716.008C411.34 1716.212 411.4 1716.424 411.46 1716.632C411.78 1717.704 412 1718.8200000000002 412 1720C412 1721.172 411.78 1722.288 411.46 1723.36ZM500 1704.088V1692C500 1685.384 494.616 1680 488 1680C481.384 1680 476 1685.384 476 1692V1704.088C471.168 1707.74 468 1713.4759999999999 468 1720C468 1726.524 471.168 1732.26 476 1735.908V1796C476 1802.616 481.384 1808 488 1808C494.616 1808 500 1802.616 500 1796V1735.908C504.832 1732.26 508 1726.524 508 1720C508 1713.476 504.832 1707.74 500 1704.088ZM484 1692C484 1689.788 485.788 1688 488 1688C490.212 1688 492 1689.788 492 1692V1700.4C490.708 1700.14 489.372 1700 488 1700C486.628 1700 485.292 1700.14 484 1700.4ZM492 1796C492 1798.212 490.212 1800 488 1800C485.788 1800 484 1798.212 484 1796V1739.592C485.292 1739.8600000000001 486.628 1740 488 1740C489.372 1740 490.708 1739.86 492 1739.592ZM499.46 1723.36C499.4 1723.572 499.34 1723.78 499.26399999999995 1723.992C498.888 1725.048 498.4 1726.048 497.756 1726.936C497.73999999999995 1726.9599999999998 497.71599999999995 1726.9759999999999 497.7 1727C497.00399999999996 1727.952 496.176 1728.796 495.236 1729.508C495.21999999999997 1729.5240000000001 495.20799999999997 1729.532 495.19599999999997 1729.54C494.23199999999997 1730.264 493.15599999999995 1730.8519999999999 491.99999999999994 1731.26C490.74399999999997 1731.712 489.4119999999999 1732 487.99999999999994 1732C486.5919999999999 1732 485.25999999999993 1731.712 483.99999999999994 1731.26C482.84399999999994 1730.852 481.7679999999999 1730.264 480.8039999999999 1729.54C480.7919999999999 1729.532 480.7799999999999 1729.524 480.7639999999999 1729.508C479.8239999999999 1728.796 478.9959999999999 1727.952 478.2999999999999 1727C478.2839999999999 1726.976 478.2599999999999 1726.96 478.2479999999999 1726.936C477.59999999999985 1726.048 477.11199999999985 1725.048 476.7359999999999 1723.992C476.65999999999985 1723.78 476.59999999999985 1723.572 476.53999999999985 1723.36C476.21999999999986 1722.288 475.99999999999983 1721.1719999999998 475.99999999999983 1720C475.99999999999983 1718.82 476.21999999999986 1717.704 476.53999999999985 1716.632C476.59999999999985 1716.424 476.65999999999985 1716.212 476.7359999999999 1716.008C477.11199999999985 1714.952 477.59999999999985 1713.952 478.2479999999999 1713.056C478.2599999999999 1713.0320000000002 478.2839999999999 1713.016 478.2999999999999 1712.992C478.9959999999999 1712.048 479.8239999999999 1711.196 480.7639999999999 1710.484C480.7799999999999 1710.4759999999999 480.7919999999999 1710.46 480.8039999999999 1710.452C481.7679999999999 1709.736 482.84399999999994 1709.148 483.99999999999994 1708.736C485.25999999999993 1708.288 486.5919999999999 1708 487.99999999999994 1708C489.4119999999999 1708 490.74399999999997 1708.288 491.99999999999994 1708.736C493.15599999999995 1709.1480000000001 494.23199999999997 1709.736 495.19599999999997 1710.452C495.20799999999997 1710.46 495.21999999999997 1710.4759999999999 495.236 1710.484C496.176 1711.196 497.00399999999996 1712.048 497.7 1712.992C497.716 1713.0159999999998 497.74 1713.032 497.756 1713.056C498.4 1713.952 498.888 1714.952 499.26399999999995 1716.008C499.34 1716.212 499.4 1716.424 499.46 1716.632C499.78 1717.704 500 1718.8200000000002 500 1720C500 1721.172 499.78 1722.288 499.46 1723.36ZM456 1752.088V1692C456 1685.384 450.616 1680 444 1680C437.384 1680 432 1685.384 432 1692V1752.088C427.168 1755.744 424 1761.4759999999999 424 1768C424 1774.524 427.168 1780.26 432 1783.908V1796C432 1802.616 437.384 1808 444 1808C450.616 1808 456 1802.616 456 1796V1783.908C460.832 1780.26 464 1774.524 464 1768C464 1761.476 460.832 1755.744 456 1752.088ZM440 1692C440 1689.788 441.788 1688 444 1688C446.212 1688 448 1689.788 448 1692V1748.4C446.708 1748.14 445.372 1748 444 1748C442.628 1748 441.292 1748.14 440 1748.4ZM448 1796C448 1798.212 446.212 1800 444 1800C441.788 1800 440 1798.212 440 1796V1787.592C441.292 1787.8600000000001 442.628 1788 444 1788C445.372 1788 446.708 1787.86 448 1787.592ZM455.46 1771.36C455.4 1771.572 455.34 1771.78 455.26399999999995 1771.992C454.888 1773.048 454.4 1774.048 453.756 1774.936C453.73999999999995 1774.9599999999998 453.71599999999995 1774.9759999999999 453.7 1775C453.00399999999996 1775.952 452.176 1776.796 451.236 1777.508C451.21999999999997 1777.5240000000001 451.20799999999997 1777.532 451.19599999999997 1777.54C450.23199999999997 1778.264 449.15599999999995 1778.8519999999999 447.99999999999994 1779.26C446.74399999999997 1779.712 445.4119999999999 1780 443.99999999999994 1780C442.5919999999999 1780 441.25999999999993 1779.712 439.99999999999994 1779.26C438.84399999999994 1778.852 437.7679999999999 1778.264 436.8039999999999 1777.54C436.7919999999999 1777.532 436.7799999999999 1777.524 436.7639999999999 1777.508C435.8239999999999 1776.796 434.9959999999999 1775.952 434.2999999999999 1775C434.2839999999999 1774.976 434.2599999999999 1774.96 434.2479999999999 1774.936C433.59999999999985 1774.048 433.11199999999985 1773.048 432.7359999999999 1771.992C432.65999999999985 1771.78 432.59999999999985 1771.572 432.53999999999985 1771.36C432.21999999999986 1770.288 431.99999999999983 1769.1719999999998 431.99999999999983 1768C431.99999999999983 1766.82 432.21999999999986 1765.704 432.53999999999985 1764.632C432.59999999999985 1764.424 432.65999999999985 1764.212 432.7359999999999 1764.008C433.11199999999985 1762.952 433.59999999999985 1761.952 434.2479999999999 1761.056C434.2599999999999 1761.0320000000002 434.2839999999999 1761.016 434.2999999999999 1760.992C434.9959999999999 1760.048 435.8239999999999 1759.196 436.7639999999999 1758.484C436.7799999999999 1758.4759999999999 436.7919999999999 1758.46 436.8039999999999 1758.452C437.7679999999999 1757.736 438.84399999999994 1757.148 439.99999999999994 1756.736C441.25999999999993 1756.288 442.5919999999999 1756 443.99999999999994 1756C445.4119999999999 1756 446.74399999999997 1756.288 447.99999999999994 1756.736C449.15599999999995 1757.1480000000001 450.23199999999997 1757.736 451.19599999999997 1758.452C451.20799999999997 1758.46 451.21999999999997 1758.4759999999999 451.236 1758.484C452.176 1759.196 453.00399999999996 1760.048 453.7 1760.992C453.716 1761.0159999999998 453.74 1761.032 453.756 1761.056C454.4 1761.952 454.888 1762.952 455.26399999999995 1764.008C455.34 1764.212 455.4 1764.424 455.46 1764.632C455.78 1765.704 456 1766.8200000000002 456 1768C456 1769.172 455.78 1770.288 455.46 1771.36Z " fill="#202728" fill-opacity="1" transform="matrix(1,0,0,1,-380,-1680)"></path></svg>