<svg id="SvgjsSvg1000" xmlns="http://www.w3.org/2000/svg" version="1.1" xmlns:xlink="http://www.w3.org/1999/xlink" xmlns:svgjs="http://svgjs.com/svgjs" width="128" height="128" viewBox="0 0 128 128"><title>pen</title><desc>Created with Avocode.</desc><defs id="SvgjsDefs1001"></defs><path id="SvgjsPath1007" d="M977.584 978.32C971 971.7520000000001 962.3399999999999 968 953.7959999999999 968C946.5959999999999 968 939.9599999999999 970.672 935.1199999999999 975.508L915.6519999999999 995.124C915.592 995.1800000000001 915.5239999999999 995.22 915.4639999999999 995.2760000000001C915.4319999999999 995.3080000000001 915.4159999999999 995.3520000000001 915.3839999999999 995.384L915.3919999999999 995.392L874.0719999999999 1037.0240000000001C872.1679999999999 1038.9160000000002 870.7839999999999 1041.2720000000002 870.0199999999999 1043.844L860.6239999999999 1077.876C860.612 1077.968 859.9999999999999 1080.644 859.9999999999999 1082C859.9999999999999 1089.732 866.2759999999998 1096 874.0199999999999 1096C875.5599999999998 1096 878.5399999999998 1095.264 878.6479999999999 1095.252L912.56 1086.336C915.132 1085.5720000000001 917.476 1084.18 919.38 1082.272L980.428 1020.7439999999999C991.536 1009.6239999999999 990.284 990.9999999999999 977.584 978.3199999999999ZM924.06 1063.184C923.732 1059.572 922.712 1056.032 921.184 1052.672L959 1014.86C961.312 1022.164 960.128 1029.804 955.06 1034.876C955.0279999999999 1034.908 954.9879999999999 1034.924 954.9559999999999 1034.956L955.0079999999999 1035.0079999999998L924.0959999999999 1066.1639999999998C924.0999999999999 1065.1719999999998 924.1479999999999 1064.1959999999997 924.06 1063.1839999999997ZM919.176 1049.024C917.6840000000001 1046.572 915.988 1044.2079999999999 913.888 1042.108C911.44 1039.664 908.6360000000001 1037.7559999999999 905.712 1036.1399999999999L943.84 998.0159999999998C946.8280000000001 999.3439999999998 949.7 1001.2359999999999 952.2320000000001 1003.7639999999999C954.392 1005.9239999999999 956.0680000000001 1008.3359999999999 957.3520000000001 1010.8479999999998ZM901.944 1034.252C898.2439999999999 1032.7559999999999 894.36 1031.908 890.472 1031.856L921.284 1000.808C926 996.208 932.872 994.884 939.636 996.564ZM876.672 1087.492C876.236 1087.5919999999999 874.88 1087.936 873.956 1088C870.668 1087.964 868 1085.288 868 1082C868.048 1081.332 868.316 1080.176 868.408 1079.748L872.616 1064.492C877.188 1064.368 882.108 1066.148 885.976 1070.024C889.908 1073.9479999999999 891.756 1078.964 891.552 1083.588ZM895.496 1082.548C895.4 1077.184 893.216 1071.596 888.808 1067.2C884.64 1063.0240000000001 879.188 1060.616 873.748 1060.404L877.7320000000001 1045.972C878.0200000000001 1045.012 878.5920000000001 1044.068 879.292 1043.2359999999999C887.316 1037.492 899.6560000000001 1039.1879999999999 908.2320000000001 1047.764C917.296 1056.8319999999999 918.7 1070.108 911.7160000000001 1078.04C911.2520000000001 1078.28 910.7800000000001 1078.516 910.2760000000001 1078.668ZM974.768 1015.092L968.032 1021.88C968.032 1020.976 968.14 1020.104 968.0600000000001 1019.184C967.3560000000001 1011.444 963.744 1003.9599999999999 957.888 998.108C951.3720000000001 991.592 942.7280000000001 987.848 934.172 987.824L940.8000000000001 981.144C944.1080000000001 977.836 948.7360000000001 976 953.796 976C960.24 976 966.8480000000001 978.912 971.928 983.98C976.704 988.748 979.552 994.664 979.952 1000.652C980.328 1006.244 978.4879999999999 1011.368 974.768 1015.0920000000001Z " fill="#202728" fill-opacity="1" transform="matrix(1,0,0,1,-860,-968)"></path></svg>