<svg id="SvgjsSvg1110" xmlns="http://www.w3.org/2000/svg" version="1.1" xmlns:xlink="http://www.w3.org/1999/xlink" xmlns:svgjs="http://svgjs.com/svgjs" width="88" height="129" viewBox="0 0 88 129"><title>phone</title><desc>Created with Avocode.</desc><defs id="SvgjsDefs1111"></defs><path id="SvgjsPath1112" d="M1436 1208H1372C1365.372 1208 1360 1213.372 1360 1220.004V1324.004C1360 1330.6319999999998 1365.372 1336.004 1372 1336.004L1436 1335.9959999999999C1442.628 1335.9959999999999 1448 1330.628 1448 1323.9999999999998V1219.9999999999998C1448 1213.3679999999997 1442.628 1207.9999999999998 1436 1207.9999999999998ZM1440 1324C1440 1326.204 1438.208 1328 1436 1328L1372 1328.004C1369.792 1328.004 1368 1326.2079999999999 1368 1324.004V1315.9879999999998L1440 1315.984ZM1440 1311.984L1368 1311.9879999999998V1232.004L1440 1231.9959999999999ZM1440 1228H1368V1220.004C1368 1217.7959999999998 1369.792 1216.004 1372 1216.004L1436 1215.9959999999999C1438.208 1215.9959999999999 1440 1217.792 1440 1219.9999999999998ZM1412 1221.996C1412 1220.892 1411.104 1220 1410 1220H1398C1396.896 1220 1396 1220.892 1396 1221.996C1396 1223.104 1396.896 1224 1398 1224H1410C1411.104 1224 1412 1223.104 1412 1221.996ZM1408 1321.984C1408 1320.876 1407.104 1319.984 1406 1319.984H1402C1400.896 1319.984 1400 1320.876 1400 1321.984C1400 1323.088 1400.896 1323.984 1402 1323.984H1406C1407.104 1323.984 1408 1323.088 1408 1321.984Z " fill="#202728" fill-opacity="1" transform="matrix(1,0,0,1,-1360,-1208)"></path></svg>