<svg id="SvgjsSvg1101" xmlns="http://www.w3.org/2000/svg" version="1.1" xmlns:xlink="http://www.w3.org/1999/xlink" xmlns:svgjs="http://svgjs.com/svgjs" width="120" height="128" viewBox="0 0 120 128"><title>photo</title><desc>Created with Avocode.</desc><defs id="SvgjsDefs1102"></defs><path id="SvgjsPath1103" d="M968 1444H880C871.164 1444 864 1451.164 864 1460V1556C864 1564.836 871.164 1572 880 1572H968C976.836 1572 984 1564.836 984 1556V1460C984 1451.164 976.836 1444 968 1444ZM976 1556C976 1560.408 972.412 1564 968 1564H880C875.592 1564 872 1560.408 872 1556V1460C872 1455.588 875.592 1452 880 1452H968C972.412 1452 976 1455.588 976 1460ZM964 1460H884C881.788 1460 880 1461.788 880 1464V1536C880 1538.212 881.788 1540 884 1540H964C966.212 1540 968 1538.212 968 1536V1464C968 1461.788 966.212 1460 964 1460ZM964 1464V1519.476L951 1505.3560000000002C950.24 1504.4920000000002 949.148 1504.0000000000002 948 1504.0000000000002C946.852 1504.0000000000002 945.76 1504.4920000000002 945 1505.3560000000002L934.592 1517.1560000000002L903 1481.3560000000002C902.24 1480.4920000000002 901.148 1480.0000000000002 900 1480.0000000000002C898.852 1480.0000000000002 897.76 1480.4920000000002 897 1481.3560000000002L884 1496.3480000000002V1464.0000000000002ZM884 1502.396L900 1484L932.264 1520.5720000000001L934.5840000000001 1523.2040000000002L945.6320000000001 1536.0000000000002H884.0000000000001ZM950.964 1536L937.2560000000001 1520.18L948.0000000000001 1508L964.0000000000001 1525.516V1536ZM940 1496C946.628 1496 952 1490.628 952 1484C952 1477.372 946.628 1472 940 1472C933.372 1472 928 1477.372 928 1484C928 1490.628 933.372 1496 940 1496ZM940 1476C944.412 1476 948 1479.588 948 1484C948 1488.408 944.412 1492 940 1492C935.592 1492 932 1488.408 932 1484C932 1479.588 935.592 1476 940 1476Z " fill="#202728" fill-opacity="1" transform="matrix(1,0,0,1,-864,-1444)"></path></svg>