<svg id="SvgjsSvg1035" xmlns="http://www.w3.org/2000/svg" version="1.1" xmlns:xlink="http://www.w3.org/1999/xlink" xmlns:svgjs="http://svgjs.com/svgjs" width="128" height="128" viewBox="0 0 128 128"><title>search</title><desc>Created with Avocode.</desc><defs id="SvgjsDefs1036"></defs><path id="SvgjsPath1037" d="M940 728C913.492 728 892 749.492 892 776C892 784.104 894.028 791.732 897.58 798.428L864.2040000000001 831.796L864.2320000000001 831.8240000000001C861.6240000000001 834.388 860.0000000000001 837.94 860.0000000000001 841.884C860.0000000000001 849.6800000000001 866.3200000000002 856 874.1160000000001 856C878.0600000000001 856 881.6120000000001 854.376 884.176 851.768L884.168 851.76L917.532 818.404C924.236 821.9639999999999 931.8760000000001 824 940 824C966.508 824 988 802.508 988 776C988 749.492 966.508 728 940 728ZM879.18 846.768C877.8919999999999 848.1 876.108 848.94 874.116 848.94C870.22 848.94 867.06 845.7800000000001 867.06 841.884C867.06 839.892 867.9 838.1080000000001 869.232 836.82L869.196 836.788L901.46 804.524C904.2800000000001 808.328 907.64 811.688 911.436 814.516ZM940 816C917.912 816 900 798.088 900 776C900 753.912 917.912 736 940 736C962.092 736 980 753.912 980 776C980 798.088 962.092 816 940 816ZM940 748C924.536 748 912 760.536 912 776C912 777.104 912.896 778 914 778C915.104 778 916 777.104 916 776C916 762.748 926.748 752 940 752C941.104 752 942 751.104 942 750C942 748.896 941.104 748 940 748Z " fill="#202728" fill-opacity="1" transform="matrix(1,0,0,1,-860,-728)"></path></svg>