<svg id="SvgjsSvg1038" xmlns="http://www.w3.org/2000/svg" version="1.1" xmlns:xlink="http://www.w3.org/1999/xlink" xmlns:svgjs="http://svgjs.com/svgjs" width="128" height="128" viewBox="0 0 128 128"><title>settings</title><desc>Created with Avocode.</desc><defs id="SvgjsDefs1039"></defs><path id="SvgjsPath1040" d="M1221.568 778.716L1209.304 776.256C1208.688 774.4839999999999 1207.9640000000002 772.764 1207.16 771.1L1214.1000000000001 760.688C1216.22 757.516 1215.796 753.288 1213.1000000000001 750.592L1205.4080000000001 742.9C1203.8600000000001 741.352 1201.8120000000001 740.5559999999999 1199.748 740.5559999999999C1198.212 740.5559999999999 1196.664 740.996 1195.3120000000001 741.9L1184.9 748.84C1183.2320000000002 748.032 1181.5120000000002 747.312 1179.74 746.696L1177.284 734.432C1176.5400000000002 730.692 1173.256 728 1169.44 728H1158.56C1154.748 728 1151.46 730.692 1150.716 734.432L1148.26 746.696C1146.484 747.312 1144.764 748.0360000000001 1143.1 748.84L1132.6879999999999 741.9C1131.3319999999999 740.996 1129.7879999999998 740.5559999999999 1128.2559999999999 740.5559999999999C1126.1879999999999 740.5559999999999 1124.1399999999999 741.352 1122.5919999999999 742.9L1114.8999999999999 750.592C1112.204 753.288 1111.78 757.516 1113.8999999999999 760.688L1120.84 771.1C1120.032 772.768 1119.312 774.488 1118.696 776.26L1106.432 778.716C1102.692 779.46 1100 782.748 1100 786.5600000000001V797.44C1100 801.2520000000001 1102.692 804.5400000000001 1106.432 805.2840000000001L1118.696 807.7440000000001C1119.312 809.5160000000002 1120.0359999999998 811.2360000000001 1120.84 812.9000000000001L1113.8999999999999 823.3120000000001C1111.78 826.4840000000002 1112.204 830.7120000000001 1114.8999999999999 833.4080000000001L1122.5919999999999 841.1000000000001C1124.1399999999999 842.6480000000001 1126.1879999999999 843.4440000000002 1128.2559999999999 843.4440000000002C1129.7879999999998 843.4440000000002 1131.3359999999998 843.0040000000001 1132.6879999999999 842.1000000000001L1143.1 835.1600000000001C1144.7679999999998 835.9680000000001 1146.4879999999998 836.6880000000001 1148.26 837.3040000000001L1150.716 849.5680000000001C1151.4599999999998 853.3080000000001 1154.7479999999998 856.0000000000001 1158.56 856.0000000000001H1169.44C1173.256 856.0000000000001 1176.54 853.3080000000001 1177.284 849.5680000000001L1179.7440000000001 837.3040000000001C1181.516 836.6880000000001 1183.236 835.964 1184.9 835.1600000000001L1195.3120000000001 842.1000000000001C1196.6680000000001 843.0040000000001 1198.2120000000002 843.4440000000002 1199.748 843.4440000000002C1201.8120000000001 843.4440000000002 1203.8600000000001 842.6480000000001 1205.4080000000001 841.1000000000001L1213.1000000000001 833.4080000000001C1215.796 830.7120000000001 1216.22 826.4840000000002 1214.1000000000001 823.3120000000001L1207.16 812.9000000000001C1207.968 811.2320000000001 1208.688 809.5120000000001 1209.304 807.7400000000001L1221.568 805.2840000000001C1225.308 804.5400000000001 1228 801.2520000000001 1228 797.44V786.5600000000001C1228 782.748 1225.308 779.46 1221.568 778.716ZM1207.736 799.896C1204.9560000000001 800.448 1202.68 802.4319999999999 1201.7520000000002 805.108C1201.236 806.584 1200.6360000000002 808.02 1199.9600000000003 809.4119999999999C1198.7240000000002 811.9599999999999 1198.9280000000003 814.9759999999999 1200.5040000000004 817.3359999999999L1207.4440000000004 827.752L1199.7480000000005 835.444L1189.3360000000005 828.5039999999999C1188.0000000000005 827.6119999999999 1186.4520000000005 827.1599999999999 1184.9000000000005 827.1599999999999C1183.7120000000004 827.1599999999999 1182.5200000000004 827.4239999999999 1181.4160000000006 827.9559999999999C1180.0280000000007 828.6279999999999 1178.5920000000006 829.2359999999999 1177.1120000000005 829.752C1174.4360000000006 830.68 1172.4520000000005 832.9559999999999 1171.9000000000005 835.736L1169.4400000000005 848H1158.5600000000004L1156.1040000000005 835.736C1155.5520000000006 832.956 1153.5680000000004 830.68 1150.8920000000005 829.752C1149.4160000000004 829.236 1147.9800000000005 828.636 1146.5920000000006 827.9599999999999C1145.4840000000006 827.424 1144.2920000000006 827.16 1143.1000000000006 827.16C1141.5480000000007 827.16 1140.0000000000007 827.612 1138.6640000000007 828.504L1128.2480000000007 835.4440000000001L1120.5560000000007 827.7520000000001L1127.4960000000008 817.336C1129.0680000000007 814.976 1129.2720000000008 811.964 1128.0440000000008 809.416C1127.3720000000008 808.028 1126.7640000000008 806.5920000000001 1126.2480000000007 805.1120000000001C1125.3200000000006 802.436 1123.0440000000008 800.4520000000001 1120.2640000000008 799.9000000000001L1108.0040000000008 797.44L1108.000000000001 786.5600000000001L1120.2640000000008 784.104C1123.0440000000008 783.552 1125.3200000000008 781.5680000000001 1126.2480000000007 778.892C1126.7640000000008 777.416 1127.3640000000007 775.98 1128.0400000000006 774.5880000000001C1129.2760000000007 772.0400000000001 1129.0720000000006 769.0240000000001 1127.4960000000005 766.6640000000001L1120.5560000000005 756.2520000000001L1128.2480000000005 748.556L1138.6640000000004 755.4960000000001C1140.0000000000005 756.3880000000001 1141.5480000000005 756.8400000000001 1143.1000000000004 756.8400000000001C1144.2880000000005 756.8400000000001 1145.4800000000005 756.5760000000001 1146.5880000000004 756.0440000000001C1147.9720000000004 755.3720000000001 1149.4080000000004 754.7640000000001 1150.8880000000004 754.248C1153.5640000000003 753.32 1155.5480000000005 751.0440000000001 1156.1000000000004 748.264L1158.5600000000004 736.004L1169.4400000000005 736L1171.8960000000004 748.264C1172.4480000000003 751.044 1174.4320000000005 753.32 1177.1080000000004 754.248C1178.5880000000004 754.764 1180.0200000000004 755.364 1181.4120000000005 756.0400000000001C1182.5160000000005 756.576 1183.7080000000005 756.84 1184.9000000000005 756.84C1186.4520000000005 756.84 1188.0000000000005 756.388 1189.3360000000005 755.496L1199.7480000000005 748.5559999999999L1207.4440000000004 756.252L1200.5040000000004 766.664C1198.9320000000005 769.024 1198.7280000000003 772.036 1199.9560000000004 774.584C1200.6280000000004 775.972 1201.2360000000003 777.404 1201.7520000000004 778.8879999999999C1202.6800000000005 781.564 1204.9560000000004 783.5479999999999 1207.7360000000003 784.0999999999999L1219.9960000000003 786.56L1220.0000000000002 797.4399999999999ZM1164 764C1148.54 764 1136 776.54 1136 792C1136 807.46 1148.54 820 1164 820C1179.46 820 1192 807.46 1192 792C1192 776.54 1179.46 764 1164 764ZM1164 816.5C1150.472 816.5 1139.5 805.528 1139.5 792C1139.5 778.472 1150.472 767.5 1164 767.5C1177.528 767.5 1188.5 778.472 1188.5 792C1188.5 805.528 1177.528 816.5 1164 816.5ZM1164 776C1155.16 776 1148 783.16 1148 792C1148 800.84 1155.16 808 1164 808C1172.84 808 1180 800.84 1180 792C1180 783.16 1172.84 776 1164 776ZM1164 804C1157.376 804 1152 798.624 1152 792C1152 785.376 1157.376 780 1164 780C1170.624 780 1176 785.376 1176 792C1176 798.624 1170.624 804 1164 804Z " fill="#202728" fill-opacity="1" transform="matrix(1,0,0,1,-1100,-728)"></path></svg>