<svg id="SvgjsSvg1155" xmlns="http://www.w3.org/2000/svg" version="1.1" xmlns:xlink="http://www.w3.org/1999/xlink" xmlns:svgjs="http://svgjs.com/svgjs" width="128" height="128" viewBox="0 0 128 128"><title>shop</title><desc>Created with Avocode.</desc><defs id="SvgjsDefs1156"></defs><path id="SvgjsPath1157" d="M265.5996 2240.8L253.6056 2224.808C253.1348 2224.18 252.57600000000002 2223.636 251.99800000000002 2223.116V2204C251.99800000000002 2199.584 248.41600000000003 2196 243.99800000000002 2196H163.99800000000002C159.58 2196 155.99800000000002 2199.584 155.99800000000002 2204V2223.12C155.424 2223.636 154.8692 2224.176 154.40040000000002 2224.7999999999997L142.40640000000002 2240.796C140.85360000000003 2242.8599999999997 140.00000000000003 2245.4199999999996 140.00000000000003 2248V2252C140.00000000000003 2258.616 145.38280000000003 2264 152.00000000000003 2264H151.99800000000002V2316C151.99800000000002 2320.42 155.58 2324 159.99800000000002 2324H247.99800000000002C252.41600000000003 2324 255.99800000000002 2320.42 255.99800000000002 2316V2264H256C262.6172 2264 268 2258.616 268 2252V2248C268 2245.42 267.1464 2242.86 265.5996 2240.8ZM243.998 2204V2220H163.998V2204ZM180.7736 2256H164.01559999999998L180.01559999999998 2228H188.7736ZM192.9356 2228H201.998V2256H184.9356ZM205.998 2228H215.0604L223.0604 2256H205.998ZM219.2228 2228H227.9804L243.9804 2256H227.2228ZM148 2252V2248C148 2247.132 148.2812 2246.292 148.8008 2245.6L160.8008 2229.6C161.5548 2228.592 162.74040000000002 2228 164 2228H175.4084L159.41 2256H152C149.7912 2256 148 2254.212 148 2252ZM219.998 2316H189.998V2276H219.998ZM247.998 2316H223.998V2276C223.998 2273.788 222.2072 2272 219.998 2272H189.998C187.7892 2272 185.998 2273.788 185.998 2276V2316H159.998V2264H247.998ZM260 2252C260 2254.212 258.2088 2256 256 2256H248.588L232.588 2228H244C245.2596 2228 246.4452 2228.592 247.1992 2229.6L259.1992 2245.6C259.71880000000004 2246.292 260 2247.132 260 2248Z " fill="#202728" fill-opacity="1" transform="matrix(1,0,0,1,-140,-2196)"></path></svg>