<svg id="SvgjsSvg1020" xmlns="http://www.w3.org/2000/svg" version="1.1" xmlns:xlink="http://www.w3.org/1999/xlink" xmlns:svgjs="http://svgjs.com/svgjs" width="129" height="128" viewBox="0 0 129 128"><title>sound</title><desc>Created with Avocode.</desc><defs id="SvgjsDefs1021"></defs><path id="SvgjsPath1022" d="M1207.976 540.016H1207.9840000000002C1207.9920000000002 541.112 1208.88 542 1209.9840000000002 542C1211.0880000000002 542 1211.9840000000002 541.104 1211.9840000000002 540C1211.9840000000002 539.988 1211.976 539.98 1211.976 539.968C1211.9520000000002 517.932 1194.1000000000001 500.08 1172.0520000000001 500.02399999999994C1172.016 500.0199999999999 1171.9840000000002 499.99999999999994 1171.9440000000002 499.99999999999994C1170.8400000000001 499.99999999999994 1169.9440000000002 500.89599999999996 1169.9440000000002 501.99999999999994C1169.9440000000002 503.09999999999997 1170.8360000000002 503.9959999999999 1171.9400000000003 503.99999999999994V504.01599999999996C1191.8120000000004 504.01599999999996 1207.9760000000003 520.164 1207.9760000000003 540.016ZM1136.396 487.516C1134.1 485.22 1131.028 484 1127.8999999999999 484C1126.3519999999999 484 1124.792 484.296 1123.3079999999998 484.916C1118.8199999999997 486.768 1115.8919999999998 491.144 1115.8919999999998 496L1115.888 551.032L1103.396 563.5160000000001C1098.7 568.2 1098.7 575.8000000000001 1103.396 580.484L1131.42 608.484C1133.768 610.8280000000001 1136.8400000000001 612 1139.9160000000002 612C1142.988 612 1146.0600000000002 610.828 1148.4080000000001 608.484L1160.9040000000002 596H1215.9840000000002C1220.844 596 1225.2240000000002 593.08 1227.0800000000002 588.592C1228.9440000000002 584.108 1227.9120000000003 578.944 1224.476 575.516ZM1155.24 590.344L1142.744 602.8280000000001C1141.724 603.8480000000001 1140.532 604.0000000000001 1139.916 604.0000000000001C1139.296 604.0000000000001 1138.104 603.8480000000001 1137.0839999999998 602.8280000000001L1109.0559999999998 574.8280000000001C1108.0359999999998 573.8080000000001 1107.8839999999998 572.6160000000001 1107.8839999999998 572.0000000000001C1107.8839999999998 571.3840000000001 1108.0359999999998 570.1920000000001 1109.0559999999998 569.1760000000002L1121.5479999999998 556.6880000000001C1121.5839999999998 556.6520000000002 1121.5959999999998 556.6000000000001 1121.6319999999998 556.5680000000001L1155.3639999999998 590.2640000000001C1155.3279999999997 590.2960000000002 1155.2759999999998 590.3080000000001 1155.2399999999998 590.3440000000002ZM1160.904 588C1160.28 588 1159.708 588.22 1159.112 588.356L1123.54 552.816C1123.676 552.224 1123.896 551.648 1123.896 551.032L1123.8999999999999 502.84800000000007L1209.136 588.0000000000001ZM1219.684 585.532C1219.06 587.032 1217.612 588 1215.984 588H1214.7959999999998L1123.8999999999999 497.192V496C1123.8999999999999 494.376 1124.868 492.924 1126.368 492.304C1126.864 492.09999999999997 1127.376 492 1127.8999999999999 492C1128.9679999999998 492 1129.9759999999999 492.416 1130.7279999999998 493.168L1218.8159999999998 581.172C1219.9639999999997 582.32 1220.3039999999999 584.032 1219.6839999999997 585.532ZM1171.94 492V492.016C1198.4360000000001 492.016 1219.988 513.548 1219.988 540.0160000000001H1219.996C1220.0040000000001 542.22 1221.7920000000001 544.0000000000001 1223.996 544.0000000000001C1226.208 544.0000000000001 1228 542.2120000000001 1228 540.0000000000001C1228 539.9880000000002 1227.992 539.9800000000001 1227.992 539.9680000000001C1227.968 509.09600000000006 1202.944 484.0800000000001 1172.052 484.02400000000006C1172.0159999999998 484.02000000000004 1171.984 484.00000000000006 1171.944 484.00000000000006C1169.732 484.00000000000006 1167.94 485.78800000000007 1167.94 488.00000000000006C1167.94 490.2080000000001 1169.732 491.99600000000004 1171.94 492.00000000000006Z " fill="#202728" fill-opacity="1" transform="matrix(1,0,0,1,-1099,-484)"></path></svg>