<svg id="SvgjsSvg1083" xmlns="http://www.w3.org/2000/svg" version="1.1" xmlns:xlink="http://www.w3.org/1999/xlink" xmlns:svgjs="http://svgjs.com/svgjs" width="128" height="112" viewBox="0 0 128 112"><title>stack</title><desc>Created with Avocode.</desc><defs id="SvgjsDefs1084"></defs><path id="SvgjsPath1085" d="M987.696 1281.82L971.688 1221.7959999999998C970.72 1218.388 967.56 1215.9999999999998 964 1215.9999999999998H884C880.44 1215.9999999999998 877.28 1218.3879999999997 876.312 1221.7959999999998L860.304 1281.8199999999997C860.1 1282.5519999999997 860 1283.2839999999997 860 1283.9999999999998V1311.9999999999998C860 1320.8359999999998 867.164 1327.9999999999998 876 1327.9999999999998H972C980.836 1327.9999999999998 988 1320.8359999999998 988 1311.9999999999998V1283.9999999999998C988 1283.2839999999999 987.9 1282.5519999999997 987.696 1281.8199999999997ZM980 1312C980 1316.412 976.412 1320 972 1320H876C871.592 1320 868 1316.412 868 1312V1284L884.004 1223.996H963.996L980 1284ZM954.968 1232H893.0319999999999C891.2199999999999 1232 889.632 1233.22 889.1639999999999 1234.972L875.3839999999999 1282.972C875.0679999999999 1284.172 875.3199999999999 1285.452 876.0799999999999 1286.436C876.8359999999999 1287.424 878.0079999999999 1288 879.252 1288H897.524L903.312 1299.58C904.668 1302.288 907.436 1304 910.468 1304H937.5319999999999C940.564 1304 943.3319999999999 1302.288 944.6879999999999 1299.58L950.4759999999999 1288H968.7519999999998C969.9919999999998 1288 971.1639999999999 1287.424 971.9239999999999 1286.436C972.6799999999998 1285.452 972.9319999999999 1284.172 972.6159999999999 1282.972L958.8359999999999 1234.972C958.3679999999999 1233.22 956.7799999999999 1232 954.9679999999998 1232ZM950.476 1280C947.428 1280 944.688 1281.692 943.32 1284.424L937.532 1296H910.4680000000001L904.6800000000001 1284.424C903.312 1281.692 900.5720000000001 1280 897.5240000000001 1280H881.3360000000001L893.0320000000002 1236H954.9680000000002L966.6640000000002 1280Z " fill="#202728" fill-opacity="1" transform="matrix(1,0,0,1,-860,-1216)"></path></svg>