<svg id="SvgjsSvg1014" xmlns="http://www.w3.org/2000/svg" version="1.1" xmlns:xlink="http://www.w3.org/1999/xlink" xmlns:svgjs="http://svgjs.com/svgjs" width="130" height="124" viewBox="0 0 130 124"><title>star</title><desc>Created with Avocode.</desc><defs id="SvgjsDefs1015"></defs><path id="SvgjsPath1016" d="M747.524 534.228C746.416 531.0319999999999 743.572 528.692 740.152 528.184L706.8480000000001 523.232L692.368 493.176C690.8480000000001 490.02 687.5840000000001 488 684 488C680.416 488 677.156 490.02 675.632 493.176L661.156 523.232L627.848 528.184C624.424 528.692 621.5799999999999 531.0319999999999 620.4799999999999 534.228C619.3759999999999 537.428 620.2079999999999 540.9559999999999 622.6279999999999 543.3679999999999L647.036 567.7399999999999L641.376 601.5439999999999C640.8 604.9439999999998 642.276 608.3639999999999 645.168 610.3559999999999C646.756 611.4439999999998 648.624 611.9999999999999 650.492 611.9999999999999C652.0279999999999 611.9999999999999 653.564 611.6239999999999 654.9639999999999 610.8799999999999L684 595.2479999999999L713.04 610.8799999999999C714.4359999999999 611.6239999999999 715.976 611.9999999999999 717.5079999999999 611.9999999999999C719.376 611.9999999999999 721.2399999999999 611.4439999999998 722.8359999999999 610.3559999999999C725.7239999999999 608.3639999999999 727.1999999999999 604.9439999999998 726.6279999999999 601.5439999999999L720.9639999999999 567.7399999999999L745.376 543.3679999999999C747.792 540.9559999999999 748.62 537.4279999999999 747.524 534.228ZM714.352 561.452C712.304 563.496 711.376 566.368 711.848 569.188L717.5079999999999 602.996L688.472 587.3679999999999C687.076 586.616 685.54 586.2439999999999 684 586.2439999999999C682.464 586.2439999999999 680.924 586.6159999999999 679.532 587.3679999999999L650.4920000000001 602.996L656.1560000000001 569.188C656.628 566.3679999999999 655.7 563.496 653.652 561.452L629.244 537.088L662.548 532.1239999999999C665.592 531.6719999999999 668.212 529.7679999999999 669.524 527.0559999999999L684 497.0039999999999L698.48 527.0559999999999C699.788 529.7679999999999 702.404 531.6719999999999 705.448 532.1239999999999L738.756 537.088Z " fill="#202728" fill-opacity="1" transform="matrix(1,0,0,1,-619,-488)"></path></svg>