<svg id="SvgjsSvg1137" xmlns="http://www.w3.org/2000/svg" version="1.1" xmlns:xlink="http://www.w3.org/1999/xlink" xmlns:svgjs="http://svgjs.com/svgjs" width="128" height="112" viewBox="0 0 128 112"><title>study</title><desc>Created with Avocode.</desc><defs id="SvgjsDefs1138"></defs><path id="SvgjsPath1139" d="M268 1972C268 1966.376 264.174 1961.568 258.6992 1960.304L206.64640000000003 1948.2920000000001C205.77360000000002 1948.0960000000002 204.88280000000003 1948.0000000000002 204.00000000000003 1948.0000000000002C203.11720000000003 1948.0000000000002 202.22640000000004 1948.0960000000002 201.30080000000004 1948.3040000000003L149.30480000000003 1960.3040000000003C143.82600000000002 1961.5680000000002 140.00000000000003 1966.3760000000002 140.00000000000003 1972.0000000000002C140.00000000000003 1977.6240000000003 143.82600000000002 1982.4320000000002 149.30080000000004 1983.6960000000001L160.00000000000003 1986.1640000000002V2020.0000000000002C160.00000000000003 2030.6160000000002 172.15040000000002 2040.0000000000002 204.00000000000003 2040.0000000000002C235.84960000000004 2040.0000000000002 248.00000000000003 2030.6160000000002 248.00000000000003 2020.0000000000002V1986.1640000000002L258.6952 1983.6960000000001C264.174 1982.4320000000002 268 1977.6240000000003 268 1972.0000000000002ZM240 2020C240 2024.424 228 2032 204 2032C180 2032 168 2024.424 168 2020V1988.012L201.3536 1995.7079999999999C202.2264 1995.9039999999998 203.1172 1995.9999999999998 204 1995.9999999999998C204.8828 1995.9999999999998 205.7736 1995.9039999999998 206.6992 1995.6959999999997L240 1988.0119999999997ZM204.9004 1987.9C204.6036 1987.9640000000002 204.3028 1988 204 1988C203.6972 1988 203.3964 1987.964 203.0996 1987.9L151.0996 1975.9C149.2852 1975.48 148 1973.864 148 1972C148 1970.136 149.2852 1968.52 151.0996 1968.1L203.0996 1956.1C203.3964 1956.0359999999998 203.6972 1956 204 1956C204.3028 1956 204.6036 1956.036 204.9004 1956.1L256.9004 1968.1C258.71479999999997 1968.52 260 1970.136 260 1972C260 1973.864 258.7148 1975.48 256.9004 1975.9ZM256 1992V2028C256 2030.212 257.7912 2032 260 2032C262.2088 2032 264 2030.212 264 2028V1992C264 1989.788 262.2088 1988 260 1988C257.7912 1988 256 1989.788 256 1992ZM260 2036C255.582 2036 252 2047.584 252 2052C252 2056.42 255.582 2060 260 2060C264.418 2060 268 2056.42 268 2052C268 2047.584 264.418 2036 260 2036Z " fill="#151e16" fill-opacity="1" transform="matrix(1,0,0,1,-140,-1948)"></path></svg>