<svg id="SvgjsSvg1146" xmlns="http://www.w3.org/2000/svg" version="1.1" xmlns:xlink="http://www.w3.org/1999/xlink" xmlns:svgjs="http://svgjs.com/svgjs" width="128" height="112" viewBox="0 0 128 112"><title>t-shirt</title><desc>Created with Avocode.</desc><defs id="SvgjsDefs1147"></defs><path id="SvgjsPath1148" d="M985 1965.756L965 1949.756C963.58 1948.616 961.816 1948 960 1948H888C886.184 1948 884.424 1948.616 883.004 1949.756L863.004 1965.756C860.384 1967.8480000000002 859.352 1971.352 860.412 1974.5320000000002L868.412 1998.5320000000002C869.2 2000.8960000000002 871.044 2002.7600000000002 873.404 2003.5680000000002C874.252 2003.8560000000002 875.128 2004.0000000000002 876 2004.0000000000002C877.392 2004.0000000000002 878.772 2003.6360000000002 880 2002.9280000000003V2052.0000000000005C880 2056.4200000000005 883.58 2060.0000000000005 888 2060.0000000000005H960C964.42 2060.0000000000005 968 2056.4200000000005 968 2052.0000000000005V2002.9280000000003C969.228 2003.6360000000004 970.608 2004.0000000000002 972 2004.0000000000002C972.872 2004.0000000000002 973.748 2003.8560000000002 974.596 2003.5680000000002C976.956 2002.7600000000002 978.8 2000.8960000000002 979.592 1998.5320000000002L987.588 1974.5320000000002C988.6479999999999 1971.352 987.616 1967.8480000000002 985 1965.756ZM939.016 1956C936.808 1960.644 930.944 1964 924 1964C917.056 1964 911.192 1960.644 908.984 1956ZM972 1996L960 1988V2052H888V1988L876 1996L868 1972L888 1956H904.708C906.9359999999999 1962.888 914.692 1968 924 1968C933.308 1968 941.064 1962.888 943.292 1956H960L980 1972Z " fill="#202728" fill-opacity="1" transform="matrix(1,0,0,1,-860,-1948)"></path></svg>