<svg id="SvgjsSvg1044" xmlns="http://www.w3.org/2000/svg" version="1.1" xmlns:xlink="http://www.w3.org/1999/xlink" xmlns:svgjs="http://svgjs.com/svgjs" width="129" height="96" viewBox="0 0 129 96"><title>tag</title><desc>Created with Avocode.</desc><defs id="SvgjsDefs1045"></defs><path id="SvgjsPath1046" d="M265.5664 1023.52L245.5664 991.52C242.6444 986.8439999999999 237.51559999999998 984 232 984H156C147.164 984 140 991.164 140 1000V1064C140 1072.836 147.164 1080 156 1080H232C237.5156 1080 242.6444 1077.156 245.5664 1072.48L265.5664 1040.48C268.81239999999997 1035.292 268.81239999999997 1028.708 265.5664 1023.52ZM258.7852 1036.24L238.78119999999998 1068.244C237.3124 1070.596 234.7772 1072 231.99999999999997 1072H155.99999999999997C151.58999999999997 1072 147.99999999999997 1068.412 147.99999999999997 1064V1000C147.99999999999997 995.592 151.58999999999997 992 155.99999999999997 992H231.99999999999997C234.77719999999997 992 237.31239999999997 993.408 238.78119999999998 995.756L258.7812 1027.76C260.3944 1030.336 260.3944 1033.664 258.78520000000003 1036.24ZM232 1020C225.3712 1020 220 1025.372 220 1032C220 1038.628 225.3712 1044 232 1044C238.6288 1044 244 1038.628 244 1032C244 1025.372 238.6288 1020 232 1020ZM232 1040C227.582 1040 224 1036.416 224 1032C224 1027.584 227.582 1024 232 1024C236.418 1024 240 1027.584 240 1032C240 1036.416 236.418 1040 232 1040Z " fill="#202728" fill-opacity="1" transform="matrix(1,0,0,1,-140,-984)"></path></svg>