<svg id="SvgjsSvg1065" xmlns="http://www.w3.org/2000/svg" version="1.1" xmlns:xlink="http://www.w3.org/1999/xlink" xmlns:svgjs="http://svgjs.com/svgjs" width="112" height="128" viewBox="0 0 112 128"><title>trash</title><desc>Created with Avocode.</desc><defs id="SvgjsDefs1066"></defs><path id="SvgjsPath1067" d="M259.9256 755.268C259.5392 748.988 254.37879999999998 744.004 247.99999999999997 744.004H235.99999999999997V740C235.99999999999997 733.372 230.62879999999998 728 223.99999999999997 728H183.99999999999997C177.37119999999996 728 171.99999999999997 733.372 171.99999999999997 740V744.004H159.99999999999997C153.62119999999996 744.004 148.46079999999998 748.988 148.07439999999997 755.268H147.99999999999997V764C147.99999999999997 768.42 151.58199999999997 772 155.99999999999997 772V840C155.99999999999997 848.836 163.16399999999996 856 171.99999999999997 856H235.99999999999997C244.83599999999998 856 251.99999999999997 848.836 251.99999999999997 840V772C256.41799999999995 772 260 768.42 260 764V755.268ZM180 740.004C180 737.792 181.7892 736.004 184 736.004H224C226.2108 736.004 228 737.792 228 740.004V744.004H180ZM244 840C244 844.412 240.41 848 236 848H172C167.59 848 164 844.412 164 840V772H244ZM252 764H156V756.004C156 753.792 157.7892 752.004 160 752.004H248C250.2108 752.004 252 753.792 252 756.004ZM176 840.016H184C186.2108 840.016 188 838.228 188 836.016V784.016C188 781.804 186.2108 780.016 184 780.016H176C173.7892 780.016 172 781.804 172 784.016V836.016C172 838.228 173.7892 840.016 176 840.016ZM176 784.016H184V836.016H176ZM200 840.016H208C210.2108 840.016 212 838.228 212 836.016V784.016C212 781.804 210.2108 780.016 208 780.016H200C197.7892 780.016 196 781.804 196 784.016V836.016C196 838.228 197.7892 840.016 200 840.016ZM200 784.016H208V836.016H200ZM224 840.016H232C234.2108 840.016 236 838.228 236 836.016V784.016C236 781.804 234.2108 780.016 232 780.016H224C221.7892 780.016 220 781.804 220 784.016V836.016C220 838.228 221.7892 840.016 224 840.016ZM224 784.016H232V836.016H224Z " fill="#202728" fill-opacity="1" transform="matrix(1,0,0,1,-148,-728)"></path></svg>