<svg id="SvgjsSvg1167" xmlns="http://www.w3.org/2000/svg" version="1.1" xmlns:xlink="http://www.w3.org/1999/xlink" xmlns:svgjs="http://svgjs.com/svgjs" width="128" height="104" viewBox="0 0 128 104"><title>truck</title><desc>Created with Avocode.</desc><defs id="SvgjsDefs1168"></defs><path id="SvgjsPath1169" d="M1191.328 2241.78C1190.588 2240.668 1189.34 2240 1188 2240H1184.004C1181.792 2240 1180.004 2241.788 1180.004 2244V2268C1180.004 2270.212 1181.792 2272 1184.004 2272H1200.004C1202.212 2272 1204.004 2270.212 1204.004 2268V2262C1204.004 2261.212 1203.7679999999998 2260.436 1203.3319999999999 2259.78ZM1200.004 2268H1184.004V2244H1188L1200.004 2262ZM1217.988 2257.344L1201.988 2233.344C1199.752 2229.996 1196.016 2228 1192.0040000000001 2228H1176.0000000000002V2220C1176.0000000000002 2213.384 1170.6200000000001 2208 1164.0000000000002 2208H1104.0000000000002C1097.3800000000003 2208 1092.0000000000002 2213.384 1092.0000000000002 2220V2264C1092.0000000000002 2270.616 1097.3800000000003 2276 1104.0000000000002 2276V2288C1104.0000000000002 2294.616 1109.3840000000002 2300 1116.0000000000002 2300H1120.5680000000002C1122.3520000000003 2306.884 1128.5640000000003 2312 1136.0040000000001 2312C1143.4320000000002 2312 1149.6440000000002 2306.884 1151.4320000000002 2300H1172.5640000000003C1174.3520000000003 2306.884 1180.5640000000003 2312 1188.0000000000002 2312C1195.4320000000002 2312 1201.6440000000002 2306.884 1203.4320000000002 2300H1208.0000000000002C1214.6200000000001 2300 1220.0000000000002 2294.616 1220.0000000000002 2288V2264C1220.0000000000002 2261.624 1219.3080000000002 2259.32 1217.9880000000003 2257.344ZM1104 2268C1101.792 2268 1100 2266.212 1100 2264V2220C1100 2217.788 1101.792 2216 1104 2216H1164C1166.212 2216 1168.004 2217.788 1168.004 2220V2264C1168.004 2266.212 1166.212 2268 1164 2268ZM1136.004 2304C1131.58 2304 1128.004 2300.42 1128.004 2296C1128.004 2291.584 1131.58 2288 1136.004 2288C1140.416 2288 1144 2291.584 1144 2296C1144 2300.42 1140.416 2304 1136.004 2304ZM1188 2304C1183.58 2304 1180.004 2300.42 1180.004 2296C1180.004 2291.584 1183.58 2288 1188 2288C1192.416 2288 1196.004 2291.584 1196.004 2296C1196.004 2300.42 1192.416 2304 1188 2304ZM1212.004 2288C1212.004 2290.212 1210.212 2292 1208 2292H1203.432C1201.644 2285.116 1195.432 2280 1188 2280C1180.564 2280 1174.352 2285.116 1172.564 2292H1151.432C1149.644 2285.116 1143.432 2280 1136.004 2280C1128.5639999999999 2280 1122.3519999999999 2285.116 1120.568 2292H1116C1113.792 2292 1112 2290.212 1112 2288V2276H1164C1170.62 2276 1176 2270.616 1176 2264V2236H1192.004C1193.34 2236 1194.588 2236.668 1195.3319999999999 2237.78L1211.328 2261.78C1211.768 2262.436 1212.004 2263.212 1212.004 2264Z " fill="#151e16" fill-opacity="1" transform="matrix(1,0,0,1,-1092,-2208)"></path></svg>