<svg id="SvgjsSvg1017" xmlns="http://www.w3.org/2000/svg" version="1.1" xmlns:xlink="http://www.w3.org/1999/xlink" xmlns:svgjs="http://svgjs.com/svgjs" width="129" height="100" viewBox="0 0 129 100"><title>tv</title><desc>Created with Avocode.</desc><defs id="SvgjsDefs1018"></defs><path id="SvgjsPath1019" d="M948.62 518.496C937.78 516.268 926.78 515.14 915.928 515.14C905.08 515.14 894.08 516.268 883.236 518.496C881.832 518.784 880.688 519.8 880.24 521.164C874.464 538.688 874.464 556.452 880.24 573.976C880.688 575.34 881.832 576.356 883.236 576.644C894.08 578.872 905.08 580 915.928 580C926.78 580 937.78 578.872 948.62 576.644C950.024 576.356 951.172 575.34 951.62 573.976C957.396 556.452 957.396 538.688 951.62 521.164C951.172 519.8 950.024 518.784 948.62 518.496ZM947.816 572.728C926.5600000000001 577.092 905.3000000000001 577.092 884.044 572.728C878.516 555.952 878.516 539.188 884.044 522.4159999999999C905.3 518.0519999999999 926.56 518.0519999999999 947.816 522.4159999999999C953.344 539.188 953.344 555.952 947.816 572.728ZM983.388 509.28C982.6120000000001 506.024 979.888 503.592 976.5640000000001 503.19199999999995C959.104 501.07599999999996 941.4000000000001 499.99999999999994 923.936 499.99999999999994C906.476 499.99999999999994 888.772 501.07599999999996 871.312 503.19199999999995C867.988 503.5919999999999 865.264 506.02399999999994 864.488 509.28C858.364 534.972 858.364 561.028 864.488 586.72C865.264 589.976 867.988 592.408 871.312 592.808C879.724 593.828 888.192 594.58 896.66 595.108C896.204 595.4 895.908 595.6959999999999 895.908 596C895.908 598.212 908.456 600 923.936 600C939.416 600 951.964 598.212 951.964 596C951.964 595.696 951.672 595.4 951.2120000000001 595.108C959.6840000000001 594.5799999999999 968.1520000000002 593.828 976.5640000000001 592.808C979.888 592.408 982.6120000000001 589.976 983.388 586.72C989.508 561.028 989.508 534.972 983.388 509.28000000000003ZM975.596 584.868C941.156 589.0440000000001 906.716 589.0440000000001 872.2760000000001 584.868C866.4200000000001 560.288 866.4200000000001 535.7120000000001 872.2760000000001 511.13200000000006C906.7160000000001 506.9560000000001 941.1560000000001 506.9560000000001 975.596 511.13200000000006C981.456 535.7120000000001 981.456 560.288 975.596 584.868ZM965.98 532C969.296 532 971.984 529.312 971.984 526C971.984 522.688 969.296 520 965.98 520C962.664 520 959.972 522.688 959.972 526C959.972 529.312 962.664 532 965.98 532ZM965.98 524C967.08 524 967.98 524.9 967.98 526C967.98 527.1 967.08 528 965.98 528C964.876 528 963.976 527.1 963.976 526C963.976 524.9 964.876 524 965.98 524ZM969.984 572H957.972C956.864 572 955.968 572.896 955.968 574C955.968 575.104 956.8639999999999 576 957.972 576H969.9839999999999C971.088 576 971.9839999999999 575.104 971.9839999999999 574C971.9839999999999 572.896 971.088 572 969.9839999999999 572ZM973.988 560H961.9760000000001C960.8680000000002 560 959.9720000000001 560.896 959.9720000000001 562C959.9720000000001 563.104 960.868 564 961.9760000000001 564H973.988C975.0920000000001 564 975.988 563.104 975.988 562C975.988 560.896 975.0920000000001 560 973.988 560ZM973.988 548H961.9760000000001C960.8680000000002 548 959.9720000000001 548.896 959.9720000000001 550C959.9720000000001 551.104 960.868 552 961.9760000000001 552H973.988C975.0920000000001 552 975.988 551.104 975.988 550C975.988 548.896 975.0920000000001 548 973.988 548ZM913.928 531.22L895.564 532.6560000000001C894.472 532.7800000000001 893.428 533.772 893.2439999999999 534.86L892.0199999999999 546.004C891.9639999999998 547.1 892.8159999999999 548 893.9159999999998 548C895.0119999999998 548 895.9439999999998 547.1 895.9879999999998 546L896.6559999999998 538.424C896.8039999999999 537.332 897.8239999999998 536.352 898.9159999999998 536.24L913.9279999999999 535.212C915.0319999999999 535.172 915.9279999999999 534.244 915.9279999999999 533.14C915.9279999999999 532.04 915.0319999999999 531.1759999999999 913.9279999999999 531.22Z " fill="#202728" fill-opacity="1" transform="matrix(1,0,0,1,-859,-500)"></path></svg>