<svg id="SvgjsSvg1068" xmlns="http://www.w3.org/2000/svg" version="1.1" xmlns:xlink="http://www.w3.org/1999/xlink" xmlns:svgjs="http://svgjs.com/svgjs" width="130" height="128" viewBox="0 0 130 128"><title>user</title><desc>Created with Avocode.</desc><defs id="SvgjsDefs1069"></defs><path id="SvgjsPath1070" d="M504.436 841.344C503.63599999999997 840.812 489.048 831.244 467.34799999999996 826.552C475.30799999999994 816.46 480.41999999999996 802.9 482.58799999999997 793.8720000000001C485.59999999999997 781.3600000000001 484.43199999999996 756.8800000000001 472.41999999999996 741.624C465.39599999999996 732.712 455.568 728 443.99999999999994 728C432.43199999999996 728 422.6039999999999 732.712 415.58399999999995 741.624C403.5679999999999 756.88 402.3999999999999 781.36 405.4119999999999 793.8720000000001C407.58399999999995 802.9000000000001 412.6919999999999 816.46 420.65199999999993 826.552C398.9531999999999 831.244 384.36319999999995 840.812 383.5623999999999 841.344C380.6287999999999 843.3000000000001 379.3203999999999 846.9440000000001 380.3435999999999 850.316C381.36319999999995 853.692 384.4763999999999 856 387.99999999999994 856H499.99999999999994C503.52399999999994 856 506.63599999999997 853.692 507.65599999999995 850.316C508.67999999999995 846.9440000000001 507.37199999999996 843.3000000000001 504.4359999999999 841.344ZM461.068 821.592L459.76 823.256C450.21999999999997 834.212 437.78 834.212 428.24399999999997 823.256L426.93199999999996 821.592C415.792 807.476 410.26399999999995 788.808 412.64399999999995 770.996C414.828 753.88 424.63599999999997 736 443.99999999999994 736C463.3639999999999 736 473.17199999999997 753.88 475.35599999999994 770.996C477.72399999999993 788.816 472.21599999999995 807.472 461.0679999999999 821.592ZM388 848C388.5508 847.632 402.104 838.748 422.344 834.372L432.28 832.2199999999999C435.82399999999996 834.5519999999999 439.71999999999997 835.9999999999999 444 835.9999999999999C448.28 835.9999999999999 452.176 834.5519999999999 455.72 832.2199999999999L465.656 834.372C485.74 838.712 499.244 847.5 500 848Z " fill="#202728" fill-opacity="1" transform="matrix(1,0,0,1,-379,-728)"></path></svg>