<svg id="SvgjsSvg1071" xmlns="http://www.w3.org/2000/svg" version="1.1" xmlns:xlink="http://www.w3.org/1999/xlink" xmlns:svgjs="http://svgjs.com/svgjs" width="128" height="88" viewBox="0 0 128 88"><title>video</title><desc>Created with Avocode.</desc><defs id="SvgjsDefs1072"></defs><path id="SvgjsPath1073" d="M1460 508H1456.456C1454.356 508 1452.336 508.828 1450.84 510.304L1440 520.992V516C1440 509.372 1434.628 504 1428 504H1352C1345.384 504 1340 509.384 1340 516V580C1340 586.628 1345.372 592 1352 592H1428C1434.628 592 1440 586.628 1440 580V575.12L1450.84 585.808C1452.336 587.284 1454.356 588.112 1456.456 588.112H1460C1464.42 588.112 1468 584.5319999999999 1468 580.112V516C1468 511.584 1464.42 508 1460 508ZM1352 584C1349.792 584 1348 582.208 1348 580V516C1348 513.788 1349.788 512 1352 512H1428C1430.208 512 1432 513.792 1432 516V580C1432 582.208 1430.208 584 1428 584ZM1460 580.112H1456L1440 564.112V564L1436 560V536L1456 516H1460Z " fill="#202728" fill-opacity="1" transform="matrix(1,0,0,1,-1340,-504)"></path></svg>