<svg id="SvgjsSvg1164" xmlns="http://www.w3.org/2000/svg" version="1.1" xmlns:xlink="http://www.w3.org/1999/xlink" xmlns:svgjs="http://svgjs.com/svgjs" width="130" height="130" viewBox="0 0 130 130"><title>vinyl</title><desc>Created with Avocode.</desc><defs id="SvgjsDefs1165"></defs><path id="SvgjsPath1166" d="M947.788 2200.584C914.976 2187.448 877.724 2203.392 864.588 2236.2039999999997C851.444 2269.0199999999995 867.396 2306.276 900.208 2319.412C933.02 2332.5519999999997 970.2719999999999 2316.604 983.4119999999999 2283.792C996.5519999999999 2250.976 980.6039999999999 2213.7239999999997 947.7879999999999 2200.584ZM903.184 2311.988C874.516 2300.504 860.536 2267.848 872.012 2239.18C883.492 2210.5159999999996 916.1479999999999 2196.528 944.8159999999999 2208.0119999999997C973.4839999999999 2219.4919999999997 987.4639999999999 2252.1519999999996 975.9879999999999 2280.816C964.5079999999999 2309.484 931.848 2323.464 903.184 2311.988ZM926.976 2252.572C922.872 2250.9280000000003 918.216 2252.924 916.572 2257.0240000000003C914.932 2261.128 916.924 2265.7840000000006 921.024 2267.4240000000004C925.124 2269.068 929.784 2267.0720000000006 931.424 2262.9760000000006C933.068 2258.8720000000008 931.076 2254.2160000000003 926.976 2252.5720000000006ZM922.512 2263.712C920.4639999999999 2262.888 919.468 2260.56 920.284 2258.508C921.108 2256.464 923.4399999999999 2255.468 925.4879999999999 2256.2839999999997C927.5319999999999 2257.104 928.5319999999999 2259.4359999999997 927.712 2261.488C926.888 2263.5319999999997 924.556 2264.528 922.512 2263.712ZM932.92 2237.72C920.616 2232.792 906.644 2238.776 901.7199999999999 2251.076C896.7919999999999 2263.38 902.776 2277.348 915.0759999999999 2282.276C927.3839999999999 2287.2039999999997 941.3519999999999 2281.2239999999997 946.2799999999999 2268.9199999999996C951.2079999999999 2256.6159999999995 945.2239999999998 2242.6479999999997 932.9199999999998 2237.72ZM918.052 2274.848C909.864 2271.572 905.868 2262.236 909.144 2254.048C912.424 2245.8599999999997 921.756 2241.8639999999996 929.948 2245.144C938.14 2248.424 942.132 2257.7599999999998 938.856 2265.948C935.572 2274.136 926.24 2278.136 918.052 2274.848ZM953.708 2271.892C954.116 2270.868 953.616 2269.7039999999997 952.592 2269.296C951.568 2268.8799999999997 950.4 2269.3799999999997 949.992 2270.408L949.9879999999999 2270.404C947.112 2277.588 941.6039999999999 2282.92 935.016 2285.74C934.004 2286.176 933.5319999999999 2287.348 933.9639999999999 2288.3599999999997C934.4 2289.3799999999997 935.5759999999999 2289.8479999999995 936.592 2289.4159999999997C936.6279999999999 2289.3999999999996 936.644 2289.368 936.6759999999999 2289.3559999999998C944.1679999999999 2286.12 950.4359999999999 2280.048 953.704 2271.892ZM967.444 2275.24C966.42 2274.828 965.252 2275.332 964.8439999999999 2276.352C960.328 2287.636 951.664 2296.0119999999997 941.3119999999999 2300.448C940.3 2300.8799999999997 939.8279999999999 2302.056 940.2639999999999 2303.0719999999997C940.6999999999999 2304.0919999999996 941.8719999999998 2304.5559999999996 942.8879999999999 2304.124C942.9399999999999 2304.1 942.9719999999999 2304.0559999999996 943.0199999999999 2304.0319999999997C954.2559999999999 2299.18 963.6599999999999 2290.0719999999997 968.5559999999998 2277.8399999999997C968.9679999999998 2276.816 968.4679999999998 2275.6519999999996 967.4439999999998 2275.24ZM960.016 2272.268C958.9879999999999 2271.856 957.828 2272.352 957.4119999999999 2273.38C953.7199999999999 2282.612 946.636 2289.4680000000003 938.1639999999999 2293.092H938.1679999999999C937.1519999999999 2293.5280000000002 936.6799999999998 2294.704 937.1159999999999 2295.7200000000003C937.5479999999999 2296.7360000000003 938.7239999999998 2297.204 939.7399999999999 2296.7720000000004C939.7839999999999 2296.7520000000004 939.8039999999999 2296.7160000000003 939.8479999999998 2296.6920000000005C949.2079999999999 2292.6520000000005 957.0439999999999 2285.0640000000003 961.1279999999998 2274.8680000000004C961.5399999999998 2273.8400000000006 961.0399999999998 2272.6760000000004 960.0159999999998 2272.2680000000005ZM914.036 2231.632C913.5959999999999 2230.612 912.424 2230.148 911.4079999999999 2230.5840000000003C911.372 2230.5960000000005 911.3519999999999 2230.628 911.3199999999999 2230.6400000000003C903.828 2233.876 897.56 2239.952 894.2959999999999 2248.1040000000003H894.2919999999999C893.8799999999999 2249.132 894.3799999999999 2250.2920000000004 895.4039999999999 2250.7000000000003C896.4319999999999 2251.112 897.5959999999999 2250.612 898.0079999999999 2249.588H898.012C900.8839999999999 2242.4120000000003 906.396 2237.076 912.9839999999999 2234.26C913.9959999999999 2233.824 914.468 2232.652 914.036 2231.632ZM907.736 2216.924C907.2959999999999 2215.908 906.124 2215.44 905.108 2215.872C905.06 2215.892 905.0279999999999 2215.9359999999997 904.9839999999999 2215.96C893.7439999999999 2220.8160000000003 884.3439999999999 2229.92 879.444 2242.152C879.0319999999999 2243.18 879.5319999999999 2244.344 880.5559999999999 2244.756C881.5799999999999 2245.1679999999997 882.7439999999999 2244.6679999999997 883.156 2243.644C887.6719999999999 2232.3599999999997 896.332 2223.984 906.688 2219.548C907.6999999999999 2219.1119999999996 908.172 2217.9399999999996 907.736 2216.924ZM909.832 2226.9C910.848 2226.4680000000003 911.32 2225.2960000000003 910.884 2224.2760000000003C910.448 2223.264 909.272 2222.7920000000004 908.256 2223.2280000000005C908.216 2223.2440000000006 908.196 2223.2840000000006 908.1519999999999 2223.3000000000006C898.7879999999999 2227.3440000000005 890.9519999999999 2234.9400000000005 886.872 2245.1320000000005C886.4559999999999 2246.1600000000003 886.9599999999999 2247.3200000000006 887.9839999999999 2247.7320000000004C889.0079999999999 2248.1400000000003 890.1719999999999 2247.6480000000006 890.584 2246.6200000000003C894.276 2237.3880000000004 901.3679999999999 2230.5280000000002 909.832 2226.9080000000004Z " fill="#151e16" fill-opacity="1" transform="matrix(1,0,0,1,-859,-2195)"></path></svg>