<svg id="SvgjsSvg1161" xmlns="http://www.w3.org/2000/svg" version="1.1" xmlns:xlink="http://www.w3.org/1999/xlink" xmlns:svgjs="http://svgjs.com/svgjs" width="129" height="124" viewBox="0 0 129 124"><title>wallet</title><desc>Created with Avocode.</desc><defs id="SvgjsDefs1162"></defs><path id="SvgjsPath1163" d="M692 2268C687.58 2268 684 2271.584 684 2276C684 2280.42 687.58 2284 692 2284C696.42 2284 700 2280.42 700 2276C700 2271.584 696.42 2268 692 2268ZM736.008 2248C736.004 2248 736.004 2248 736 2248V2212C736 2205.372 730.628 2200 724 2200H642C629.868 2200 620 2209.872 620 2222V2302C620 2314.128 629.868 2324 642 2324H714C726.132 2324 736 2314.128 736 2302V2296C736.004 2296 736.004 2296 736.008 2296C752 2283.996 752 2260.004 736.008 2248ZM642 2208H724C726.204 2208 728 2209.792 728 2212V2236.736C726.744 2236.288 725.408 2236 724 2236V2216C724 2213.788 722.208 2212 720 2212H636C633.788 2212 632 2213.788 632 2216V2231.772C629.532 2229.252 628 2225.808 628 2222C628 2214.268 634.268 2208 642 2208ZM720 2220H636V2216H720ZM720 2224V2228H636V2224ZM720 2232V2236H642C639.84 2236 637.824 2235.472 636 2234.6V2232ZM728 2302C728 2309.732 721.732 2316 714 2316H642C634.268 2316 628 2309.732 628 2302V2238.956C631.808 2242.1040000000003 636.684 2244 642 2244H724C726.204 2244 728 2245.792 728 2248V2256H692.004C680.956 2256 672 2264.952 672 2276C672 2287.048 680.956 2296 692.004 2296H728ZM733.108 2288H692.0039999999999C685.3839999999999 2288 679.9999999999999 2282.616 679.9999999999999 2276C679.9999999999999 2269.384 685.3839999999999 2264 692.0039999999999 2264H727.9999999999999C730.4719999999999 2263.968 732.9199999999998 2262.772 734.4079999999999 2260.784C734.8279999999999 2260.228 735.1479999999999 2259.596 735.4079999999999 2258.94C735.4439999999998 2258.852 735.5079999999999 2258.784 735.5399999999998 2258.696C738.4159999999998 2262.464 739.9999999999999 2267.092 739.9999999999999 2272C739.9999999999999 2278.152 737.5159999999998 2283.86 733.1079999999998 2288Z " fill="#202728" fill-opacity="1" transform="matrix(1,0,0,1,-620,-2200)"></path></svg>