<svg id="SvgjsSvg1107" xmlns="http://www.w3.org/2000/svg" version="1.1" xmlns:xlink="http://www.w3.org/1999/xlink" xmlns:svgjs="http://svgjs.com/svgjs" width="88" height="128" viewBox="0 0 88 128"><title>clock</title><desc>Created with Avocode.</desc><defs id="SvgjsDefs1108"></defs><path id="SvgjsPath1109" d="M1400 1488C1402.212 1488 1404 1486.208 1404 1484C1404 1481.788 1402.212 1480 1400 1480C1397.788 1480 1396 1481.788 1396 1484C1396 1486.208 1397.788 1488 1400 1488ZM1400 1528C1397.788 1528 1396 1529.792 1396 1532C1396 1534.212 1397.788 1536 1400 1536C1402.212 1536 1404 1534.212 1404 1532C1404 1529.792 1402.212 1528 1400 1528ZM1376 1504C1373.788 1504 1372 1505.788 1372 1508C1372 1510.208 1373.788 1512 1376 1512C1378.212 1512 1380 1510.208 1380 1508C1380 1505.788 1378.212 1504 1376 1504ZM1420 1508C1420 1510.208 1421.788 1512 1424 1512C1426.212 1512 1428 1510.208 1428 1508C1428 1505.788 1426.212 1504 1424 1504C1421.788 1504 1420 1505.788 1420 1508ZM1380.204 1522.14C1378.636 1523.7040000000002 1378.636 1526.236 1380.204 1527.796C1381.764 1529.3600000000001 1384.292 1529.3600000000001 1385.86 1527.796C1387.424 1526.236 1387.424 1523.704 1385.86 1522.14C1384.292 1520.5800000000002 1381.764 1520.5800000000002 1380.204 1522.14ZM1380.204 1488.204C1378.636 1489.764 1378.636 1492.292 1380.2 1493.86C1381.7640000000001 1495.4199999999998 1384.2920000000001 1495.4199999999998 1385.8600000000001 1493.86C1387.4240000000002 1492.292 1387.4240000000002 1489.764 1385.8600000000001 1488.204C1384.2920000000001 1486.636 1381.7640000000001 1486.636 1380.2040000000002 1488.204ZM1414.14 1522.14C1412.5800000000002 1523.7040000000002 1412.5800000000002 1526.236 1414.14 1527.796C1415.708 1529.3600000000001 1418.236 1529.3600000000001 1419.8000000000002 1527.796C1421.3640000000003 1526.236 1421.3640000000003 1523.704 1419.7960000000003 1522.14C1418.2360000000003 1520.5800000000002 1415.7080000000003 1520.5800000000002 1414.1400000000003 1522.14ZM1440 1500C1439.72 1500 1439.484 1500.132 1439.212 1500.16C1437.82 1493.18 1434.536 1486.9360000000001 1430.024 1481.784L1424.2839999999999 1450.5400000000002C1423.58 1446.7480000000003 1420.272 1444.0000000000002 1416.4199999999998 1444.0000000000002H1384.4199999999998C1380.5639999999999 1444.0000000000002 1377.2559999999999 1446.7480000000003 1376.552 1450.5400000000002L1370.9479999999999 1480.7320000000002C1364.232 1487.8840000000002 1359.9999999999998 1497.4080000000001 1359.9999999999998 1508.0000000000002C1359.9999999999998 1518.3280000000002 1364.0559999999998 1527.6200000000001 1370.4839999999997 1534.7120000000002L1376.1319999999996 1565.4600000000003C1376.8399999999997 1569.2520000000002 1380.1439999999996 1572.0000000000002 1383.9999999999995 1572.0000000000002H1415.9999999999995C1419.8559999999995 1572.0000000000002 1423.1599999999996 1569.2520000000002 1423.8679999999995 1565.4600000000003L1429.5679999999995 1534.7360000000003C1434.3199999999995 1529.4920000000004 1437.7719999999995 1523.0560000000003 1439.2119999999995 1515.8360000000002C1439.4839999999995 1515.8680000000002 1439.7199999999996 1516.0000000000002 1439.9999999999995 1516.0000000000002C1444.4199999999996 1516.0000000000002 1447.9999999999995 1512.4160000000002 1447.9999999999995 1508.0000000000002C1447.9999999999995 1503.5800000000002 1444.4199999999996 1500.0000000000002 1439.9999999999995 1500.0000000000002ZM1384.42 1452H1416.42L1420.42 1473.544C1414.5120000000002 1470.112 1407.7440000000001 1468 1400.42 1468C1393.092 1468 1386.324 1470.112 1380.42 1473.544ZM1416 1564H1384L1380 1542.456C1385.908 1545.884 1392.676 1548 1400 1548C1407.324 1548 1414.092 1545.884 1420 1542.456ZM1400 1540C1382.356 1540 1368 1525.64 1368 1508C1368 1490.356 1382.356 1476 1400 1476C1417.644 1476 1432 1490.356 1432 1508C1432 1525.64 1417.644 1540 1400 1540ZM1419.764 1488.104C1419.28 1487.6200000000001 1418.5 1487.5800000000002 1417.952 1488.02L1397.188 1505.16C1396.4240000000002 1505.928 1396 1506.9440000000002 1396 1508.036C1396 1509.084 1396.408 1510.0800000000002 1397.156 1510.828C1397.908 1511.572 1398.908 1511.988 1399.984 1511.9959999999999C1400.984 1511.9879999999998 1402.024 1511.6159999999998 1402.78 1510.8839999999998L1410.172 1501.9879999999998L1419.876 1489.9039999999998C1420.296 1489.3719999999998 1420.252 1488.5879999999997 1419.764 1488.1039999999998Z " fill="#202728" fill-opacity="1" transform="matrix(1,0,0,1,-1360,-1444)"></path></svg>