<svg id="SvgjsSvg1173" xmlns="http://www.w3.org/2000/svg" version="1.1" xmlns:xlink="http://www.w3.org/1999/xlink" xmlns:svgjs="http://svgjs.com/svgjs" width="124" height="124" viewBox="0 0 124 124"><title>world</title><desc>Created with Avocode.</desc><defs id="SvgjsDefs1174"></defs><path id="SvgjsPath1175" d="M1402 2200C1367.76 2200 1340 2227.76 1340 2262C1340 2296.244 1367.76 2324 1402 2324C1436.24 2324 1464 2296.244 1464 2262C1464 2227.76 1436.24 2200 1402 2200ZM1455.9 2260H1431.9160000000002C1431.6960000000001 2251.14 1430.1200000000001 2242.676 1427.324 2234.928C1432.72 2232.676 1437.712 2229.68 1442.2640000000001 2226.14C1450.3600000000001 2235.2239999999997 1455.4240000000002 2247.02 1455.9 2260ZM1399.788 2315.888C1393.14 2310.352 1387.568 2303.1639999999998 1383.484 2294.816C1388.72 2293.18 1394.268 2292.2839999999997 1400 2292.1V2315.9C1399.928 2315.896 1399.86 2315.8920000000003 1399.788 2315.888ZM1404.208 2208.112C1411.7520000000002 2214.396 1417.9080000000001 2222.804 1422.0720000000001 2232.616C1416.372 2234.568 1410.3080000000002 2235.696 1404.0000000000002 2235.9V2208.1C1404.0720000000001 2208.104 1404.1360000000002 2208.1079999999997 1404.2080000000003 2208.112ZM1410.868 2208.792C1421.908 2210.6279999999997 1431.816 2215.784 1439.524 2223.248C1435.3359999999998 2226.46 1430.76 2229.184 1425.8159999999998 2231.244C1422.1719999999998 2222.612 1417.0679999999998 2214.984 1410.8679999999997 2208.792ZM1400 2208.1V2235.9C1393.692 2235.696 1387.628 2234.568 1381.928 2232.616C1386.092 2222.804 1392.2520000000002 2214.396 1399.7920000000001 2208.112C1399.864 2208.108 1399.928 2208.1040000000003 1400.0000000000002 2208.1ZM1378.184 2231.244C1373.244 2229.184 1368.664 2226.46 1364.4759999999999 2223.248C1372.184 2215.784 1382.0919999999999 2210.628 1393.1319999999998 2208.792C1386.9319999999998 2214.984 1381.8279999999997 2222.612 1378.1839999999997 2231.244ZM1380.424 2236.304C1386.5919999999999 2238.444 1393.16 2239.692 1400 2239.9V2260H1376.088C1376.3 2251.624 1377.7839999999999 2243.62 1380.424 2236.304ZM1400 2264V2288.1C1393.692 2288.292 1387.592 2289.324 1381.844 2291.176C1378.38 2282.928 1376.336 2273.74 1376.088 2264ZM1393.132 2315.208C1383.2440000000001 2313.5640000000003 1374.26 2309.256 1366.952 2303C1370.896 2300.268 1375.152 2297.956 1379.704 2296.2C1383.192 2303.432 1387.76 2309.852 1393.132 2315.2079999999996ZM1404 2315.9V2292.1C1409.732 2292.284 1415.28 2293.18 1420.516 2294.816C1416.432 2303.1639999999998 1410.8600000000001 2310.352 1404.212 2315.888C1404.14 2315.892 1404.072 2315.8959999999997 1404 2315.9ZM1424.296 2296.2C1428.848 2297.9559999999997 1433.104 2300.268 1437.048 2303C1429.744 2309.256 1420.76 2313.564 1410.868 2315.208C1416.244 2309.852 1420.808 2303.4320000000002 1424.296 2296.2000000000003ZM1422.156 2291.176C1416.408 2289.324 1410.308 2288.292 1404 2288.1V2264H1427.912C1427.664 2273.74 1425.6200000000001 2282.928 1422.156 2291.176ZM1404 2260V2239.9C1410.84 2239.692 1417.412 2238.444 1423.576 2236.304C1426.2160000000001 2243.62 1427.7 2251.6240000000003 1427.912 2260ZM1361.736 2226.14C1366.288 2229.68 1371.2800000000002 2232.676 1376.6760000000002 2234.928C1373.88 2242.676 1372.304 2251.14 1372.0880000000002 2260H1348.1000000000001C1348.5800000000002 2247.02 1353.64 2235.224 1361.736 2226.14ZM1348.1 2264H1372.088C1372.336 2274.22 1374.468 2283.872 1378.096 2292.548C1373.032 2294.524 1368.304 2297.156 1363.944 2300.2679999999996C1354.552 2290.9239999999995 1348.624 2278.144 1348.1 2263.9999999999995ZM1440.056 2300.268C1435.6960000000001 2297.156 1430.968 2294.524 1425.904 2292.5480000000002C1429.532 2283.8720000000003 1431.664 2274.2200000000003 1431.916 2264.0000000000005H1455.8999999999999C1455.376 2278.1440000000002 1449.4479999999999 2290.9240000000004 1440.0559999999998 2300.2680000000005Z " fill="#151e16" fill-opacity="1" transform="matrix(1,0,0,1,-1340,-2200)"></path></svg>