<?xml version="1.0" encoding="utf-8"?>
<!-- Generated by IcoMoon.io -->
<!DOCTYPE svg PUBLIC "-//W3C//DTD SVG 1.1//EN" "http://www.w3.org/Graphics/SVG/1.1/DTD/svg11.dtd">
<svg version="1.1" xmlns="http://www.w3.org/2000/svg" xmlns:xlink="http://www.w3.org/1999/xlink" width="32" height="32" viewBox="0 0 32 32">
<path d="M31.415 10.586l-10-10c-0.497-0.496-1.215-0.695-1.896-0.527-0.359 0.088-0.68 0.273-0.933 0.527-0.227 0.227-0.399 0.508-0.497 0.822-0.454 1.469-1.237 2.746-2.395 3.904-1.548 1.547-3.564 2.719-5.697 3.958-2.264 1.312-4.603 2.671-6.52 4.587-1.629 1.631-2.738 3.446-3.388 5.551-0.218 0.711-0.028 1.481 0.496 2.006l10.001 10c0.496 0.496 1.214 0.695 1.895 0.527 0.359-0.089 0.68-0.273 0.934-0.527 0.226-0.227 0.398-0.508 0.496-0.824 0.454-1.469 1.237-2.746 2.396-3.904 1.547-1.547 3.563-2.717 5.697-3.955 2.263-1.315 4.602-2.674 6.519-4.59 1.629-1.629 2.738-3.446 3.388-5.551 0.218-0.709 0.028-1.481-0.496-2.004zM12.001 30c-3.313-3.312-6.689-6.689-10.001-10 2.841-9.201 15.159-8.799 17.999-18 3.313 3.311 6.689 6.688 10.002 10-2.842 9.199-15.16 8.799-18 18zM19.561 14.9c-0.326-0.273-0.654-0.459-0.984-0.55-0.328-0.092-0.657-0.129-0.989-0.106-0.328 0.026-0.664 0.1-1 0.229-0.335 0.131-0.673 0.273-1.013 0.437-0.537-0.617-1.074-1.226-1.612-1.793 0.243-0.219 0.477-0.33 0.704-0.338 0.226-0.009 0.445 0.014 0.652 0.067 0.211 0.052 0.404 0.097 0.582 0.133 0.18 0.035 0.336-0.004 0.473-0.12 0.144-0.125 0.224-0.287 0.236-0.482 0.010-0.197-0.065-0.389-0.229-0.576-0.211-0.242-0.464-0.389-0.769-0.444-0.301-0.052-0.609-0.048-0.93 0.022-0.316 0.072-0.617 0.191-0.902 0.359s-0.514 0.34-0.684 0.508c-0.065-0.062-0.13-0.123-0.195-0.183-0.072-0.067-0.162-0.102-0.27-0.1-0.109 0-0.199 0.047-0.273 0.133-0.072 0.084-0.105 0.181-0.092 0.285 0.010 0.107 0.053 0.189 0.127 0.252 0.065 0.055 0.13 0.109 0.195 0.166-0.255 0.308-0.466 0.65-0.632 1.010-0.168 0.361-0.268 0.718-0.305 1.066-0.039 0.35-0.002 0.67 0.105 0.967 0.108 0.299 0.305 0.553 0.594 0.793 0.471 0.39 1.026 0.556 1.668 0.519 0.641-0.039 1.332-0.23 2.074-0.629 0.591 0.682 1.183 1.36 1.774 1.989-0.25 0.211-0.469 0.332-0.662 0.371-0.194 0.041-0.366 0.037-0.522-0.010-0.156-0.049-0.301-0.119-0.433-0.209-0.133-0.092-0.264-0.17-0.395-0.234-0.129-0.065-0.262-0.1-0.398-0.102-0.137-0.002-0.282 0.064-0.442 0.201-0.164 0.143-0.246 0.309-0.246 0.496s0.086 0.375 0.254 0.567c0.17 0.191 0.391 0.351 0.658 0.478 0.268 0.127 0.569 0.207 0.901 0.229 0.332 0.023 0.681-0.028 1.050-0.164 0.372-0.135 0.739-0.379 1.1-0.742 0.175 0.17 0.351 0.332 0.525 0.488 0.075 0.064 0.164 0.096 0.274 0.088 0.105-0.004 0.197-0.053 0.269-0.141 0.075-0.090 0.106-0.189 0.094-0.293-0.010-0.105-0.053-0.185-0.125-0.244-0.176-0.141-0.351-0.289-0.527-0.445 0.299-0.367 0.539-0.754 0.717-1.137 0.177-0.385 0.283-0.756 0.318-1.1s-0.006-0.658-0.119-0.941c-0.112-0.287-0.311-0.533-0.596-0.77zM13.971 15.578c-0.283 0.012-0.53-0.082-0.746-0.291-0.092-0.088-0.156-0.195-0.195-0.322-0.041-0.127-0.055-0.266-0.039-0.418 0.013-0.15 0.058-0.307 0.137-0.465 0.074-0.158 0.183-0.316 0.324-0.469 0.507 0.504 1.012 1.057 1.519 1.629-0.383 0.211-0.717 0.324-1 0.336zM18.688 17.58c-0.090 0.166-0.193 0.315-0.315 0.443-0.559-0.566-1.12-1.187-1.679-1.826 0.142-0.064 0.293-0.131 0.455-0.199s0.324-0.113 0.486-0.141c0.166-0.025 0.33-0.017 0.494 0.022 0.163 0.041 0.317 0.129 0.459 0.268 0.141 0.14 0.231 0.287 0.266 0.445 0.039 0.16 0.041 0.322 0.014 0.488-0.030 0.166-0.088 0.332-0.18 0.5zM14.717 22.18h-0.002c-0.625 0.48-1.235 0.986-1.799 1.552-0.543 0.543-1.035 1.116-1.461 1.7l-0.684 0.933 0.002 0.002c-0.125 0.196-0.104 0.457 0.066 0.627 0.196 0.196 0.514 0.196 0.71 0 0.031-0.031 0.054-0.064 0.074-0.099l0.639-0.875c0.397-0.541 0.855-1.075 1.362-1.58 0.56-0.561 1.081-0.995 1.713-1.475l-0.001-0.002c0.017-0.014 0.035-0.025 0.050-0.041 0.197-0.195 0.197-0.514 0-0.709-0.182-0.184-0.472-0.192-0.669-0.033zM18.378 7.715c-0.523 0.523-1.090 0.994-1.677 1.443-0.042 0.024-0.083 0.049-0.118 0.086-0.198 0.197-0.198 0.518 0 0.715 0.192 0.193 0.501 0.197 0.7 0.014l0.003 0.002c0.626-0.481 1.234-0.989 1.799-1.553 0.542-0.543 1.034-1.113 1.46-1.697l0.684-0.938-0.002-0.002c0.17-0.199 0.163-0.496-0.025-0.683-0.197-0.198-0.516-0.198-0.713 0-0.036 0.037-0.064 0.080-0.087 0.123l-0.665 0.91c-0.396 0.543-0.854 1.074-1.359 1.58z"></path>
</svg>
