<?xml version="1.0" encoding="utf-8"?>
<!-- Generated by IcoMoon.io -->
<!DOCTYPE svg PUBLIC "-//W3C//DTD SVG 1.1//EN" "http://www.w3.org/Graphics/SVG/1.1/DTD/svg11.dtd">
<svg version="1.1" xmlns="http://www.w3.org/2000/svg" xmlns:xlink="http://www.w3.org/1999/xlink" width="32" height="32" viewBox="0 0 32 32">
<path d="M16 7c-5.963 0-11 3.206-11 7 0 0.276 0.224 0.5 0.5 0.5s0.5-0.224 0.5-0.5c0-3.196 4.673-6 10-6 0.276 0 0.5-0.224 0.5-0.5s-0.224-0.5-0.5-0.5zM16 2c-8.837 0-16 5.373-16 12 0 4.127 2.779 7.766 7.008 9.926 0 0.027-0.008 0.045-0.008 0.074 0 1.793-1.339 3.723-1.928 4.736 0.001 0 0.002 0 0.002 0-0.047 0.11-0.074 0.231-0.074 0.358 0 0.501 0.405 0.906 0.906 0.906 0.094 0 0.259-0.025 0.255-0.013 3.125-0.511 6.069-3.382 6.753-4.215 0.999 0.146 2.029 0.228 3.086 0.228 8.836 0 16-5.373 16-12s-7.164-12-16-12zM16 24c-0.917 0-1.857-0.069-2.796-0.207-0.097-0.015-0.194-0.021-0.29-0.021-0.594 0-1.163 0.264-1.546 0.731-0.428 0.521-1.645 1.683-3.085 2.539 0.39-0.894 0.696-1.898 0.716-2.932 0.006-0.064 0.009-0.129 0.009-0.184 0-0.751-0.421-1.44-1.090-1.781-3.706-1.893-5.918-4.938-5.918-8.145 0-5.514 6.28-10 14-10s14 4.486 14 10c0 5.514-6.28 10-14 10z"></path>
</svg>
