<?xml version="1.0" encoding="utf-8"?>
<!-- Generated by IcoMoon.io -->
<!DOCTYPE svg PUBLIC "-//W3C//DTD SVG 1.1//EN" "http://www.w3.org/Graphics/SVG/1.1/DTD/svg11.dtd">
<svg version="1.1" xmlns="http://www.w3.org/2000/svg" xmlns:xlink="http://www.w3.org/1999/xlink" width="32" height="32" viewBox="0 0 32 32">
<path d="M16 0c-6.075 0-11 4.925-11 11 0 4.031 3.689 8.303 5.031 12.055 2.003 5.596 1.782 8.945 5.969 8.945 4.25 0 3.965-3.334 5.969-8.922 1.347-3.76 5.031-8.078 5.031-12.078 0-6.075-4.925-11-11-11zM18.593 27.176l-4.959 0.62c-0.177-0.513-0.367-1.112-0.598-1.894-0.003-0.009-0.007-0.021-0.009-0.031l6.189-0.773c-0.088 0.296-0.183 0.606-0.264 0.884-0.131 0.449-0.249 0.839-0.359 1.194zM12.736 24.908c-0.181-0.601-0.386-1.236-0.615-1.908h7.766c-0.122 0.359-0.245 0.719-0.352 1.059zM16 30c-1.013 0-1.479-0.116-1.997-1.25l4.238-0.53c-0.613 1.653-1.060 1.78-2.241 1.78zM20.672 21h-9.333c-0.498-1.079-1.096-2.16-1.686-3.217-1.304-2.335-2.653-4.75-2.653-6.783 0-4.963 4.037-9 9-9s9 4.037 9 9c0 2.018-1.35 4.446-2.655 6.795-0.585 1.054-1.178 2.131-1.673 3.205zM16 5c-3.309 0-6 2.691-6 6 0 0.276 0.224 0.5 0.5 0.5s0.5-0.224 0.5-0.5c0-2.757 2.243-5 5-5 0.276 0 0.5-0.224 0.5-0.5s-0.224-0.5-0.5-0.5z"></path>
</svg>
