<?xml version="1.0" encoding="utf-8"?>
<!-- Generated by IcoMoon.io -->
<!DOCTYPE svg PUBLIC "-//W3C//DTD SVG 1.1//EN" "http://www.w3.org/Graphics/SVG/1.1/DTD/svg11.dtd">
<svg version="1.1" xmlns="http://www.w3.org/2000/svg" xmlns:xlink="http://www.w3.org/1999/xlink" width="32" height="32" viewBox="0 0 32 32">
<path d="M16 9.502c-4.419 0-8 3.581-8 8 0 4.418 3.581 8 8 8s8-3.582 8-8c0-4.419-3.581-8-8-8zM20.555 21.406c-2.157 2.516-5.944 2.806-8.459 0.651-2.517-2.156-2.807-5.944-0.651-8.46s5.944-2.806 8.459-0.65c2.517 2.155 2.807 5.943 0.651 8.459zM16 13.502c-2.209 0-3.999 1.791-4 3.999v0.001c0 0.276 0.224 0.5 0.5 0.5s0.5-0.224 0.5-0.5v-0.001c0.001-1.657 1.343-2.999 3-2.999 0.276 0 0.5-0.224 0.5-0.501s-0.224-0.499-0.5-0.499zM29.493 8.542l-4.335-0.723-1.373-3.434c-0.459-1.145-1.553-1.884-2.785-1.884h-10c-1.232 0-2.326 0.739-2.786 1.885l-1.372 3.433-4.333 0.723c-1.454 0.241-2.509 1.485-2.509 2.959v14.999c0 1.654 1.346 3 3 3h26c1.654 0 3-1.346 3-3v-14.999c0-1.474-1.055-2.718-2.507-2.959zM30 26.5c0 0.552-0.447 1-1 1h-26c-0.553 0-1-0.448-1-1v-14.999c0-0.49 0.354-0.907 0.836-0.987l5.444-0.907 1.791-4.478c0.153-0.379 0.52-0.629 0.929-0.629h10c0.409 0 0.776 0.25 0.929 0.629l1.791 4.478 5.444 0.907c0.483 0.080 0.836 0.497 0.836 0.987z"></path>
</svg>
