<?xml version="1.0" encoding="utf-8"?>
<!-- Generated by IcoMoon.io -->
<!DOCTYPE svg PUBLIC "-//W3C//DTD SVG 1.1//EN" "http://www.w3.org/Graphics/SVG/1.1/DTD/svg11.dtd">
<svg version="1.1" xmlns="http://www.w3.org/2000/svg" xmlns:xlink="http://www.w3.org/1999/xlink" width="32" height="32" viewBox="0 0 32 32">
<path d="M29.363 4.134c-3.513-3.512-9.213-3.512-12.726 0l-14.59 14.401c-2.729 2.727-2.729 7.164 0 9.89 2.728 2.726 7.17 2.726 9.898 0l14.59-14.402c1.953-1.951 1.953-5.113 0-7.064s-5.119-1.95-7.070 0l-10.969 10.956c-0.39 0.391-0.39 1.022 0 1.414 0.391 0.39 1.024 0.39 1.414 0l10.969-10.958c1.17-1.167 3.072-1.167 4.242 0 1.17 1.169 1.17 3.070 0 4.239l-14.59 14.402c-1.953 1.951-5.117 1.951-7.070 0-1.953-1.95-1.953-5.113 0-7.063l14.447-14.261c2.735-2.732 7.168-2.732 9.899 0 2.736 2.732 2.736 7.157 0.002 9.889l-10.827 10.814c-0.392 0.391-0.392 1.022 0 1.413 0.391 0.391 1.024 0.391 1.415 0l10.966-10.956c3.516-3.511 3.516-9.203 0-12.714z"></path>
</svg>
