<?xml version="1.0" encoding="utf-8"?>
<!-- Generated by IcoMoon.io -->
<!DOCTYPE svg PUBLIC "-//W3C//DTD SVG 1.1//EN" "http://www.w3.org/Graphics/SVG/1.1/DTD/svg11.dtd">
<svg version="1.1" xmlns="http://www.w3.org/2000/svg" xmlns:xlink="http://www.w3.org/1999/xlink" width="32" height="32" viewBox="0 0 32 32">
<path d="M25.914 12.643c-0.439-4.563-4.237-8.143-8.914-8.143-3.619 0-6.718 2.148-8.146 5.23-0.43-0.136-0.878-0.23-1.353-0.23-2.485 0-4.5 2.016-4.5 4.5 0 0.494 0.099 0.961 0.246 1.404-1.933 1.127-3.246 3.197-3.246 5.595 0 3.59 2.91 6.5 6.5 6.5v0.001l17.999-0.001c4.143 0 7.499-3.357 7.499-7.5 0-3.657-2.62-6.694-6.085-7.356zM24.5 25.499v0.001h-17.999c-2.481-0.001-4.5-2.019-4.5-4.501 0-1.6 0.843-3.045 2.254-3.867 1.371-0.788 1.465-0.944 0.89-2.359-0.097-0.291-0.144-0.543-0.144-0.773 0-1.379 1.121-2.5 2.5-2.5 0 0 0.656-0.047 1.352 0.231 1.148 0.457 1.273 0.019 1.815-1.16 1.146-2.472 3.632-4.071 6.332-4.071 3.6 0 6.576 2.723 6.923 6.334 0.124 1.432 0.124 1.432 1.616 1.773 2.585 0.494 4.461 2.762 4.461 5.392 0 3.033-2.467 5.5-5.5 5.5z"></path>
</svg>
