<?xml version="1.0" encoding="utf-8"?>
<!-- Generated by IcoMoon.io -->
<!DOCTYPE svg PUBLIC "-//W3C//DTD SVG 1.1//EN" "http://www.w3.org/Graphics/SVG/1.1/DTD/svg11.dtd">
<svg version="1.1" xmlns="http://www.w3.org/2000/svg" xmlns:xlink="http://www.w3.org/1999/xlink" width="32" height="32" viewBox="0 0 32 32">
<path d="M28.112 5.023l-1.214-3.656c-0.273-0.816-1.037-1.367-1.898-1.367h-18c-0.861 0-1.625 0.551-1.897 1.367l-1.225 3.657c-1.044 0.068-1.878 0.916-1.878 1.976v3c0 1.105 0.896 2 2 2h1.034c0 0.075-0.030 0.146-0.021 0.221l2 18c0.112 1.012 0.968 1.779 1.987 1.779h14c1.020 0 1.875-0.767 1.987-1.779l2-18c0.009-0.075-0.021-0.146-0.021-0.221h1.034c1.105 0 2-0.895 2-2v-3c0-1.064-0.839-1.916-1.888-1.977zM7 2h18l1 3h-20zM9 30l-0.333-3h14.666l-0.333 3zM23.444 26h-14.888l-1.112-10h17.112zM24.667 15h-17.334l-0.333-3h18zM28 10h-24v-3h24z"></path>
</svg>
