<?xml version="1.0" encoding="utf-8"?>
<!-- Generated by IcoMoon.io -->
<!DOCTYPE svg PUBLIC "-//W3C//DTD SVG 1.1//EN" "http://www.w3.org/Graphics/SVG/1.1/DTD/svg11.dtd">
<svg version="1.1" xmlns="http://www.w3.org/2000/svg" xmlns:xlink="http://www.w3.org/1999/xlink" width="32" height="32" viewBox="0 0 32 32">
<path d="M31.177 9.769l-5.002-5.003c-0.369-0.369-0.87-0.577-1.392-0.577h-17.565c-0.522 0-1.023 0.208-1.392 0.577l-5.002 5.003c-0.387 0.386-0.58 0.896-0.578 1.405 0.003 0.463 0.168 0.926 0.498 1.297l13.784 14.679c0.374 0.42 0.91 0.661 1.472 0.661s1.098-0.24 1.472-0.661l13.785-14.679c0.337-0.379 0.502-0.855 0.497-1.327-0.004-0.499-0.198-0.995-0.577-1.375zM18.186 11.082h-4.372l2.186-1.821zM16.769 8.62l2.692-2.243 1.986 1.987-2.493 2.077zM13.046 10.441l-2.493-2.077 1.986-1.987 2.692 2.243zM18.452 12.066l-2.452 12.261-2.452-12.261zM19.456 12.066h4.832l-7.247 12.080zM19.722 11.082l2.424-2.018 2.019 2.018zM20.635 6.159h3.459l-1.887 1.572zM16 7.98l-2.186-1.822h4.372zM9.793 7.731l-1.887-1.572h3.459zM9.854 9.063l2.424 2.018h-4.444zM12.544 12.066l2.415 12.080-7.247-12.080zM12.755 22.384l-9.689-10.318h3.499zM25.435 12.066h3.5l-9.691 10.319zM25.558 11.082l-2.652-2.652 2.263-1.886 4.536 4.537zM6.829 6.543l2.265 1.888-2.652 2.652h-4.221z"></path>
</svg>
