<?xml version="1.0" encoding="utf-8"?>
<!-- Generated by IcoMoon.io -->
<!DOCTYPE svg PUBLIC "-//W3C//DTD SVG 1.1//EN" "http://www.w3.org/Graphics/SVG/1.1/DTD/svg11.dtd">
<svg version="1.1" xmlns="http://www.w3.org/2000/svg" xmlns:xlink="http://www.w3.org/1999/xlink" width="32" height="32" viewBox="0 0 32 32">
<path d="M27 4.998l-22 0.004c-0.553 0-1 0.443-1 0.996v14c0 0.553 0.447 1 1 1h22c0.553 0 1-0.447 1-1v-14c0-0.553-0.447-1-1-1zM27 20.002h-22v-14.004h22zM29 1.002h-26c-1.657 0-3 1.343-3 3v20c0 1.654 1.338 2.994 2.99 2.999h10.010v1.216l-6.242 0.811c-0.445 0.112-0.758 0.511-0.758 0.97 0 0.553 0.447 1 1 1h18c0.553 0 1-0.447 1-1 0-0.459-0.312-0.858-0.758-0.97l-6.242-0.811v-1.216h10.010c1.652-0.005 2.99-1.345 2.99-2.999v-20c0-1.657-1.343-3-3-3zM30 24.002c0 0.552-0.448 1-1 1h-26c-0.552 0-1-0.448-1-1v-20c0-0.552 0.448-1 1-1h26c0.552 0 1 0.448 1 1z"></path>
</svg>
