<?xml version="1.0" encoding="utf-8"?>
<!-- Generated by IcoMoon.io -->
<!DOCTYPE svg PUBLIC "-//W3C//DTD SVG 1.1//EN" "http://www.w3.org/Graphics/SVG/1.1/DTD/svg11.dtd">
<svg version="1.1" xmlns="http://www.w3.org/2000/svg" xmlns:xlink="http://www.w3.org/1999/xlink" width="32" height="32" viewBox="0 0 32 32">
<path d="M31.728 15.783c-0.011-0.041-0.005-0.086-0.021-0.126-0.006-0.017-0.020-0.027-0.027-0.041-0.010-0.025-0.008-0.050-0.021-0.073-2.862-5.466-9.090-9.382-15.66-9.382s-12.798 3.91-15.66 9.376c-0.013 0.023-0.011 0.049-0.020 0.073-0.007 0.016-0.021 0.025-0.027 0.041-0.015 0.040-0.010 0.085-0.019 0.126-0.017 0.074-0.035 0.145-0.035 0.221s0.017 0.146 0.035 0.22c0.010 0.041 0.004 0.086 0.019 0.126 0.006 0.017 0.020 0.026 0.027 0.041 0.010 0.025 0.008 0.050 0.020 0.073 2.862 5.466 9.090 9.382 15.66 9.382s12.798-3.91 15.66-9.376c0.013-0.023 0.011-0.049 0.021-0.073 0.007-0.016 0.021-0.025 0.027-0.041 0.016-0.040 0.010-0.085 0.021-0.126 0.016-0.074 0.033-0.145 0.033-0.221s-0.018-0.146-0.033-0.22zM16 23.87c-5.538 0-10.962-3.144-13.664-7.872 2.717-4.736 8.133-7.868 13.664-7.868 5.538 0 10.962 3.144 13.665 7.872-2.718 4.736-8.133 7.868-13.665 7.868zM16 12.063c-0.002 0-0.004 0.001-0.006 0.001-2.174 0.004-3.937 1.763-3.937 3.936 0 0.272 0.221 0.492 0.493 0.492s0.492-0.221 0.492-0.492c0-1.628 1.326-2.952 2.958-2.952 0.272 0 0.492-0.221 0.492-0.492s-0.221-0.492-0.492-0.492zM15.977 9.111c-3.814 0-6.906 3.086-6.906 6.892s3.092 6.892 6.906 6.892c3.813 0 6.905-3.085 6.905-6.892s-3.092-6.892-6.905-6.892zM15.977 21.911c-3.264 0-5.919-2.65-5.919-5.908s2.655-5.908 5.919-5.908 5.919 2.651 5.919 5.908c0 3.258-2.655 5.908-5.919 5.908z"></path>
</svg>
