<?xml version="1.0" encoding="utf-8"?>
<!-- Generated by IcoMoon.io -->
<!DOCTYPE svg PUBLIC "-//W3C//DTD SVG 1.1//EN" "http://www.w3.org/Graphics/SVG/1.1/DTD/svg11.dtd">
<svg version="1.1" xmlns="http://www.w3.org/2000/svg" xmlns:xlink="http://www.w3.org/1999/xlink" width="32" height="32" viewBox="0 0 32 32">
<path d="M21.997 9c-0.063 2.675-2.071 4.934-2.071 4.934 0-4.976-3.929-8.934-3.929-8.934s-0.053 2.962-2.043 5.948c-1.991-6.967-7.963-10.948-7.963-10.948 2.986 10.948-0.995 14.93-0.995 22.892 0 4.672 3.954 9.108 10.001 9.108 8.957 0 10.689-3.288 11.615-6.993 1.275-5.101-0.635-11.031-4.615-16.007zM24.672 24.522c-0.642 2.568-1.369 5.478-9.675 5.478-5.008 0-8-3.614-8-7.108 0-2.676 0.488-4.873 1.004-7.2 0.656-2.949 1.328-5.967 1.037-9.961 3.084 4.269 4.181 9.925 4.181 9.925s2.871-4.031 3.643-5.903c0.592 1.204 1.135 5.247 1.135 9.247 0 0 2.656-2.187 4.648-5.477 2.098 3.761 2.854 7.694 2.027 10.999zM22.428 16.795l-0.849 0.985c-1.053 1.228-2.049 2.392-4.709 3.731-0.381-1.142-0.727-2.4-0.727-4.323v-1.71l-1.517 2.378c-0.512 0.811-0.936 1.484-1.569 2.376-0.959-2.162-1.637-3.76-2.152-5.211l-0.479-1.35-0.519 1.51c-0.66 1.921-1.285 3.735-1.285 8.444 0 0.276 0.222 0.5 0.5 0.5 0.275 0 0.5-0.224 0.5-0.5 0-3.609 0.359-5.396 0.839-6.941 0.52 1.322 1.176 2.825 2.038 4.75l0.351 0.784 0.508-0.693c0.83-1.129 1.324-1.889 1.865-2.743 0.158 1.48 0.524 2.54 0.885 3.59l0.182 0.528 0.505-0.239c2.703-1.284 3.969-2.453 4.973-3.575 0.156 1.864-0.090 3.904-0.674 5.353-0.103 0.255 0.022 0.546 0.278 0.65 0.060 0.024 0.125 0.036 0.187 0.036 0.197 0 0.385-0.118 0.463-0.313 0.775-1.924 1.008-4.664 0.592-6.983z"></path>
</svg>
