<?xml version="1.0" encoding="utf-8"?>
<!-- Generated by IcoMoon.io -->
<!DOCTYPE svg PUBLIC "-//W3C//DTD SVG 1.1//EN" "http://www.w3.org/Graphics/SVG/1.1/DTD/svg11.dtd">
<svg version="1.1" xmlns="http://www.w3.org/2000/svg" xmlns:xlink="http://www.w3.org/1999/xlink" width="32" height="32" viewBox="0 0 32 32">
<path d="M29.046 20.913h-2.65c-0.044-0.236-0.099-0.466-0.158-0.696l4.724-2.367c0.486-0.244 0.683-0.837 0.44-1.324s-0.833-0.682-1.321-0.441l-4.507 2.258c-1.72-3.717-5.471-6.307-9.822-6.307-5.299 0-9.713 3.835-10.643 8.878h-2.65c-1.358 0-2.462 1.106-2.462 2.466 0 0.483 0.176 0.95 0.497 1.311l3.441 3.878v0.73c0 1.36 1.104 2.466 2.462 2.466h18.708c1.357 0 2.462-1.107 2.462-2.466v-0.73l3.44-3.878c0.321-0.361 0.498-0.828 0.498-1.311 0-1.361-1.105-2.466-2.462-2.466zM25.401 20.913h-0.553l0.491-0.246c0.020 0.083 0.045 0.162 0.062 0.246zM15.754 13.022c3.967 0 7.385 2.368 8.942 5.762l-0.877 0.439c-1.393-3.073-4.476-5.215-8.065-5.215-4.216 0-7.738 2.953-8.635 6.905h-1.013c0.916-4.497 4.894-7.892 9.648-7.892zM20.259 20.913c-0.762-1.739-2.492-2.96-4.506-2.96s-3.744 1.221-4.506 2.96h-1.057c0.813-2.295 2.996-3.946 5.563-3.946 2.428 0 4.516 1.476 5.424 3.578l-0.735 0.368zM15.754 19.927c-0.87 0-1.645 0.386-2.186 0.987h-1.205c0.683-1.174 1.94-1.973 3.391-1.973s2.708 0.799 3.391 1.973h-1.206c-0.541-0.601-1.315-0.987-2.185-0.987zM15.754 15.98c-3.116 0-5.752 2.084-6.602 4.933h-1.016c0.878-3.398 3.955-5.919 7.618-5.919 3.197 0 5.95 1.922 7.183 4.671l-0.879 0.44c-1.070-2.424-3.491-4.125-6.303-4.125zM25.6 27.819v1.48c0 0.273-0.221 0.493-0.492 0.493h-18.708c-0.273 0-0.492-0.221-0.492-0.493v-1.48l-3.938-4.44c0-0.273 0.22-0.493 0.492-0.493h26.585c0.272 0 0.492 0.221 0.492 0.493zM7.853 11.75c0.003 0.006 0.005 0.012 0.008 0.018 0 0 0.001 0 0.002 0 0.083 0.158 0.246 0.267 0.436 0.267 0.274 0 0.495-0.223 0.495-0.496 0-0.042-0.007-0.084-0.018-0.124 0.002-0.006 0.002-0.012 0-0.019-0.369-0.87-0.019-1.825 0.413-2.852 0.466-1.112 0.965-2.344 0.415-3.599-0.071-0.181-0.244-0.309-0.449-0.309-0.267 0-0.483 0.217-0.483 0.483 0 0.059 0.013 0.114 0.031 0.166 0.001 0.002 0.001 0.004 0.002 0.006 0.001 0.003 0.002 0.006 0.003 0.009s0.003 0.008 0.004 0.012c0.398 0.897 0.014 1.816-0.42 2.853-0.46 1.095-0.967 2.307-0.456 3.544 0.006 0.015 0.011 0.028 0.017 0.041zM19.845 11.607c0.003 0.006 0.005 0.012 0.008 0.018 0 0 0.001 0 0.002 0 0.083 0.158 0.246 0.267 0.436 0.267 0.273 0 0.495-0.223 0.495-0.496 0-0.042-0.008-0.084-0.018-0.123 0.002-0.007 0.002-0.013 0-0.020-0.369-0.869-0.019-1.825 0.412-2.852 0.467-1.111 0.966-2.344 0.416-3.599-0.070-0.181-0.244-0.309-0.449-0.309-0.266 0-0.482 0.217-0.482 0.483 0 0.059 0.012 0.115 0.032 0.167 0 0.002 0 0.004 0.001 0.005 0.001 0.003 0.002 0.006 0.004 0.009s0.003 0.008 0.004 0.012c0.398 0.897 0.013 1.816-0.421 2.853-0.459 1.095-0.967 2.308-0.455 3.544 0.005 0.015 0.011 0.028 0.017 0.041zM14.787 7.349c0.003 0.006 0.005 0.012 0.008 0.018 0 0 0.001 0 0.002 0 0.083 0.158 0.246 0.267 0.436 0.267 0.274 0 0.495-0.223 0.495-0.496 0-0.042-0.007-0.084-0.018-0.123 0.002-0.007 0.002-0.013 0-0.020-0.369-0.869-0.019-1.825 0.413-2.852 0.466-1.111 0.965-2.344 0.416-3.599-0.071-0.181-0.244-0.309-0.449-0.309-0.267 0-0.483 0.217-0.483 0.483 0 0.059 0.013 0.115 0.031 0.167 0.001 0.002 0.001 0.004 0.002 0.006s0.001 0.005 0.003 0.008c0.001 0.004 0.003 0.008 0.004 0.012 0.398 0.897 0.014 1.817-0.42 2.853-0.46 1.095-0.967 2.308-0.456 3.544 0.006 0.015 0.011 0.029 0.017 0.041z"></path>
</svg>
