<?xml version="1.0" encoding="utf-8"?>
<!-- Generated by IcoMoon.io -->
<!DOCTYPE svg PUBLIC "-//W3C//DTD SVG 1.1//EN" "http://www.w3.org/Graphics/SVG/1.1/DTD/svg11.dtd">
<svg version="1.1" xmlns="http://www.w3.org/2000/svg" xmlns:xlink="http://www.w3.org/1999/xlink" width="32" height="32" viewBox="0 0 32 32">
<path d="M29.192 4.792c-3.63-3.591-9.431-3.667-13.192-0.287-3.76-3.38-9.561-3.304-13.192 0.287-3.741 3.7-3.741 9.698 0 13.399 1.069 1.058 11.053 10.931 11.053 10.931 1.183 1.169 3.096 1.169 4.278 0 0 0 10.932-10.811 11.053-10.931 3.741-3.701 3.741-9.699 0-13.399zM27.765 16.781l-11.052 10.93c-0.393 0.389-1.034 0.389-1.425 0l-11.053-10.93c-2.95-2.917-2.95-7.662 0-10.579 2.844-2.812 7.416-2.911 10.409-0.222l1.356 1.219 1.356-1.219c2.993-2.689 7.567-2.59 10.409 0.222 2.951 2.917 2.951 7.662 0 10.579zM9.252 7.026c-0.002 0-0.002 0.001-0.004 0.001-2.345 0.002-4.246 1.901-4.246 4.244 0 0.276 0.223 0.5 0.5 0.5 0.276 0 0.5-0.224 0.5-0.5v-0.001c0-1.792 1.455-3.245 3.249-3.245h0.001c0.276 0 0.5-0.223 0.5-0.499s-0.224-0.5-0.5-0.5z"></path>
</svg>
