<?xml version="1.0" encoding="utf-8"?>
<!-- Generated by IcoMoon.io -->
<!DOCTYPE svg PUBLIC "-//W3C//DTD SVG 1.1//EN" "http://www.w3.org/Graphics/SVG/1.1/DTD/svg11.dtd">
<svg version="1.1" xmlns="http://www.w3.org/2000/svg" xmlns:xlink="http://www.w3.org/1999/xlink" width="32" height="32" viewBox="0 0 32 32">
<path d="M21.91 0.246c-5.438 0-9.846 4.409-9.846 9.846 0 1.265 0.265 2.463 0.702 3.573l-11.962 11.962c-0.345 0.346-0.559 0.675-0.559 1.203v2.954c0 1.055 0.915 1.969 1.969 1.969h2.954c0.528 0 0.862-0.211 1.207-0.555l1.413-1.414h2.307c1.087 0 1.969-0.882 1.969-1.969v-1.969h1.969c1.087 0 1.969-0.881 1.969-1.969v-2.308l2.334-2.334c1.111 0.438 2.308 0.703 3.574 0.703 5.437 0 9.846-4.408 9.846-9.846s-4.409-9.846-9.846-9.846zM21.91 17.969c-1.458 0-2.807-0.423-3.978-1.115l-3.322 3.322c-0.369 0.369-0.577 0.87-0.577 1.392v2.308h-1.969c-1.088 0-1.969 0.882-1.969 1.969v1.969h-2.307c-0.522 0-1.023 0.208-1.392 0.577l-1.396 1.396-2.782-0.004-0.003-2.805 11.486-11.465c0 0 0 0.001 0.001 0.002l1.446-1.446c-0.691-1.171-1.115-2.521-1.115-3.978 0-4.35 3.527-7.877 7.877-7.877s7.877 3.527 7.877 7.877c0 4.35-3.527 7.877-7.877 7.877zM27.637 8.358c-1.105-1.537-2.449-2.879-3.992-3.991-0.253-0.182-0.577-0.228-0.87-0.125-1.368 0.481-2.303 1.417-2.783 2.784-0.036 0.101-0.054 0.209-0.054 0.314 0 0.196 0.062 0.391 0.179 0.555 1.108 1.54 2.451 2.882 3.99 3.99 0.252 0.181 0.576 0.228 0.868 0.126 1.369-0.479 2.305-1.415 2.785-2.784 0.036-0.101 0.054-0.209 0.054-0.314 0-0.196-0.061-0.391-0.178-0.555zM24.682 11.088c-1.454-1.048-2.721-2.315-3.761-3.735 0.381-1.086 1.094-1.799 2.149-2.187 1.455 1.050 2.721 2.313 3.756 3.752-0.384 1.077-1.095 1.786-2.145 2.169z"></path>
</svg>
