<?xml version="1.0" encoding="utf-8"?>
<!-- Generated by IcoMoon.io -->
<!DOCTYPE svg PUBLIC "-//W3C//DTD SVG 1.1//EN" "http://www.w3.org/Graphics/SVG/1.1/DTD/svg11.dtd">
<svg version="1.1" xmlns="http://www.w3.org/2000/svg" xmlns:xlink="http://www.w3.org/1999/xlink" width="32" height="32" viewBox="0 0 32 32">
<path d="M20.77 3.827c-0.468-0.468-1.091-0.726-1.754-0.726s-1.285 0.258-1.754 0.727l-1.401 1.402c-0.469 0.467-0.727 1.090-0.728 1.754 0 0.467 0.128 0.915 0.368 1.304l-13.471 5.396c-0.901 0.396-1.547 1.209-1.729 2.173-0.183 0.968 0.124 1.963 0.828 2.665l12.622 12.482c0.544 0.544 1.266 0.852 2.029 0.87 0.017 0.001 0.059 0.001 0.076 0.001 0.2 0 0.403-0.020 0.605-0.063 0.985-0.204 1.794-0.885 2.16-1.814l5.3-13.272c0.401 0.263 0.868 0.405 1.358 0.405 0.663 0 1.287-0.259 1.753-0.728l1.397-1.396c0.472-0.47 0.733-1.093 0.733-1.759s-0.261-1.29-0.727-1.754zM16.777 29.263c-0.122 0.312-0.394 0.54-0.72 0.607-0.075 0.016-0.152 0.023-0.227 0.021-0.252-0.006-0.494-0.107-0.677-0.29l-12.629-12.49c-0.232-0.231-0.334-0.563-0.273-0.886 0.061-0.322 0.277-0.592 0.577-0.724l6.169-2.471c4.158 1.381 8.315 0.051 12.473 4.487zM27.031 13.599l-1.402 1.402c-0.194 0.195-0.508 0.195-0.702 0l-1.753-1.752-1.303 3.26c-2.987-2.982-6.023-3.358-8.761-3.694-0.88-0.108-1.732-0.221-2.572-0.402l8.426-3.376-1.702-1.701c-0.194-0.194-0.194-0.508 0-0.702l1.403-1.404c0.194-0.194 0.507-0.194 0.702 0l7.664 7.666c0.195 0.194 0.195 0.508 0 0.702zM21.871 16.509c0 0 0 0 0 0l-0.12 0.3zM16.62 20.961c1.367 0 2.481-1.112 2.481-2.481s-1.113-2.481-2.481-2.481c-1.367 0-2.481 1.112-2.481 2.481s1.113 2.481 2.481 2.481zM16.62 16.992c0.823 0 1.488 0.667 1.488 1.488s-0.666 1.488-1.488 1.488c-0.823 0-1.488-0.667-1.488-1.488s0.666-1.488 1.488-1.488zM29.519 0.124c-1.367 0-2.481 1.112-2.481 2.481s1.113 2.481 2.481 2.481c1.367 0 2.481-1.112 2.481-2.481s-1.113-2.481-2.481-2.481zM29.519 4.093c-0.823 0-1.488-0.667-1.488-1.488s0.666-1.488 1.488-1.488c0.823 0 1.488 0.667 1.488 1.488s-0.666 1.488-1.488 1.488zM8.186 16.992c0 1.094 0.89 1.985 1.985 1.985s1.985-0.89 1.985-1.985c0-1.093-0.89-1.985-1.985-1.985s-1.985 0.891-1.985 1.985zM10.171 16c0.548 0 0.992 0.444 0.992 0.992s-0.445 0.992-0.992 0.992c-0.548 0-0.992-0.444-0.992-0.992s0.445-0.992 0.992-0.992zM13.147 23.938c0.548 0 0.992-0.444 0.992-0.992s-0.445-0.992-0.992-0.992c-0.548 0-0.992 0.444-0.992 0.992s0.445 0.992 0.992 0.992zM29.023 7.070c-0.548 0-0.992 0.444-0.992 0.992s0.445 0.992 0.992 0.992c0.548 0 0.992-0.444 0.992-0.992s-0.445-0.992-0.992-0.992z"></path>
</svg>
