<?xml version="1.0" encoding="utf-8"?>
<!-- Generated by IcoMoon.io -->
<!DOCTYPE svg PUBLIC "-//W3C//DTD SVG 1.1//EN" "http://www.w3.org/Graphics/SVG/1.1/DTD/svg11.dtd">
<svg version="1.1" xmlns="http://www.w3.org/2000/svg" xmlns:xlink="http://www.w3.org/1999/xlink" width="32" height="32" viewBox="0 0 32 32">
<path d="M29.164 10.471c-1.249-0.328-4.189-0.324-8.488-0.437 0.204-0.939 0.25-1.784 0.25-3.286 0-3.588-2.613-6.748-4.926-6.748-1.633 0-2.979 1.335-3 2.976-0.022 2.014-0.644 5.493-4 7.256-0.246 0.13-0.95 0.477-1.053 0.523l0.006 0.005c-0.521-0.434-1.228-0.76-1.953-0.76h-3c-1.654 0-3 1.345-3 3v16c0 1.655 1.346 3 3 3h3c1.19 0 2.186-0.718 2.668-1.726 0.012 0.004 0.033 0.009 0.047 0.011 0.066 0.018 0.143 0.038 0.239 0.063 0.018 0.004 0.027 0.006 0.046 0.012 0.576 0.142 1.685 0.408 4.055 0.953 0.508 0.115 3.191 0.687 5.973 0.687h5.466c1.667 0 2.867-0.64 3.582-1.927 0.011-0.020 0.241-0.469 0.429-1.077 0.141-0.457 0.193-1.103 0.023-1.759 1.074-0.739 1.419-1.854 1.645-2.58 0.376-1.192 0.263-2.086 0.001-2.727 0.603-0.57 1.119-1.44 1.337-2.766 0.134-0.822-0.010-1.668-0.39-2.372 0.567-0.636 0.825-1.436 0.854-2.176l0.011-0.209c0.008-0.132 0.014-0.213 0.014-0.501 0-1.264-0.874-2.874-2.836-3.435zM7 29c0 0.553-0.447 1-1 1h-3c-0.553 0-1-0.447-1-1v-16c0-0.553 0.447-1 1-1h3c0.553 0 1 0.447 1 1zM29.978 14.535c-0.021 0.494-0.228 1.465-1.978 1.465-1.5 0-2 0-2 0-0.276 0-0.5 0.223-0.5 0.5 0 0.276 0.224 0.5 0.5 0.5 0 0 0.438 0 1.938 0s1.697 1.244 1.599 1.844c-0.122 0.746-0.472 2.156-2.161 2.156-1.688 0-2.376 0-2.376 0-0.276 0-0.5 0.223-0.5 0.5 0 0.276 0.224 0.5 0.5 0.5 0 0 1.188 0 1.969 0 1.687 0 1.54 1.287 1.297 2.055-0.319 1.010-0.514 1.945-2.64 1.945-0.72 0-1.632 0-1.632 0-0.276 0-0.5 0.223-0.5 0.5 0 0.276 0.224 0.5 0.5 0.5 0 0 0.694 0 1.569 0 1.093 0 1.145 1.035 1.031 1.407-0.125 0.406-0.273 0.707-0.28 0.72-0.302 0.545-0.789 0.873-1.82 0.873h-5.466c-2.747 0-5.47-0.623-5.541-0.638-4.154-0.957-4.373-1.032-4.633-1.106 0 0-0.846-0.142-0.846-0.881l-0.008-13.812c0-0.469 0.299-0.892 0.794-1.042 0.062-0.024 0.146-0.050 0.206-0.075 4.568-1.892 5.959-6.040 6-9.446 0.006-0.479 0.375-1 1-1 1.058 0 2.926 2.122 2.926 4.748 0 2.371-0.095 2.781-0.926 5.252 10 0 9.93 0.143 10.813 0.375 1.093 0.312 1.187 1.219 1.187 1.531 0 0.343-0.010 0.293-0.022 0.629zM4.5 26c-0.828 0-1.5 0.672-1.5 1.5s0.672 1.5 1.5 1.5c0.828 0 1.5-0.672 1.5-1.5s-0.672-1.5-1.5-1.5zM4.5 28c-0.275 0-0.5-0.224-0.5-0.5 0-0.275 0.225-0.5 0.5-0.5s0.5 0.225 0.5 0.5c0 0.276-0.225 0.5-0.5 0.5z"></path>
</svg>
