<?xml version="1.0" encoding="utf-8"?>
<!-- Generated by IcoMoon.io -->
<!DOCTYPE svg PUBLIC "-//W3C//DTD SVG 1.1//EN" "http://www.w3.org/Graphics/SVG/1.1/DTD/svg11.dtd">
<svg version="1.1" xmlns="http://www.w3.org/2000/svg" xmlns:xlink="http://www.w3.org/1999/xlink" width="32" height="32" viewBox="0 0 32 32">
<path d="M16.001 17.746c3.308 0 6-2.691 6-6 0-3.308-2.692-6-6-6s-6 2.692-6 6c0 3.309 2.691 6 6 6zM16.001 6.746c2.758 0 5 2.242 5 5s-2.242 5-5 5c-2.758 0-5-2.242-5-5s2.242-5 5-5zM16 0c-6.618 0-12.001 5.316-12.001 12.002 0 7.001 6.001 14.161 10.376 19.193 0.017 0.020 0.719 0.805 1.587 0.805 0.002 0 0.073 0 0.076 0 0.868 0 1.57-0.785 1.587-0.805 4.376-5.032 10.376-12.192 10.376-19.193 0-6.686-5.383-12.002-12.001-12.002zM16.116 29.883c-0.020 0.019-0.082 0.065-0.135 0.099-0.010-0.029-0.084-0.087-0.129-0.134-3.665-4.217-9.854-11.333-9.854-17.846 0-5.515 4.487-10.002 10.001-10.002s10.001 4.487 10.001 10.002c0 6.513-6.188 13.629-9.885 17.881z"></path>
</svg>
