<?xml version="1.0" encoding="utf-8"?>
<!-- Generated by IcoMoon.io -->
<!DOCTYPE svg PUBLIC "-//W3C//DTD SVG 1.1//EN" "http://www.w3.org/Graphics/SVG/1.1/DTD/svg11.dtd">
<svg version="1.1" xmlns="http://www.w3.org/2000/svg" xmlns:xlink="http://www.w3.org/1999/xlink" width="32" height="32" viewBox="0 0 32 32">
<path d="M25 13v-4c0-4.971-4.029-9-9-9s-9 4.029-9 9v4c-1.657 0-3 1.343-3 3v7c0 4.971 4.029 9 9 9h6c4.971 0 9-4.029 9-9v-7c0-1.657-1.343-3-3-3zM9 9c0-3.866 3.134-7 7-7s7 3.134 7 7v4h-2v-3.997c0-2.762-2.238-5-5-5s-5 2.238-5 5v3.997h-2zM20 9v4h-8v-4c0-2.209 1.791-4 4-4s4 1.791 4 4zM26 23c0 3.859-3.141 7-7 7h-6c-3.859 0-7-3.141-7-7v-7c0-0.552 0.448-1 1-1 0.667 0 1.333 0 2 0h14c0.667 0 1.333 0 2 0 0.552 0 1 0.448 1 1zM16 19c-1.104 0-2 0.896-2 2 0 0.608 0.333 1.76 0.667 2.672 0.273 0.742 0.614 1.327 1.333 1.327 0.781 0 1.061-0.579 1.334-1.317 0.338-0.914 0.666-2.072 0.666-2.682 0-1.104-0.895-2-2-2z"></path>
</svg>
