<?xml version="1.0" encoding="utf-8"?>
<!-- Generated by IcoMoon.io -->
<!DOCTYPE svg PUBLIC "-//W3C//DTD SVG 1.1//EN" "http://www.w3.org/Graphics/SVG/1.1/DTD/svg11.dtd">
<svg version="1.1" xmlns="http://www.w3.org/2000/svg" xmlns:xlink="http://www.w3.org/1999/xlink" width="32" height="32" viewBox="0 0 32 32">
<path d="M28 5.5h-24c-2.209 0-4 1.791-4 4v13c0 2.209 1.791 4 4 4h24c2.209 0 4-1.791 4-4v-13c0-2.209-1.791-4-4-4zM2 10.75l6.999 5.25-6.999 5.25zM28 24.5h-24c-1.103 0-2-0.897-2-2l7.832-5.875 4.368 3.277c0.533 0.399 1.166 0.6 1.8 0.6s1.267-0.201 1.8-0.6l4.368-3.277 7.832 5.875c0 1.103-0.897 2-2 2zM30 21.25l-6.999-5.25 6.999-5.25zM17.2 19.101c-0.349 0.262-0.764 0.401-1.2 0.401s-0.851-0.139-1.2-0.401l-12.8-9.601c0-1.102 0.897-2 2-2h24c1.103 0 2 0.898 2 2z"></path>
</svg>
