<?xml version="1.0" encoding="utf-8"?>
<!-- Generated by IcoMoon.io -->
<!DOCTYPE svg PUBLIC "-//W3C//DTD SVG 1.1//EN" "http://www.w3.org/Graphics/SVG/1.1/DTD/svg11.dtd">
<svg version="1.1" xmlns="http://www.w3.org/2000/svg" xmlns:xlink="http://www.w3.org/1999/xlink" width="32" height="32" viewBox="0 0 32 32">
<path d="M25 0c-2.053 0-3.665 1.41-4.824 3.586l-0.022-0.012c-1.681 3.293-4.185 5.426-6.928 5.426h-9.226c-2.243 0-4 2.197-4 5 0 2.805 1.757 5 4 5 1.103 0.004 1.995 0.897 1.995 2v9c0 1.106 0.896 2 2 2h4c1.105 0 2-0.894 2-2v-1c0-1-1-1.447-1-2v-7c0-0.023 0.016-0.039 0.018-0.062 0.010-0.143 0.049-0.276 0.112-0.395 0.018-0.033 0.037-0.059 0.059-0.088 0.080-0.119 0.18-0.217 0.303-0.293 0.006-0.004 0.008-0.010 0.014-0.014 0.004 0 0.007-0.003 0.011-0.003 0.080-0.045 0.176-0.055 0.265-0.080 2.525 0.267 4.81 2.304 6.377 5.373l0.027-0.012c1.159 2.168 2.769 3.574 4.819 3.574 4.596 0 7-7.043 7-14s-2.404-14-7-14zM20 14c0-1.037 0.060-2.039 0.164-3h2.836c1.105 0 2 1.344 2 3 0 1.658-0.895 3-2 3h-2.836c-0.104-0.961-0.164-1.961-0.164-3zM2 14c0-1.656 0.896-3 2-3h7.014c-0.62 0.729-1.014 1.787-1.014 3 0 1.215 0.394 2.273 1.014 3h-7.014c-1.104 0-2-1.342-2-3zM11.995 30h-4v-9c0-0.728-0.195-1.41-0.537-2h0.698v0.012h3.008c-0.107 0.31-0.169 0.64-0.169 0.988v7c0 0.963 0.538 1.604 0.86 1.986 0.043 0.053 0.095 0.108 0.14 0.166zM13.226 17.012h-0.226v-0.012c-1.104 0-2-1.342-2-3 0-1.656 0.896-3 2-3h0.226c1.885 0 3.652-0.742 5.206-2.018-0.285 1.61-0.432 3.315-0.432 5.018 0 1.709 0.147 3.42 0.434 5.031-1.554-1.277-3.322-2.019-5.208-2.019zM25 26c-2.018 0-3.75-2.871-4.541-7h2.541c2.243 0 4-2.195 4-5 0-2.803-1.757-5-4-5h-2.541c0.791-4.127 2.523-7 4.541-7 2.762 0 5 5.373 5 12s-2.238 12-5 12z"></path>
</svg>
