<?xml version="1.0" encoding="utf-8"?>
<!-- Generated by IcoMoon.io -->
<!DOCTYPE svg PUBLIC "-//W3C//DTD SVG 1.1//EN" "http://www.w3.org/Graphics/SVG/1.1/DTD/svg11.dtd">
<svg version="1.1" xmlns="http://www.w3.org/2000/svg" xmlns:xlink="http://www.w3.org/1999/xlink" width="32" height="32" viewBox="0 0 32 32">
<path d="M31.291 0.589c-0.359-0.303-0.812-0.465-1.275-0.465-0.114 0-0.23 0.010-0.344 0.031l-16.87 2.977c-0.949 0.167-1.64 0.99-1.64 1.954v17.037c-1.006-0.73-2.313-1.161-3.765-1.161-0.842 0-1.687 0.14-2.509 0.413-1.882 0.628-3.393 1.887-4.143 3.457-0.579 1.214-0.654 2.533-0.212 3.718 0.755 2.021 2.9 3.327 5.465 3.327 0.843 0 1.687-0.138 2.508-0.413 1.883-0.626 3.393-1.885 4.143-3.453 0.322-0.677 0.473-1.386 0.48-2.088h0.017v-15.876c0.115 0 0.231-0.010 0.345-0.029l16.525-2.917v12.045c-1.006-0.73-2.313-1.161-3.766-1.161-0.842 0-1.687 0.14-2.509 0.413-1.882 0.628-3.393 1.887-4.142 3.457-0.579 1.214-0.654 2.533-0.212 3.718 0.755 2.021 2.899 3.327 5.464 3.327 0.843 0 1.688-0.138 2.509-0.413 1.883-0.626 3.393-1.885 4.143-3.453 0.322-0.677 0.473-1.386 0.48-2.088h0.017v-20.837c0-0.585-0.259-1.143-0.709-1.519zM7.876 29.582c-2.378 0.792-4.835 0.017-5.487-1.727-0.653-1.745 0.745-3.804 3.123-4.596 2.377-0.793 4.835-0.020 5.486 1.727 0.653 1.746-0.744 3.804-3.122 4.597zM26.694 26.605c-2.379 0.792-4.836 0.017-5.488-1.727-0.653-1.745 0.745-3.804 3.123-4.596 2.378-0.793 4.836-0.020 5.487 1.727 0.653 1.746-0.744 3.804-3.122 4.597zM29.976 5.085l-16.87 2.977v-2.977l16.87-2.977z"></path>
</svg>
