<?xml version="1.0" encoding="utf-8"?>
<!-- Generated by IcoMoon.io -->
<!DOCTYPE svg PUBLIC "-//W3C//DTD SVG 1.1//EN" "http://www.w3.org/Graphics/SVG/1.1/DTD/svg11.dtd">
<svg version="1.1" xmlns="http://www.w3.org/2000/svg" xmlns:xlink="http://www.w3.org/1999/xlink" width="32" height="32" viewBox="0 0 32 32">
<path d="M29 0h-22c-1.657 0-3 1.343-3 3v2h-1c-1.657 0-3 1.343-3 3v20c0 2.209 1.791 4 4 4h24c2.209 0 4-1.791 4-4v-25c0-1.657-1.343-3-3-3zM30 28c0 1.102-0.898 2-2 2h-24c-1.103 0-2-0.898-2-2v-20c0-0.552 0.448-1 1-1h1v20c0 0.553 0.447 1 1 1s1-0.447 1-1v-24c0-0.552 0.448-1 1-1h22c0.552 0 1 0.448 1 1zM19.499 13.006h8c0.276 0 0.5-0.224 0.5-0.5s-0.224-0.5-0.5-0.5h-8c-0.276 0-0.5 0.223-0.5 0.5s0.224 0.5 0.5 0.5zM19.499 10.006h8c0.276 0 0.5-0.224 0.5-0.5s-0.224-0.5-0.5-0.5h-8c-0.276 0-0.5 0.223-0.5 0.5s0.224 0.5 0.5 0.5zM19.499 7.006h8c0.276 0 0.5-0.224 0.5-0.5 0-0.277-0.224-0.5-0.5-0.5h-8c-0.276 0-0.5 0.223-0.5 0.5 0 0.276 0.224 0.5 0.5 0.5zM16.5 27.004h-8c-0.276 0-0.5 0.225-0.5 0.5 0 0.278 0.224 0.5 0.5 0.5h8c0.276 0 0.5-0.222 0.5-0.5 0-0.275-0.224-0.5-0.5-0.5zM16.5 24.004h-8c-0.276 0-0.5 0.225-0.5 0.5 0 0.278 0.224 0.5 0.5 0.5h8c0.276 0 0.5-0.222 0.5-0.5 0-0.275-0.224-0.5-0.5-0.5zM16.5 21.004h-8c-0.276 0-0.5 0.225-0.5 0.5 0 0.278 0.224 0.5 0.5 0.5h8c0.276 0 0.5-0.222 0.5-0.5 0-0.275-0.224-0.5-0.5-0.5zM27.5 27.004h-8c-0.276 0-0.5 0.225-0.5 0.5 0 0.278 0.224 0.5 0.5 0.5h8c0.276 0 0.5-0.222 0.5-0.5 0-0.275-0.224-0.5-0.5-0.5zM27.5 24.004h-8c-0.276 0-0.5 0.225-0.5 0.5 0 0.278 0.224 0.5 0.5 0.5h8c0.276 0 0.5-0.222 0.5-0.5 0-0.275-0.224-0.5-0.5-0.5zM27.5 21.004h-8c-0.276 0-0.5 0.225-0.5 0.5 0 0.278 0.224 0.5 0.5 0.5h8c0.276 0 0.5-0.222 0.5-0.5 0-0.275-0.224-0.5-0.5-0.5zM27.5 15.005h-19c-0.276 0-0.5 0.223-0.5 0.5s0.224 0.5 0.5 0.5h19c0.276 0 0.5-0.224 0.5-0.5s-0.224-0.5-0.5-0.5zM27.5 18.004h-19c-0.276 0-0.5 0.225-0.5 0.5 0 0.278 0.224 0.5 0.5 0.5h19c0.276 0 0.5-0.222 0.5-0.5 0-0.275-0.224-0.5-0.5-0.5zM9 13h7c0.553 0 1-0.448 1-1v-6.995c0-0.553-0.447-1-1-1h-7c-0.553 0-1 0.447-1 1v6.995c0 0.552 0.447 1 1 1zM10 6h5v5h-5z"></path>
</svg>
