<?xml version="1.0" encoding="utf-8"?>
<!-- Generated by IcoMoon.io -->
<!DOCTYPE svg PUBLIC "-//W3C//DTD SVG 1.1//EN" "http://www.w3.org/Graphics/SVG/1.1/DTD/svg11.dtd">
<svg version="1.1" xmlns="http://www.w3.org/2000/svg" xmlns:xlink="http://www.w3.org/1999/xlink" width="32" height="32" viewBox="0 0 32 32">
<path d="M31.414 7.586l-6-6c-0.375-0.375-0.884-0.586-1.414-0.586h-21c-1.654 0-3 1.345-3 3v24c0 1.655 1.346 3 3 3h26c1.654 0 3-1.345 3-3v-19c0-0.531-0.211-1.039-0.586-1.414zM30 28c0 0.553-0.447 1-1 1h-26c-0.553 0-1-0.447-1-1v-24c0-0.553 0.447-1 1-1h20v4h-0.001c0 1.657 1.343 3 3 3h4.001zM25.999 9c-1.102 0-2-0.898-2-2h0.001v-4l6 6zM15.5 8h5c0.276 0 0.5-0.224 0.5-0.5 0-0.277-0.224-0.5-0.5-0.5h-5c-0.276 0-0.5 0.223-0.5 0.5 0 0.276 0.224 0.5 0.5 0.5zM15.5 11h5c0.276 0 0.5-0.224 0.5-0.5s-0.224-0.5-0.5-0.5h-5c-0.276 0-0.5 0.223-0.5 0.5s0.224 0.5 0.5 0.5zM15 13.5c0 0.276 0.224 0.5 0.5 0.5h12c0.276 0 0.5-0.224 0.5-0.5s-0.224-0.5-0.5-0.5h-12c-0.276 0-0.5 0.223-0.5 0.5zM27.5 19h-23c-0.276 0-0.5 0.223-0.5 0.5 0 0.276 0.224 0.5 0.5 0.5h23c0.276 0 0.5-0.224 0.5-0.5 0-0.277-0.224-0.5-0.5-0.5zM27.5 22h-23c-0.276 0-0.5 0.223-0.5 0.5 0 0.276 0.224 0.5 0.5 0.5h23c0.276 0 0.5-0.224 0.5-0.5 0-0.277-0.224-0.5-0.5-0.5zM27.5 25h-23c-0.276 0-0.5 0.223-0.5 0.5 0 0.276 0.224 0.5 0.5 0.5h23c0.276 0 0.5-0.224 0.5-0.5 0-0.277-0.224-0.5-0.5-0.5zM27.5 16h-23c-0.276 0-0.5 0.223-0.5 0.5 0 0.276 0.224 0.5 0.5 0.5h23c0.276 0 0.5-0.224 0.5-0.5 0-0.277-0.224-0.5-0.5-0.5zM5 14h7c0.553 0 1-0.448 1-1v-6c0-0.553-0.447-1-1-1h-7c-0.553 0-1 0.447-1 1v6c0 0.552 0.447 1 1 1zM6 8h5v4h-5z"></path>
</svg>
