<?xml version="1.0" encoding="utf-8"?>
<!-- Generated by IcoMoon.io -->
<!DOCTYPE svg PUBLIC "-//W3C//DTD SVG 1.1//EN" "http://www.w3.org/Graphics/SVG/1.1/DTD/svg11.dtd">
<svg version="1.1" xmlns="http://www.w3.org/2000/svg" xmlns:xlink="http://www.w3.org/1999/xlink" width="32" height="32" viewBox="0 0 32 32">
<path d="M31.543 0.16c-0.165-0.107-0.355-0.16-0.543-0.16-0.193 0-0.387 0.055-0.555 0.168l-30 20c-0.309 0.205-0.478 0.566-0.439 0.936 0.038 0.369 0.278 0.687 0.623 0.824l7.824 3.131 3.679 6.437c0.176 0.309 0.503 0.5 0.857 0.504 0.004 0 0.007 0 0.011 0 0.351 0 0.677-0.185 0.857-0.486l2.077-3.463 9.694 3.877c0.119 0.049 0.245 0.072 0.371 0.072 0.17 0 0.339-0.043 0.49-0.129 0.264-0.148 0.446-0.408 0.496-0.707l5-30c0.065-0.392-0.108-0.787-0.443-1.004zM3.136 20.777l23.175-15.451-16.85 18.037c-0.089-0.052-0.168-0.123-0.266-0.162zM10.189 24.066c-0.002-0.003-0.005-0.005-0.007-0.009l18.942-20.276-16.148 25.162zM25.218 29.609l-8.541-3.416c-0.204-0.080-0.415-0.107-0.624-0.119l13.152-20.389z"></path>
</svg>
