<?xml version="1.0" encoding="utf-8"?>
<!-- Generated by IcoMoon.io -->
<!DOCTYPE svg PUBLIC "-//W3C//DTD SVG 1.1//EN" "http://www.w3.org/Graphics/SVG/1.1/DTD/svg11.dtd">
<svg version="1.1" xmlns="http://www.w3.org/2000/svg" xmlns:xlink="http://www.w3.org/1999/xlink" width="32" height="32" viewBox="0 0 32 32">
<path d="M8 6.022v-3.022c0-1.654-1.346-3-3-3s-3 1.346-3 3v3.022c-1.208 0.913-2 2.347-2 3.978s0.792 3.065 2 3.977v15.023c0 1.654 1.346 3 3 3s3-1.346 3-3v-15.023c1.208-0.912 2-2.346 2-3.977s-0.792-3.065-2-3.978zM4 3c0-0.553 0.447-1 1-1s1 0.447 1 1v2.1c-0.323-0.065-0.657-0.1-1-0.1s-0.677 0.035-1 0.1zM6 29c0 0.553-0.447 1-1 1s-1-0.447-1-1v-14.102c0.323 0.067 0.657 0.102 1 0.102s0.677-0.035 1-0.102zM7.865 10.84c-0.015 0.053-0.030 0.105-0.049 0.158-0.094 0.264-0.216 0.514-0.377 0.736-0.004 0.006-0.010 0.010-0.014 0.016-0.174 0.238-0.381 0.449-0.616 0.627-0.004 0.004-0.007 0.006-0.010 0.008-0.241 0.181-0.51 0.328-0.799 0.43-0.314 0.113-0.648 0.185-1 0.185s-0.686-0.072-1-0.185c-0.289-0.102-0.558-0.249-0.799-0.43-0.003-0.002-0.006-0.004-0.010-0.008-0.235-0.178-0.442-0.389-0.616-0.627-0.004-0.006-0.010-0.010-0.014-0.016-0.161-0.222-0.283-0.472-0.378-0.736-0.019-0.053-0.033-0.105-0.049-0.158-0.080-0.268-0.135-0.547-0.135-0.84 0-0.295 0.055-0.574 0.135-0.842 0.016-0.052 0.030-0.105 0.049-0.156 0.095-0.264 0.217-0.514 0.378-0.738 0.004-0.006 0.010-0.010 0.014-0.016 0.174-0.236 0.381-0.449 0.616-0.627 0.004-0.002 0.007-0.006 0.010-0.008 0.241-0.179 0.51-0.326 0.799-0.429 0.314-0.112 0.647-0.184 1-0.184s0.686 0.072 1 0.184c0.289 0.103 0.558 0.25 0.799 0.429 0.003 0.002 0.006 0.006 0.010 0.008 0.235 0.178 0.442 0.391 0.616 0.627 0.004 0.006 0.010 0.010 0.014 0.016 0.161 0.224 0.283 0.474 0.377 0.738 0.019 0.051 0.034 0.104 0.049 0.156 0.080 0.268 0.135 0.547 0.135 0.842 0 0.293-0.055 0.572-0.135 0.84zM30 6.022v-3.022c0-1.654-1.346-3-3-3s-3 1.346-3 3v3.022c-1.208 0.913-2 2.347-2 3.978s0.792 3.065 2 3.977v15.023c0 1.654 1.346 3 3 3s3-1.346 3-3v-15.023c1.208-0.912 2-2.346 2-3.977s-0.792-3.065-2-3.978zM26 3c0-0.553 0.447-1 1-1s1 0.447 1 1v2.1c-0.323-0.065-0.657-0.1-1-0.1s-0.677 0.035-1 0.1zM28 29c0 0.553-0.447 1-1 1s-1-0.447-1-1v-14.102c0.323 0.067 0.657 0.102 1 0.102s0.677-0.035 1-0.102zM29.865 10.84c-0.015 0.053-0.030 0.105-0.049 0.158-0.094 0.264-0.216 0.514-0.377 0.736-0.004 0.006-0.010 0.010-0.014 0.016-0.174 0.238-0.381 0.449-0.616 0.627-0.004 0.004-0.007 0.006-0.010 0.008-0.241 0.181-0.51 0.328-0.799 0.43-0.314 0.113-0.647 0.185-1 0.185-0.352 0-0.685-0.072-1-0.185-0.289-0.102-0.558-0.249-0.799-0.43-0.003-0.002-0.006-0.004-0.010-0.008-0.235-0.178-0.442-0.389-0.616-0.627-0.004-0.006-0.010-0.010-0.013-0.016-0.162-0.222-0.284-0.472-0.378-0.736-0.019-0.053-0.034-0.105-0.049-0.158-0.080-0.268-0.135-0.547-0.135-0.84 0-0.295 0.055-0.574 0.135-0.842 0.015-0.052 0.030-0.105 0.049-0.156 0.094-0.264 0.216-0.514 0.378-0.738 0.003-0.006 0.009-0.010 0.013-0.016 0.174-0.236 0.381-0.449 0.616-0.627 0.004-0.002 0.007-0.006 0.010-0.008 0.241-0.179 0.51-0.326 0.799-0.429 0.315-0.112 0.648-0.184 1-0.184 0.353 0 0.686 0.072 1 0.184 0.289 0.103 0.558 0.25 0.799 0.429 0.003 0.002 0.006 0.006 0.010 0.008 0.235 0.178 0.442 0.391 0.616 0.627 0.004 0.006 0.010 0.010 0.014 0.016 0.161 0.224 0.283 0.474 0.377 0.738 0.019 0.051 0.034 0.104 0.049 0.156 0.080 0.268 0.135 0.547 0.135 0.842 0 0.293-0.055 0.572-0.135 0.84zM19 18.022v-15.022c0-1.654-1.346-3-3-3s-3 1.346-3 3v15.022c-1.208 0.914-2 2.347-2 3.978s0.792 3.065 2 3.977v3.023c0 1.654 1.346 3 3 3s3-1.346 3-3v-3.023c1.208-0.912 2-2.346 2-3.977s-0.792-3.064-2-3.978zM15 3c0-0.553 0.447-1 1-1s1 0.447 1 1v14.1c-0.323-0.065-0.657-0.1-1-0.1s-0.677 0.035-1 0.1zM17 29c0 0.553-0.447 1-1 1s-1-0.447-1-1v-2.102c0.323 0.067 0.657 0.102 1 0.102s0.677-0.035 1-0.102zM18.865 22.84c-0.015 0.053-0.030 0.105-0.049 0.158-0.094 0.264-0.216 0.514-0.377 0.736-0.004 0.006-0.010 0.010-0.014 0.016-0.174 0.238-0.381 0.449-0.616 0.627-0.004 0.004-0.007 0.006-0.010 0.008-0.241 0.181-0.51 0.328-0.799 0.43-0.314 0.113-0.647 0.185-1 0.185-0.352 0-0.685-0.072-1-0.185-0.289-0.102-0.558-0.249-0.799-0.43-0.003-0.002-0.006-0.004-0.010-0.008-0.235-0.178-0.442-0.389-0.616-0.627-0.004-0.006-0.010-0.010-0.013-0.016-0.162-0.222-0.284-0.472-0.378-0.736-0.019-0.053-0.034-0.105-0.049-0.158-0.080-0.268-0.135-0.547-0.135-0.84 0-0.295 0.055-0.574 0.135-0.842 0.015-0.052 0.030-0.105 0.049-0.156 0.094-0.264 0.216-0.514 0.378-0.738 0.003-0.006 0.009-0.010 0.013-0.016 0.174-0.236 0.381-0.449 0.616-0.627 0.004-0.002 0.007-0.006 0.010-0.008 0.241-0.179 0.51-0.326 0.799-0.429 0.315-0.112 0.648-0.184 1-0.184 0.353 0 0.686 0.072 1 0.184 0.289 0.103 0.558 0.25 0.799 0.429 0.003 0.002 0.006 0.006 0.010 0.008 0.235 0.178 0.442 0.391 0.616 0.627 0.004 0.006 0.010 0.010 0.014 0.016 0.161 0.224 0.283 0.474 0.377 0.738 0.019 0.051 0.034 0.104 0.049 0.156 0.080 0.268 0.135 0.547 0.135 0.842 0 0.293-0.055 0.572-0.135 0.84z"></path>
</svg>
