<?xml version="1.0" encoding="utf-8"?>
<!-- Generated by IcoMoon.io -->
<!DOCTYPE svg PUBLIC "-//W3C//DTD SVG 1.1//EN" "http://www.w3.org/Graphics/SVG/1.1/DTD/svg11.dtd">
<svg version="1.1" xmlns="http://www.w3.org/2000/svg" xmlns:xlink="http://www.w3.org/1999/xlink" width="32" height="32" viewBox="0 0 32 32">
<path d="M29.396 2.58c-1.646-1.642-3.811-2.58-5.947-2.58-1.8 0-3.459 0.668-4.669 1.877l-4.867 4.904c-0.015 0.014-0.032 0.024-0.047 0.038-0.008 0.008-0.012 0.019-0.020 0.027l0.002 0.002-10.33 10.408c-0.476 0.473-0.822 1.062-1.013 1.705l-2.349 8.508c-0.003 0.023-0.156 0.692-0.156 1.031 0 1.933 1.569 3.5 3.505 3.5 0.385 0 1.13-0.184 1.157-0.187l8.478-2.229c0.643-0.191 1.229-0.539 1.705-1.016l15.262-15.382c2.777-2.78 2.464-7.436-0.711-10.606zM16.015 23.796c-0.082-0.903-0.337-1.788-0.719-2.628l9.454-9.453c0.578 1.826 0.282 3.736-0.985 5.004-0.008 0.008-0.018 0.012-0.026 0.020l0.013 0.013-7.728 7.789c0.001-0.248 0.013-0.492-0.009-0.745zM14.794 20.256c-0.373-0.613-0.797-1.204-1.322-1.729-0.612-0.611-1.313-1.088-2.044-1.492l9.532-9.531c0.747 0.332 1.465 0.805 2.098 1.437 0.54 0.54 0.959 1.143 1.28 1.771zM10.486 16.563c-0.925-0.374-1.896-0.586-2.868-0.599l7.703-7.762c1.179-1.15 2.897-1.481 4.588-1.061zM4.168 29.873c-0.109 0.025-0.448 0.111-0.679 0.127-0.822-0.009-1.489-0.678-1.489-1.5 0.012-0.167 0.079-0.456 0.102-0.563l1.052-3.814c1.143-0.031 2.373 0.414 3.34 1.383 0.983 0.981 1.445 2.235 1.394 3.391zM8.874 28.637c-0.024-1.341-0.57-2.738-1.672-3.837-1.042-1.044-2.405-1.646-3.765-1.699l0.996-3.608c0.072-0.24 0.215-0.476 0.39-0.684 2.006-1.436 5.091-1.012 7.235 1.132 2.266 2.267 2.617 5.586 0.871 7.569-0.116 0.060-0.234 0.119-0.36 0.157zM28.692 11.773l-1.684 1.697c0-0.226 0.027-0.444 0.007-0.674-0.176-1.935-1.079-3.806-2.543-5.269-1.629-1.629-3.79-2.565-5.929-2.571l1.657-1.67c0.827-0.827 1.984-1.286 3.249-1.286 1.611 0 3.263 0.728 4.533 1.995 1.194 1.192 1.906 2.671 2.006 4.168 0.094 1.398-0.366 2.679-1.296 3.61z"></path>
</svg>
