<?xml version="1.0" encoding="utf-8"?>
<!-- Generated by IcoMoon.io -->
<!DOCTYPE svg PUBLIC "-//W3C//DTD SVG 1.1//EN" "http://www.w3.org/Graphics/SVG/1.1/DTD/svg11.dtd">
<svg version="1.1" xmlns="http://www.w3.org/2000/svg" xmlns:xlink="http://www.w3.org/1999/xlink" width="32" height="32" viewBox="0 0 32 32">
<path d="M23.938 0h-15.876c-1.644 0-2.977 1.333-2.977 2.978v25.798c0 1.644 1.333 2.977 2.977 2.977l15.876-0.002c1.644 0 2.977-1.332 2.977-2.976v-25.798c0-1.645-1.333-2.977-2.977-2.977zM24.93 28.775c0 0.547-0.445 0.992-0.992 0.992l-15.876 0.001c-0.548 0-0.992-0.446-0.992-0.992v-1.988l17.86-0.001zM24.93 25.794l-17.86 0.001v-19.841l17.86-0.002zM24.93 4.961h-17.86v-1.984c0-0.548 0.445-0.992 0.992-0.992l15.876-0.002c0.548 0 0.992 0.446 0.992 0.993zM17.985 3.472c0-0.274-0.222-0.495-0.496-0.495h-2.977c-0.274 0-0.496 0.221-0.496 0.495 0 0.275 0.222 0.497 0.496 0.497h2.977c0.274 0 0.496-0.222 0.496-0.497zM16.992 28.275c0-0.275-0.222-0.496-0.496-0.496h-0.992c-0.274 0-0.496 0.221-0.496 0.496s0.222 0.496 0.496 0.496h0.992c0.274 0 0.496-0.222 0.496-0.496z"></path>
</svg>
