<?xml version="1.0" encoding="utf-8"?>
<!-- Generated by IcoMoon.io -->
<!DOCTYPE svg PUBLIC "-//W3C//DTD SVG 1.1//EN" "http://www.w3.org/Graphics/SVG/1.1/DTD/svg11.dtd">
<svg version="1.1" xmlns="http://www.w3.org/2000/svg" xmlns:xlink="http://www.w3.org/1999/xlink" width="32" height="32" viewBox="0 0 32 32">
<path d="M20 0c-6.627 0-12 5.373-12 12 0 2.026 0.507 3.933 1.395 5.607l-8.344 8.342 0.007 0.007c-0.652 0.641-1.058 1.529-1.058 2.515 0 1.949 1.58 3.529 3.529 3.529 0.986 0 1.874-0.406 2.515-1.058l-0.002-0.002 8.341-8.339c1.676 0.89 3.586 1.399 5.617 1.399 6.627 0 12-5.373 12-12s-5.373-12-12-12zM4.795 29.692c-0.322 0.333-0.768 0.543-1.266 0.543-0.974 0-1.764-0.79-1.764-1.764 0-0.498 0.21-0.944 0.543-1.266l-0.009-0.008 8.066-8.066c0.705 0.951 1.545 1.791 2.494 2.498zM20 22c-5.522 0-10-4.478-10-10s4.478-10 10-10c5.523 0 10 4.478 10 10s-4.477 10-10 10zM20 5c-3.866 0-7 3.134-7 7 0 0.276 0.224 0.5 0.5 0.5s0.5-0.224 0.5-0.5c0-3.313 2.687-6 6-6 0.276 0 0.5-0.224 0.5-0.5s-0.224-0.5-0.5-0.5z"></path>
</svg>
