<?xml version="1.0" encoding="utf-8"?>
<!-- Generated by IcoMoon.io -->
<!DOCTYPE svg PUBLIC "-//W3C//DTD SVG 1.1//EN" "http://www.w3.org/Graphics/SVG/1.1/DTD/svg11.dtd">
<svg version="1.1" xmlns="http://www.w3.org/2000/svg" xmlns:xlink="http://www.w3.org/1999/xlink" width="32" height="32" viewBox="0 0 32 32">
<path d="M30.392 12.679l-3.066-0.615c-0.154-0.443-0.335-0.873-0.536-1.289l1.735-2.603c0.53-0.793 0.424-1.85-0.25-2.524l-1.923-1.923c-0.387-0.387-0.899-0.586-1.415-0.586-0.384 0-0.771 0.11-1.109 0.336l-2.603 1.735c-0.417-0.202-0.847-0.382-1.29-0.536l-0.614-3.066c-0.186-0.935-1.007-1.608-1.961-1.608h-2.72c-0.953 0-1.775 0.673-1.961 1.608l-0.614 3.066c-0.444 0.154-0.874 0.335-1.29 0.536l-2.603-1.735c-0.339-0.226-0.725-0.336-1.108-0.336-0.517 0-1.029 0.199-1.416 0.586l-1.923 1.923c-0.674 0.674-0.78 1.731-0.25 2.524l1.735 2.603c-0.202 0.417-0.382 0.847-0.536 1.29l-3.066 0.614c-0.935 0.186-1.608 1.008-1.608 1.961v2.72c0 0.953 0.673 1.775 1.608 1.961l3.066 0.615c0.154 0.443 0.335 0.873 0.536 1.289l-1.735 2.603c-0.53 0.793-0.424 1.85 0.25 2.524l1.923 1.923c0.387 0.387 0.899 0.586 1.416 0.586 0.383 0 0.77-0.11 1.108-0.336l2.603-1.735c0.417 0.202 0.847 0.382 1.29 0.536l0.614 3.066c0.186 0.935 1.008 1.608 1.961 1.608h2.72c0.954 0 1.775-0.673 1.961-1.608l0.615-3.066c0.443-0.154 0.873-0.335 1.289-0.536l2.603 1.735c0.339 0.226 0.725 0.336 1.109 0.336 0.516 0 1.028-0.199 1.415-0.586l1.923-1.923c0.674-0.674 0.78-1.731 0.25-2.524l-1.735-2.603c0.202-0.417 0.382-0.847 0.536-1.29l3.066-0.614c0.935-0.186 1.608-1.008 1.608-1.961v-2.72c0-0.953-0.673-1.775-1.608-1.961zM26.934 17.974c-0.695 0.138-1.264 0.634-1.496 1.303-0.129 0.369-0.279 0.728-0.448 1.076-0.309 0.637-0.258 1.391 0.136 1.981l1.735 2.604-1.924 1.923-2.603-1.735c-0.334-0.223-0.721-0.336-1.109-0.336-0.297 0-0.595 0.066-0.871 0.199-0.347 0.168-0.706 0.32-1.076 0.449-0.669 0.232-1.165 0.801-1.303 1.496l-0.615 3.066h-2.72l-0.614-3.066c-0.138-0.695-0.634-1.264-1.303-1.496-0.369-0.129-0.728-0.279-1.075-0.448-0.277-0.134-0.575-0.2-0.873-0.2-0.388 0-0.775 0.113-1.109 0.336l-2.604 1.735-1.923-1.923 1.735-2.604c0.393-0.59 0.444-1.343 0.137-1.98-0.168-0.347-0.32-0.706-0.449-1.076-0.232-0.669-0.801-1.165-1.496-1.303l-3.065-0.615-0.001-2.72 3.066-0.614c0.695-0.138 1.264-0.634 1.496-1.303 0.129-0.369 0.279-0.728 0.448-1.076 0.309-0.637 0.258-1.391-0.136-1.981l-1.735-2.603 1.923-1.924 2.604 1.735c0.334 0.223 0.721 0.336 1.109 0.336 0.297 0 0.595-0.066 0.872-0.199 0.346-0.168 0.705-0.32 1.075-0.449 0.669-0.232 1.165-0.801 1.303-1.496l0.615-3.065 2.72-0.001 0.614 3.066c0.138 0.695 0.634 1.264 1.303 1.496 0.37 0.129 0.728 0.279 1.076 0.448 0.276 0.134 0.574 0.2 0.872 0.2 0.388 0 0.775-0.113 1.109-0.336l2.603-1.735 1.924 1.924-1.735 2.603c-0.393 0.59-0.444 1.343-0.137 1.98 0.168 0.347 0.32 0.705 0.449 1.076 0.232 0.669 0.801 1.165 1.496 1.303l3.065 0.615 0.001 2.72zM16 9c-3.865 0-7 3.135-7 7s3.135 7 7 7c3.865 0 7-3.135 7-7s-3.135-7-7-7zM16 22.125c-3.382 0-6.125-2.743-6.125-6.125s2.743-6.125 6.125-6.125c3.382 0 6.125 2.743 6.125 6.125s-2.743 6.125-6.125 6.125zM16 12c-2.21 0-4 1.79-4 4s1.79 4 4 4c2.21 0 4-1.79 4-4s-1.79-4-4-4zM16 19c-1.656 0-3-1.344-3-3s1.344-3 3-3c1.656 0 3 1.344 3 3s-1.344 3-3 3z"></path>
</svg>
