<?xml version="1.0" encoding="utf-8"?>
<!-- Generated by IcoMoon.io -->
<!DOCTYPE svg PUBLIC "-//W3C//DTD SVG 1.1//EN" "http://www.w3.org/Graphics/SVG/1.1/DTD/svg11.dtd">
<svg version="1.1" xmlns="http://www.w3.org/2000/svg" xmlns:xlink="http://www.w3.org/1999/xlink" width="32" height="32" viewBox="0 0 32 32">
<path d="M31.4 11.2l-2.998-3.998c-0.118-0.157-0.257-0.293-0.402-0.423v-4.779c0-1.104-0.895-2-2-2h-20c-1.104 0-2 0.896-2 2v4.78c-0.143 0.129-0.282 0.264-0.399 0.42l-2.998 3.999c-0.388 0.516-0.602 1.156-0.602 1.801v1c0 1.654 1.346 3 3 3h-0.001v13c0 1.105 0.895 2 2 2h22c1.105 0 2-0.895 2-2v-13h0c1.654 0 3-1.346 3-3v-1c0-0.645-0.213-1.285-0.6-1.8zM26 2v4h-20v-4zM10.193 15h-4.189l4-7h2.189zM13.234 8h2.266v7h-4.266zM16.5 8h2.266l2 7h-4.266zM19.806 8h2.189l4 7h-4.189zM2 14v-1c0-0.217 0.070-0.427 0.2-0.6l3-4c0.189-0.252 0.485-0.4 0.8-0.4h2.852l-4 7h-1.853c-0.552 0-1-0.447-1-1zM20 30h-7.5v-10h7.5zM27 30h-6v-10c0-0.553-0.448-1-1-1h-7.5c-0.552 0-1 0.447-1 1v10h-6.5v-13h22zM30 14c0 0.553-0.448 1-1 1h-1.853l-4-7h2.853c0.315 0 0.611 0.148 0.8 0.4l3 4c0.13 0.173 0.2 0.383 0.2 0.6z"></path>
</svg>
