<?xml version="1.0" encoding="utf-8"?>
<!-- Generated by IcoMoon.io -->
<!DOCTYPE svg PUBLIC "-//W3C//DTD SVG 1.1//EN" "http://www.w3.org/Graphics/SVG/1.1/DTD/svg11.dtd">
<svg version="1.1" xmlns="http://www.w3.org/2000/svg" xmlns:xlink="http://www.w3.org/1999/xlink" width="32" height="32" viewBox="0 0 32 32">
<path d="M27.033 14.019h0.002c0.002 0.272 0.222 0.492 0.496 0.492s0.496-0.222 0.496-0.496c0-0.003-0.002-0.005-0.002-0.008-0.006-5.466-4.434-9.895-9.904-9.909-0.009-0.001-0.017-0.006-0.027-0.006-0.274 0-0.496 0.222-0.496 0.496 0 0.273 0.221 0.495 0.495 0.496v0.004c4.93 0 8.939 4.006 8.939 8.93zM9.277 0.996c-0.57-0.57-1.332-0.872-2.108-0.872-0.384 0-0.771 0.073-1.139 0.227-1.113 0.459-1.84 1.545-1.84 2.75l-0.001 13.651-3.099 3.097c-1.165 1.162-1.165 3.047 0 4.209l6.952 6.946c0.582 0.581 1.345 0.872 2.108 0.872 0.762 0 1.524-0.291 2.107-0.872l3.1-3.097h13.663c1.206 0 2.292-0.724 2.753-1.838 0.462-1.112 0.206-2.393-0.646-3.244zM13.951 26.504l-3.1 3.097c-0.253 0.253-0.549 0.291-0.702 0.291-0.154 0-0.45-0.038-0.703-0.291l-6.953-6.946c-0.253-0.253-0.291-0.549-0.291-0.702s0.038-0.448 0.291-0.701l3.099-3.098c0.009-0.009 0.012-0.022 0.021-0.030l8.368 8.359c-0.009 0.008-0.022 0.011-0.031 0.020zM15.356 25.922c-0.155 0-0.297 0.055-0.445 0.088l-8.824-8.816c0.034-0.147 0.088-0.29 0.088-0.443l0.001-11.953 21.144 21.123zM29.937 25.31c-0.155 0.372-0.514 0.612-0.918 0.612h-0.295l-22.548-22.526v-0.296c0-0.403 0.24-0.763 0.612-0.917 0.123-0.051 0.25-0.075 0.38-0.075 0.265 0 0.515 0.103 0.702 0.29l21.851 21.83c0.285 0.285 0.369 0.709 0.215 1.082zM18.094 2.109v0.004c6.573 0 11.919 5.341 11.919 11.907h0.002c0.002 0.547 0.446 0.988 0.992 0.988 0.549 0 0.993-0.444 0.993-0.992 0-0.003-0.002-0.005-0.002-0.008-0.006-7.658-6.213-13.864-13.877-13.878-0.009-0.001-0.017-0.006-0.027-0.006-0.549 0-0.993 0.444-0.993 0.992 0 0.548 0.445 0.991 0.992 0.992z"></path>
</svg>
