<?xml version="1.0" encoding="utf-8"?>
<!-- Generated by IcoMoon.io -->
<!DOCTYPE svg PUBLIC "-//W3C//DTD SVG 1.1//EN" "http://www.w3.org/Graphics/SVG/1.1/DTD/svg11.dtd">
<svg version="1.1" xmlns="http://www.w3.org/2000/svg" xmlns:xlink="http://www.w3.org/1999/xlink" width="32" height="32" viewBox="0 0 32 32">
<path d="M31.924 18.455l-4.002-15.006c-0.242-0.852-1.032-1.449-1.922-1.449h-20c-0.89 0-1.68 0.597-1.922 1.449l-4.002 15.006c-0.051 0.183-0.076 0.366-0.076 0.545v7c0 2.209 1.791 4 4 4h24c2.209 0 4-1.791 4-4v-7c0-0.179-0.025-0.362-0.076-0.545zM30 26c0 1.103-0.897 2-2 2h-24c-1.102 0-2-0.897-2-2v-7l4.001-15.001h19.998l4.001 15.001zM23.742 6h-15.484c-0.453 0-0.85 0.305-0.967 0.743l-3.445 12c-0.079 0.3-0.016 0.62 0.174 0.866 0.189 0.247 0.482 0.391 0.793 0.391h4.568l1.447 2.895c0.339 0.677 1.031 1.105 1.789 1.105h6.766c0.758 0 1.45-0.428 1.789-1.105l1.447-2.895h4.569c0.31 0 0.603-0.144 0.793-0.391 0.189-0.246 0.252-0.566 0.173-0.866l-3.445-12c-0.117-0.438-0.514-0.743-0.967-0.743zM22.619 18c-0.762 0-1.447 0.423-1.789 1.106l-1.447 2.894h-6.766l-1.447-2.894c-0.342-0.683-1.027-1.106-1.789-1.106h-4.047l2.924-11h15.484l2.924 11z"></path>
</svg>
