<?xml version="1.0" encoding="utf-8"?>
<!-- Generated by IcoMoon.io -->
<!DOCTYPE svg PUBLIC "-//W3C//DTD SVG 1.1//EN" "http://www.w3.org/Graphics/SVG/1.1/DTD/svg11.dtd">
<svg version="1.1" xmlns="http://www.w3.org/2000/svg" xmlns:xlink="http://www.w3.org/1999/xlink" width="32" height="32" viewBox="0 0 32 32">
<path d="M31.637 12.118c-0.273-0.787-0.973-1.363-1.815-1.488l-8.198-1.219-3.564-7.398c-0.374-0.777-1.178-1.274-2.060-1.274s-1.685 0.497-2.060 1.274l-3.563 7.398-8.199 1.219c-0.843 0.125-1.543 0.701-1.814 1.488s-0.067 1.656 0.529 2.25l6.008 5.999-1.393 8.321c-0.142 0.837 0.222 1.679 0.933 2.169 0.391 0.268 0.851 0.405 1.311 0.405 0.378 0 0.756-0.093 1.101-0.276l7.147-3.848 7.148 3.848c0.344 0.183 0.723 0.276 1.1 0.276 0.46 0 0.919-0.137 1.311-0.405 0.711-0.49 1.074-1.332 0.933-2.169l-1.394-8.321 6.009-5.999c0.595-0.594 0.799-1.462 0.529-2.25zM23.471 18.819c-0.504 0.503-0.733 1.21-0.616 1.904l1.393 8.322-7.147-3.847c-0.344-0.185-0.722-0.277-1.101-0.277s-0.757 0.092-1.1 0.277l-7.148 3.847 1.394-8.322c0.116-0.694-0.112-1.401-0.616-1.904l-6.008-5.997 8.198-1.222c0.749-0.111 1.394-0.58 1.717-1.248l3.563-7.397 3.564 7.397c0.322 0.668 0.966 1.136 1.715 1.248l8.199 1.222z"></path>
</svg>
