<?xml version="1.0" encoding="utf-8"?>
<!-- Generated by IcoMoon.io -->
<!DOCTYPE svg PUBLIC "-//W3C//DTD SVG 1.1//EN" "http://www.w3.org/Graphics/SVG/1.1/DTD/svg11.dtd">
<svg version="1.1" xmlns="http://www.w3.org/2000/svg" xmlns:xlink="http://www.w3.org/1999/xlink" width="32" height="32" viewBox="0 0 32 32">
<path d="M32 8c0-1.406-0.956-2.608-2.325-2.924l-13.013-3.003c-0.218-0.049-0.441-0.073-0.662-0.073s-0.443 0.024-0.675 0.076l-12.999 3c-1.37 0.316-2.326 1.518-2.326 2.924s0.957 2.608 2.325 2.924l2.675 0.617v8.459c0 2.654 3.038 5 11 5s11-2.346 11-5v-8.459l2.674-0.617c1.37-0.316 2.326-1.518 2.326-2.924zM25 20c0 1.106-3 3-9 3s-9-1.894-9-3v-7.997l8.338 1.924c0.218 0.049 0.441 0.073 0.662 0.073s0.443-0.024 0.675-0.076l8.325-1.921zM16.225 11.975c-0.074 0.016-0.149 0.025-0.225 0.025s-0.151-0.009-0.225-0.025l-13-3c-0.454-0.105-0.775-0.509-0.775-0.975s0.321-0.87 0.775-0.975l13-3c0.074-0.016 0.149-0.025 0.225-0.025s0.151 0.009 0.225 0.025l13 3c0.454 0.105 0.775 0.509 0.775 0.975s-0.321 0.87-0.775 0.975zM29 13v9c0 0.553 0.448 1 1 1s1-0.447 1-1v-9c0-0.553-0.448-1-1-1s-1 0.447-1 1zM30 24c-1.105 0-2 2.896-2 4 0 1.105 0.895 2 2 2s2-0.895 2-2c0-1.104-0.895-4-2-4z"></path>
</svg>
