<?xml version="1.0" encoding="utf-8"?>
<!-- Generated by IcoMoon.io -->
<!DOCTYPE svg PUBLIC "-//W3C//DTD SVG 1.1//EN" "http://www.w3.org/Graphics/SVG/1.1/DTD/svg11.dtd">
<svg version="1.1" xmlns="http://www.w3.org/2000/svg" xmlns:xlink="http://www.w3.org/1999/xlink" width="32" height="32" viewBox="0 0 32 32">
<path d="M31.25 6.439l-5-4c-0.355-0.285-0.796-0.439-1.25-0.439h-18c-0.454 0-0.894 0.154-1.249 0.439l-5 4c-0.655 0.523-0.913 1.399-0.648 2.194l2 6c0.197 0.591 0.658 1.057 1.248 1.259 0.212 0.072 0.431 0.108 0.649 0.108 0.348 0 0.693-0.091 1-0.268v12.268c0 1.105 0.895 2 2 2h18c1.105 0 2-0.895 2-2v-12.268c0.307 0.177 0.652 0.268 1 0.268 0.218 0 0.437-0.036 0.649-0.108 0.59-0.202 1.051-0.668 1.249-1.259l1.999-6c0.265-0.795 0.007-1.671-0.647-2.194zM19.754 4c-0.552 1.161-2.018 2-3.754 2s-3.202-0.839-3.754-2zM28 14l-3-2v16h-18v-16l-3 2-2-6 5-4h4.177c0.557 1.722 2.496 3 4.823 3s4.266-1.278 4.823-3h4.177l5 4z"></path>
</svg>
