<?xml version="1.0" encoding="utf-8"?>
<!-- Generated by IcoMoon.io -->
<!DOCTYPE svg PUBLIC "-//W3C//DTD SVG 1.1//EN" "http://www.w3.org/Graphics/SVG/1.1/DTD/svg11.dtd">
<svg version="1.1" xmlns="http://www.w3.org/2000/svg" xmlns:xlink="http://www.w3.org/1999/xlink" width="32" height="32" viewBox="0 0 32 32">
<path d="M31.148 13.896l-4.961-7.938c-0.725-1.16-1.997-1.865-3.365-1.865h-18.853c-2.192 0-3.969 1.777-3.969 3.969v15.876c0 2.192 1.777 3.969 3.969 3.969h18.853c1.368 0 2.64-0.706 3.365-1.865l4.961-7.938c0.805-1.287 0.805-2.92 0-4.207zM29.466 17.052l-4.962 7.939c-0.364 0.583-0.993 0.932-1.682 0.932h-18.853c-1.094 0-1.984-0.89-1.984-1.985v-15.876c0-1.093 0.891-1.984 1.984-1.984h18.853c0.689 0 1.318 0.349 1.682 0.932l4.961 7.939c0.4 0.639 0.4 1.465 0.001 2.104zM22.822 13.023c-1.644 0-2.977 1.333-2.977 2.977s1.332 2.977 2.977 2.977c1.644 0 2.977-1.333 2.977-2.977s-1.332-2.977-2.977-2.977zM22.822 17.985c-1.096 0-1.985-0.889-1.985-1.985s0.889-1.985 1.985-1.985c1.096 0 1.985 0.889 1.985 1.985s-0.889 1.985-1.985 1.985z"></path>
</svg>
