<?xml version="1.0" encoding="utf-8"?>
<!-- Generated by IcoMoon.io -->
<!DOCTYPE svg PUBLIC "-//W3C//DTD SVG 1.1//EN" "http://www.w3.org/Graphics/SVG/1.1/DTD/svg11.dtd">
<svg version="1.1" xmlns="http://www.w3.org/2000/svg" xmlns:xlink="http://www.w3.org/1999/xlink" width="32" height="32" viewBox="0 0 32 32">
<path d="M29.981 6.817c-0.097-1.57-1.387-2.816-2.981-2.816h-3v-1.001c0-1.657-1.343-3-3-3h-10c-1.657 0-3 1.343-3 3v1.001h-3c-1.595 0-2.885 1.246-2.981 2.816h-0.019v2.183c0 1.105 0.896 2 2 2v17c0 2.209 1.791 4 4 4h16c2.209 0 4-1.791 4-4v-17c1.105 0 2-0.895 2-2v-2.183zM10 3.001c0-0.553 0.447-1 1-1h10c0.553 0 1 0.447 1 1v1h-12zM26 28c0 1.103-0.898 2-2 2h-16c-1.103 0-2-0.897-2-2v-17h20zM28 9h-24v-1.999c0-0.553 0.447-1 1-1h22c0.553 0 1 0.447 1 1zM9 28.004h2c0.553 0 1-0.447 1-1v-13c0-0.553-0.447-1-1-1h-2c-0.553 0-1 0.447-1 1v13c0 0.553 0.447 1 1 1zM9 14.004h2v13h-2zM15 28.004h2c0.553 0 1-0.447 1-1v-13c0-0.553-0.447-1-1-1h-2c-0.553 0-1 0.447-1 1v13c0 0.553 0.447 1 1 1zM15 14.004h2v13h-2zM21 28.004h2c0.553 0 1-0.447 1-1v-13c0-0.553-0.447-1-1-1h-2c-0.553 0-1 0.447-1 1v13c0 0.553 0.447 1 1 1zM21 14.004h2v13h-2z"></path>
</svg>
