<?xml version="1.0" encoding="utf-8"?>
<!-- Generated by IcoMoon.io -->
<!DOCTYPE svg PUBLIC "-//W3C//DTD SVG 1.1//EN" "http://www.w3.org/Graphics/SVG/1.1/DTD/svg11.dtd">
<svg version="1.1" xmlns="http://www.w3.org/2000/svg" xmlns:xlink="http://www.w3.org/1999/xlink" width="32" height="32" viewBox="0 0 32 32">
<path d="M24.832 11.445c-0.185-0.278-0.497-0.445-0.832-0.445h-0.999c-0.553 0-1 0.447-1 1v6c0 0.553 0.447 1 1 1h4c0.552 0 1-0.447 1-1v-1.5c0-0.197-0.059-0.391-0.168-0.555zM27.001 18h-4v-6h0.999l3.001 4.5zM31.497 15.336l-4-6c-0.559-0.837-1.493-1.336-2.496-1.336h-4.001v-2c0-1.654-1.345-3-3-3h-15c-1.655 0-3 1.346-3 3v11c0 1.654 1.345 3 3 3v3c0 1.654 1.346 3 3 3h1.142c0.446 1.721 1.999 3 3.859 3 1.857 0 3.41-1.279 3.857-3h5.283c0.447 1.721 2 3 3.859 3s3.411-1.279 3.858-3h1.142c1.655 0 3-1.346 3-3v-6c0-0.594-0.173-1.17-0.503-1.664zM3 18c-0.552 0-1-0.447-1-1v-11c0-0.553 0.448-1 1-1h15c0.553 0 1.001 0.447 1.001 1v11c0 0.553-0.448 1-1.001 1zM11.001 27c-1.106 0-2-0.895-2-2 0-1.104 0.894-2 2-2 1.103 0 1.999 0.896 1.999 2 0 1.105-0.896 2-1.999 2zM24 27c-1.105 0-1.999-0.895-1.999-2 0-1.104 0.894-2 1.999-2 1.104 0 2.001 0.896 2.001 2 0 1.105-0.897 2-2.001 2zM30.001 23c0 0.553-0.448 1-1.001 1h-1.142c-0.447-1.721-2-3-3.858-3-1.859 0-3.412 1.279-3.859 3h-5.283c-0.447-1.721-2-3-3.857-3-1.86 0-3.413 1.279-3.859 3h-1.142c-0.552 0-1-0.447-1-1v-3h13c1.655 0 3-1.346 3-3v-7h4.001c0.334 0 0.646 0.167 0.832 0.445l3.999 6c0.11 0.164 0.169 0.358 0.169 0.555z"></path>
</svg>
