<?xml version="1.0" encoding="utf-8"?>
<!-- Generated by IcoMoon.io -->
<!DOCTYPE svg PUBLIC "-//W3C//DTD SVG 1.1//EN" "http://www.w3.org/Graphics/SVG/1.1/DTD/svg11.dtd">
<svg version="1.1" xmlns="http://www.w3.org/2000/svg" xmlns:xlink="http://www.w3.org/1999/xlink" width="32" height="32" viewBox="0 0 32 32">
<path d="M22.231 8.185c-2.689-0.553-5.418-0.832-8.11-0.832-2.691 0-5.42 0.28-8.11 0.832-0.348 0.071-0.632 0.323-0.743 0.662-1.433 4.347-1.433 8.754 0 13.101 0.111 0.338 0.395 0.59 0.743 0.662 2.69 0.553 5.419 0.832 8.11 0.832s5.421-0.28 8.11-0.832c0.348-0.071 0.633-0.323 0.744-0.662 1.433-4.347 1.433-8.754 0-13.101-0.111-0.338-0.396-0.59-0.744-0.662zM22.032 21.638c-5.273 1.083-10.547 1.083-15.819 0-1.371-4.162-1.371-8.32 0-12.48 5.273-1.083 10.547-1.083 15.819 0 1.371 4.16 1.371 8.319 0 12.48zM30.856 5.899c-0.192-0.808-0.868-1.411-1.693-1.51-4.331-0.525-8.723-0.792-13.055-0.792-4.331 0-8.723 0.267-13.054 0.792-0.825 0.099-1.5 0.702-1.693 1.51-1.519 6.373-1.519 12.837 0 19.21 0.192 0.808 0.868 1.411 1.693 1.51 2.087 0.253 4.187 0.44 6.288 0.571-0.113 0.072-0.187 0.146-0.187 0.221 0 0.549 3.113 0.992 6.953 0.992s6.953-0.444 6.953-0.992c0-0.075-0.072-0.149-0.187-0.221 2.102-0.131 4.202-0.318 6.289-0.571 0.825-0.099 1.5-0.703 1.693-1.51 1.518-6.373 1.518-12.837 0-19.21zM28.923 24.649c-8.543 1.036-17.087 1.036-25.63 0-1.453-6.097-1.453-12.194 0-18.291 8.543-1.036 17.087-1.036 25.63 0 1.454 6.097 1.454 12.194 0 18.291zM26.538 11.535c0.823 0 1.489-0.667 1.489-1.488s-0.667-1.488-1.489-1.488c-0.823 0-1.49 0.667-1.49 1.488s0.668 1.488 1.49 1.488zM26.538 9.55c0.273 0 0.496 0.223 0.496 0.496s-0.223 0.496-0.496 0.496c-0.274 0-0.497-0.223-0.497-0.496s0.223-0.496 0.497-0.496zM27.531 21.457h-2.98c-0.275 0-0.497 0.222-0.497 0.496s0.222 0.496 0.497 0.496h2.98c0.274 0 0.496-0.222 0.496-0.496s-0.222-0.496-0.496-0.496zM28.524 18.481h-2.98c-0.275 0-0.497 0.222-0.497 0.496s0.222 0.496 0.497 0.496h2.98c0.274 0 0.496-0.222 0.496-0.496s-0.222-0.496-0.496-0.496zM28.524 15.504h-2.98c-0.275 0-0.497 0.222-0.497 0.496s0.222 0.496 0.497 0.496h2.98c0.274 0 0.496-0.222 0.496-0.496s-0.222-0.496-0.496-0.496zM13.626 11.341l-4.555 0.356c-0.271 0.031-0.53 0.277-0.575 0.547l-0.304 2.764c-0.014 0.272 0.197 0.495 0.47 0.495s0.503-0.223 0.514-0.496l0.166-1.879c0.037-0.271 0.29-0.514 0.561-0.542l3.724-0.255c0.274-0.010 0.496-0.24 0.496-0.514s-0.222-0.487-0.496-0.476z"></path>
</svg>
