<?xml version="1.0" encoding="utf-8"?>
<!-- Generated by IcoMoon.io -->
<!DOCTYPE svg PUBLIC "-//W3C//DTD SVG 1.1//EN" "http://www.w3.org/Graphics/SVG/1.1/DTD/svg11.dtd">
<svg version="1.1" xmlns="http://www.w3.org/2000/svg" xmlns:xlink="http://www.w3.org/1999/xlink" width="32" height="32" viewBox="0 0 32 32">
<path d="M30 6h-0.886c-0.525 0-1.030 0.207-1.404 0.576l-2.71 2.672v-1.248c0-1.657-1.343-3-3-3h-19c-1.654 0-3 1.346-3 3v16c0 1.657 1.343 3 3 3h19c1.657 0 3-1.343 3-3v-1.22l2.71 2.672c0.374 0.369 0.879 0.576 1.404 0.576h0.886c1.105 0 2-0.895 2-2v-16.028c0-1.104-0.895-2-2-2zM3 25c-0.552 0-1-0.448-1-1v-16c0-0.553 0.447-1 1-1h19c0.552 0 1 0.448 1 1v16c0 0.552-0.448 1-1 1zM30 24.028h-1l-4-4v-0.028l-1-1v-6l5-5h1z"></path>
</svg>
