<?xml version="1.0" encoding="utf-8"?>
<!-- Generated by IcoMoon.io -->
<!DOCTYPE svg PUBLIC "-//W3C//DTD SVG 1.1//EN" "http://www.w3.org/Graphics/SVG/1.1/DTD/svg11.dtd">
<svg version="1.1" xmlns="http://www.w3.org/2000/svg" xmlns:xlink="http://www.w3.org/1999/xlink" width="32" height="32" viewBox="0 0 32 32">
<path d="M21.855 1.375c-8.077-3.233-17.247 0.691-20.48 8.768-3.235 8.078 0.691 17.248 8.768 20.482 8.077 3.234 17.247-0.691 20.481-8.768s-0.691-17.247-8.769-20.482zM10.876 28.797c-7.057-2.827-10.498-10.865-7.673-17.922 2.826-7.056 10.864-10.499 17.921-7.672s10.498 10.865 7.673 17.921c-2.826 7.057-10.865 10.498-17.921 7.673zM16.733 14.172c-1.010-0.405-2.156 0.087-2.561 1.096-0.404 1.010 0.087 2.156 1.096 2.56 1.009 0.405 2.156-0.087 2.56-1.095 0.405-1.010-0.086-2.156-1.095-2.561zM15.634 16.914c-0.504-0.203-0.749-0.776-0.548-1.281 0.203-0.503 0.777-0.748 1.281-0.547 0.503 0.202 0.749 0.776 0.547 1.281-0.203 0.503-0.777 0.748-1.28 0.547zM18.196 10.516c-3.029-1.213-6.468 0.26-7.68 3.288s0.26 6.467 3.288 7.68c3.030 1.213 6.468-0.259 7.681-3.288s-0.26-6.467-3.289-7.68zM14.536 19.655c-2.015-0.806-2.999-3.104-2.193-5.12 0.807-2.015 3.104-2.999 5.121-2.192s2.999 3.105 2.193 5.121c-0.808 2.015-3.105 3-5.121 2.191zM23.313 18.927c0.1-0.252-0.023-0.539-0.275-0.639-0.252-0.102-0.54 0.021-0.64 0.274l-0.001-0.001c-0.708 1.768-2.064 3.081-3.685 3.775-0.249 0.107-0.365 0.396-0.259 0.645 0.107 0.251 0.397 0.366 0.647 0.26 0.009-0.004 0.013-0.012 0.021-0.015 1.844-0.797 3.387-2.291 4.191-4.299zM26.694 19.751c-0.252-0.101-0.54 0.023-0.64 0.274-1.112 2.778-3.244 4.839-5.793 5.931-0.249 0.106-0.365 0.396-0.258 0.646s0.396 0.365 0.646 0.259c0.013-0.006 0.021-0.017 0.032-0.023 2.766-1.194 5.081-3.436 6.286-6.447 0.101-0.252-0.022-0.539-0.274-0.64zM24.865 19.020c-0.253-0.101-0.539 0.021-0.641 0.274-0.909 2.273-2.653 3.96-4.738 4.852h0.001c-0.25 0.107-0.366 0.397-0.259 0.647s0.396 0.365 0.646 0.259c0.011-0.005 0.016-0.014 0.027-0.020 2.304-0.994 4.233-2.862 5.238-5.372 0.101-0.253-0.022-0.54-0.274-0.64zM13.547 9.017c-0.108-0.251-0.397-0.365-0.647-0.258-0.009 0.003-0.014 0.011-0.022 0.014-1.844 0.797-3.387 2.292-4.191 4.299h-0.001c-0.101 0.253 0.022 0.539 0.274 0.639 0.253 0.101 0.54-0.022 0.641-0.274h0.001c0.707-1.766 2.064-3.080 3.685-3.773 0.249-0.107 0.365-0.396 0.259-0.647zM11.997 5.397c-0.108-0.25-0.397-0.365-0.647-0.259-0.012 0.005-0.020 0.016-0.031 0.022-2.767 1.195-5.081 3.436-6.287 6.447-0.101 0.253 0.022 0.54 0.274 0.641s0.539-0.022 0.64-0.274c1.112-2.778 3.243-4.839 5.793-5.931 0.249-0.107 0.365-0.396 0.258-0.646zM12.512 7.852c0.25-0.106 0.366-0.395 0.259-0.646-0.107-0.249-0.397-0.365-0.647-0.258-0.010 0.004-0.015 0.014-0.026 0.018-2.305 0.995-4.234 2.865-5.238 5.374-0.102 0.253 0.022 0.539 0.274 0.64s0.539-0.021 0.64-0.274c0.909-2.273 2.655-3.961 4.738-4.852z"></path>
</svg>
