<?xml version="1.0" encoding="utf-8"?>
<!-- Generated by IcoMoon.io -->
<!DOCTYPE svg PUBLIC "-//W3C//DTD SVG 1.1//EN" "http://www.w3.org/Graphics/SVG/1.1/DTD/svg11.dtd">
<svg version="1.1" xmlns="http://www.w3.org/2000/svg" xmlns:xlink="http://www.w3.org/1999/xlink" width="32" height="32" viewBox="0 0 32 32">
<path d="M17.86 17.488c-1.096 0-1.985 0.889-1.985 1.985 0 1.096 0.888 1.985 1.985 1.985s1.985-0.888 1.985-1.985c0-1.095-0.888-1.985-1.985-1.985zM28.777 12.527c-0.001 0-0.001 0-0.002 0v-8.93c0-1.644-1.333-2.977-2.977-2.977h-20.341c-3.010 0-5.457 2.449-5.457 5.457v19.845c0 3.009 2.448 5.457 5.457 5.457h17.86c3.009 0 5.457-2.449 5.457-5.457v-1.488c0.001 0 0.001 0 0.002 0 3.967-2.978 3.967-8.929 0-11.907zM5.457 2.605h20.341c0.547 0 0.992 0.445 0.992 0.992v6.136c-0.312-0.111-0.643-0.183-0.992-0.183v-4.961c0-0.549-0.445-0.992-0.992-0.992h-20.837c-0.549 0-0.992 0.444-0.992 0.992v3.912c-0.612-0.625-0.992-1.479-0.992-2.424 0-1.918 1.555-3.473 3.473-3.473zM24.806 5.581h-20.837v-0.992h20.837zM24.806 6.574v0.992h-20.837v-0.992zM24.806 8.558v0.992h-19.349c-0.536 0-1.036-0.131-1.488-0.347v-0.645zM26.791 25.922c0 1.918-1.555 3.473-3.473 3.473h-17.86c-1.918 0-3.473-1.555-3.473-3.473v-15.639c0.945 0.781 2.154 1.251 3.473 1.251h20.341c0.547 0 0.992 0.445 0.992 0.992v1.985h-8.929c-2.741 0-4.962 2.221-4.962 4.961s2.222 4.961 4.962 4.961h8.929zM28.058 22.45h-10.196c-1.642 0-2.978-1.336-2.978-2.977s1.336-2.977 2.978-2.977h8.929c0.613-0.008 1.22-0.305 1.59-0.798 0.104-0.138 0.184-0.295 0.248-0.457 0.009-0.022 0.025-0.039 0.033-0.061 0.713 0.935 1.106 2.083 1.106 3.3 0 1.526-0.616 2.942-1.71 3.969z"></path>
</svg>
