<?xml version="1.0" encoding="utf-8"?>
<!-- Generated by IcoMoon.io -->
<!DOCTYPE svg PUBLIC "-//W3C//DTD SVG 1.1//EN" "http://www.w3.org/Graphics/SVG/1.1/DTD/svg11.dtd">
<svg version="1.1" xmlns="http://www.w3.org/2000/svg" xmlns:xlink="http://www.w3.org/1999/xlink" width="32" height="32" viewBox="0 0 32 32">
<path d="M15 11c0.553 0 1-0.448 1-1 0-0.553-0.447-1-1-1s-1 0.447-1 1c0 0.552 0.447 1 1 1zM15 21c-0.553 0-1 0.448-1 1 0 0.553 0.447 1 1 1s1-0.447 1-1c0-0.552-0.447-1-1-1zM9 15c-0.553 0-1 0.447-1 1 0 0.552 0.447 1 1 1s1-0.448 1-1c0-0.553-0.447-1-1-1zM20 16c0 0.552 0.447 1 1 1s1-0.448 1-1c0-0.553-0.447-1-1-1s-1 0.447-1 1zM10.051 19.535c-0.392 0.391-0.392 1.024 0 1.414 0.39 0.391 1.022 0.391 1.414 0 0.391-0.39 0.391-1.023 0-1.414-0.392-0.39-1.024-0.39-1.414 0zM10.051 11.051c-0.392 0.39-0.392 1.022-0.001 1.414 0.391 0.39 1.023 0.39 1.415 0 0.391-0.392 0.391-1.024 0-1.414-0.392-0.392-1.024-0.392-1.414 0zM18.535 19.535c-0.39 0.391-0.39 1.024 0 1.414 0.392 0.391 1.024 0.391 1.415 0 0.391-0.39 0.391-1.023-0.001-1.414-0.39-0.39-1.022-0.39-1.414 0zM25 14c-0.070 0-0.129 0.033-0.197 0.040-0.348-1.745-1.169-3.306-2.297-4.594l-1.435-7.811c-0.176-0.948-1.003-1.635-1.966-1.635h-8c-0.964 0-1.791 0.687-1.967 1.635l-1.401 7.548c-1.679 1.788-2.737 4.169-2.737 6.817 0 2.582 1.014 4.905 2.621 6.678l1.412 7.687c0.177 0.948 1.003 1.635 1.967 1.635h8c0.964 0 1.79-0.687 1.967-1.635l1.425-7.681c1.188-1.311 2.051-2.92 2.411-4.725 0.068 0.008 0.127 0.041 0.197 0.041 1.105 0 2-0.896 2-2 0-1.105-0.895-2-2-2zM11.105 2h8l1 5.386c-1.477-0.858-3.169-1.386-5-1.386-1.832 0-3.524 0.528-5 1.386zM19 30h-8l-1-5.386c1.477 0.857 3.169 1.386 5 1.386s3.523-0.529 5-1.386zM15 24c-4.411 0-8-3.59-8-8s3.589-8 8-8 8 3.589 8 8c0 4.41-3.589 8-8 8zM19.941 11.026c-0.121-0.121-0.316-0.131-0.453-0.021l-5.191 4.285c-0.191 0.192-0.297 0.446-0.297 0.719 0 0.262 0.102 0.511 0.289 0.698 0.188 0.186 0.438 0.29 0.707 0.292 0.25-0.002 0.51-0.095 0.699-0.278l1.848-2.224 2.426-3.021c0.105-0.133 0.094-0.329-0.028-0.45z"></path>
</svg>
