<?xml version="1.0" encoding="utf-8"?>
<!-- Generated by IcoMoon.io -->
<!DOCTYPE svg PUBLIC "-//W3C//DTD SVG 1.1//EN" "http://www.w3.org/Graphics/SVG/1.1/DTD/svg11.dtd">
<svg version="1.1" xmlns="http://www.w3.org/2000/svg" xmlns:xlink="http://www.w3.org/1999/xlink" width="32" height="32" viewBox="0 0 32 32">
<path d="M16 0c-8.836 0-16 7.164-16 16 0 8.837 7.164 16 16 16s16-7.163 16-16c0-8.836-7.164-16-16-16zM29.91 15.484h-6.189c-0.057-2.286-0.463-4.471-1.185-6.47 1.393-0.581 2.681-1.354 3.855-2.268 2.089 2.344 3.396 5.388 3.519 8.738zM15.429 29.907c-1.716-1.429-3.154-3.284-4.207-5.438 1.351-0.422 2.783-0.653 4.262-0.701v6.142c-0.019-0.001-0.036-0.002-0.055-0.003zM16.57 2.093c1.947 1.622 3.535 3.791 4.61 6.324-1.471 0.504-3.036 0.795-4.664 0.847v-7.174c0.019 0.001 0.035 0.002 0.054 0.003zM18.289 2.269c2.849 0.474 5.406 1.804 7.395 3.731-1.081 0.829-2.262 1.532-3.538 2.063-0.94-2.228-2.258-4.196-3.858-5.794zM15.484 2.090v7.174c-1.628-0.053-3.193-0.344-4.664-0.847 1.075-2.532 2.664-4.702 4.61-6.324 0.019-0.001 0.035-0.002 0.054-0.003zM9.854 8.063c-1.275-0.532-2.457-1.235-3.538-2.063 1.989-1.926 4.546-3.257 7.395-3.731-1.6 1.598-2.917 3.566-3.858 5.794zM10.432 9.369c1.592 0.552 3.287 0.874 5.052 0.928v5.187h-6.171c0.055-2.162 0.438-4.227 1.119-6.115zM15.484 16.516v6.219c-1.628 0.050-3.202 0.316-4.685 0.794-0.894-2.129-1.421-4.5-1.485-7.013zM13.711 29.731c-2.552-0.424-4.87-1.536-6.756-3.15 1.018-0.705 2.116-1.302 3.291-1.755 0.9 1.866 2.079 3.523 3.465 4.905zM16.516 29.91v-6.142c1.479 0.047 2.911 0.279 4.262 0.701-1.054 2.154-2.492 4.009-4.207 5.438-0.019 0.001-0.036 0.002-0.055 0.003zM21.754 24.826c1.175 0.453 2.273 1.050 3.291 1.755-1.885 1.614-4.203 2.726-6.756 3.15 1.387-1.382 2.565-3.039 3.465-4.905zM21.202 23.529c-1.483-0.478-3.058-0.744-4.685-0.794v-6.219h6.171c-0.064 2.514-0.591 4.885-1.485 7.013zM16.516 15.484v-5.187c1.765-0.054 3.461-0.376 5.052-0.928 0.681 1.888 1.064 3.954 1.119 6.115zM5.609 6.746c1.175 0.914 2.463 1.687 3.855 2.268-0.722 1.999-1.128 4.184-1.184 6.47h-6.19c0.124-3.35 1.43-6.394 3.519-8.738zM2.090 16.516h6.19c0.064 2.637 0.614 5.128 1.55 7.367-1.307 0.51-2.527 1.189-3.652 1.992-2.424-2.411-3.954-5.709-4.089-9.359zM25.821 25.876c-1.125-0.803-2.345-1.482-3.652-1.992 0.936-2.239 1.486-4.73 1.551-7.367h6.189c-0.135 3.65-1.665 6.948-4.089 9.359z"></path>
</svg>
