<?xml version="1.0" standalone="no"?>
<!DOCTYPE svg PUBLIC "-//W3C//DTD SVG 1.1//EN" "http://www.w3.org/Graphics/SVG/1.1/DTD/svg11.dtd" >
<svg xmlns="http://www.w3.org/2000/svg">
<metadata>Generated by IcoMoon</metadata>
<defs>
<font id="freebie" horiz-adv-x="1024">
<font-face units-per-em="1024" ascent="960" descent="-64" />
<missing-glyph horiz-adv-x="1024" />
<glyph unicode="&#x20;" horiz-adv-x="512" d="" />
<glyph unicode="&#xe900;" glyph-name="banknote" d="M1005.28 621.248l-320 320c-15.904 15.872-38.88 22.24-60.672 16.864-11.488-2.816-21.76-8.736-29.856-16.864-7.264-7.264-12.768-16.256-15.904-26.304-14.528-47.008-39.584-87.872-76.64-124.928-49.536-49.504-114.048-87.008-182.304-126.656-72.448-41.984-147.296-85.472-208.64-146.784-52.128-52.192-87.616-110.272-108.416-177.632-6.976-22.752-0.896-47.392 15.872-64.192l320.032-320c15.872-15.872 38.848-22.24 60.64-16.864 11.488 2.848 21.76 8.736 29.888 16.864 7.232 7.264 12.736 16.256 15.872 26.368 14.528 47.008 39.584 87.872 76.672 124.928 49.504 49.504 114.016 86.944 182.304 126.56 72.416 42.080 147.264 85.568 208.608 146.88 52.128 52.128 87.616 110.272 108.416 177.632 6.976 22.688 0.896 47.392-15.872 64.128zM384.032 0c-106.016 105.984-214.048 214.048-320.032 320 90.912 294.432 485.088 281.568 575.968 576 106.016-105.952 214.048-214.016 320.064-320-90.944-294.368-485.12-281.568-576-576zM625.952 483.2c-10.432 8.736-20.928 14.688-31.488 17.6-10.496 2.944-21.024 4.128-31.648 3.392-10.496-0.832-21.248-3.2-32-7.328-10.72-4.192-21.536-8.736-32.416-13.984-17.184 19.744-34.368 39.232-51.584 57.376 7.776 7.008 15.264 10.56 22.528 10.816 7.232 0.288 14.24-0.448 20.864-2.144 6.752-1.664 12.928-3.104 18.624-4.256 5.76-1.12 10.752 0.128 15.136 3.84 4.608 4 7.168 9.184 7.552 15.424 0.32 6.304-2.080 12.448-7.328 18.432-6.752 7.744-14.848 12.448-24.608 14.208-9.632 1.664-19.488 1.536-29.76-0.704-10.112-2.304-19.744-6.112-28.864-11.488s-16.448-10.88-21.888-16.256c-2.080 1.984-4.16 3.936-6.24 5.856-2.304 2.144-5.184 3.264-8.64 3.2-3.488 0-6.368-1.504-8.736-4.256-2.304-2.688-3.36-5.792-2.944-9.12 0.32-3.424 1.696-6.048 4.064-8.064 2.080-1.76 4.16-3.488 6.24-5.312-8.16-9.856-14.912-20.8-20.224-32.32-5.376-11.552-8.576-22.976-9.76-34.112-1.248-11.2-0.064-21.44 3.36-30.944 3.456-9.568 9.76-17.696 19.008-25.376 15.072-12.48 32.832-17.792 53.376-16.608 20.512 1.248 42.624 7.36 66.368 20.128 18.912-21.824 37.856-43.52 56.768-63.648-8-6.752-15.008-10.624-21.184-11.872-6.208-1.312-11.712-1.184-16.704 0.32-4.992 1.568-9.632 3.808-13.856 6.688-4.256 2.944-8.448 5.44-12.64 7.488-4.128 2.080-8.384 3.2-12.736 3.264-4.384 0.064-9.024-2.048-14.144-6.432-5.248-4.576-7.872-9.888-7.872-15.872 0-5.952 2.752-12 8.128-18.144 5.44-6.112 12.512-11.232 21.056-15.296 8.576-4.064 18.208-6.624 28.832-7.328 10.624-0.736 21.792 0.896 33.6 5.248 11.904 4.32 23.648 12.128 35.2 23.744 5.6-5.44 11.232-10.624 16.8-15.616 2.4-2.048 5.248-3.072 8.768-2.816 3.36 0.128 6.304 1.696 8.608 4.512 2.4 2.88 3.392 6.048 3.008 9.376-0.32 3.36-1.696 5.92-4 7.808-5.632 4.512-11.232 9.248-16.864 14.24 9.568 11.744 17.248 24.128 22.944 36.384 5.664 12.32 9.056 24.192 10.176 35.2 1.12 11.040-0.192 21.056-3.808 30.112-3.584 9.184-9.952 17.056-19.072 24.64zM447.072 461.504c-9.056-0.384-16.96 2.624-23.872 9.312-2.944 2.816-4.992 6.24-6.24 10.304-1.312 4.064-1.76 8.512-1.248 13.376 0.416 4.8 1.856 9.824 4.384 14.88 2.368 5.056 5.856 10.112 10.368 15.008 16.224-16.128 32.384-33.824 48.608-52.128-12.256-6.752-22.944-10.368-32-10.752zM598.016 397.44c-2.88-5.312-6.176-10.080-10.080-14.176-17.888 18.112-35.84 37.984-53.728 58.432 4.544 2.048 9.376 4.192 14.56 6.368s10.368 3.616 15.552 4.512c5.312 0.8 10.56 0.544 15.808-0.704 5.216-1.312 10.144-4.128 14.688-8.576 4.512-4.48 7.392-9.184 8.512-14.24 1.248-5.12 1.312-10.304 0.448-15.616-0.96-5.312-2.816-10.624-5.76-16zM470.944 250.24h-0.064c-20-15.36-39.52-31.552-57.568-49.664-17.376-17.376-33.12-35.712-46.752-54.4l-21.888-29.856 0.064-0.064c-4-6.272-3.328-14.624 2.112-20.064 6.272-6.272 16.448-6.272 22.72 0 0.992 0.992 1.728 2.048 2.368 3.168l20.448 28c12.704 17.312 27.36 34.4 43.584 50.56 17.92 17.952 34.592 31.84 54.816 47.2l-0.032 0.064c0.544 0.448 1.12 0.8 1.6 1.312 6.304 6.24 6.304 16.448 0 22.688-5.824 5.888-15.104 6.144-21.408 1.056zM588.096 713.12c-16.736-16.736-34.88-31.808-53.664-46.176-1.344-0.768-2.656-1.568-3.776-2.752-6.336-6.304-6.336-16.576 0-22.88 6.144-6.176 16.032-6.304 22.4-0.448l0.096-0.064c20.032 15.392 39.488 31.648 57.568 49.696 17.344 17.376 33.088 35.616 46.72 54.304l21.888 30.016-0.064 0.064c5.44 6.368 5.216 15.872-0.8 21.856-6.304 6.336-16.512 6.336-22.816 0-1.152-1.184-2.048-2.56-2.784-3.936l-21.28-29.12c-12.672-17.376-27.328-34.368-43.488-50.56z" />
<glyph unicode="&#xe901;" glyph-name="bubble" d="M512 736c-190.816 0-352-102.592-352-224 0-8.832 7.168-16 16-16s16 7.168 16 16c0 102.272 149.536 192 320 192 8.832 0 16 7.168 16 16s-7.168 16-16 16zM512 896c-282.784 0-512-171.936-512-384 0-132.064 88.928-248.512 224.256-317.632 0-0.864-0.256-1.44-0.256-2.368 0-57.376-42.848-119.136-61.696-151.552 0.032 0 0.064 0 0.064 0-1.504-3.52-2.368-7.392-2.368-11.456 0-16.032 12.96-28.992 28.992-28.992 3.008 0 8.288 0.8 8.16 0.416 100 16.352 194.208 108.224 216.096 134.88 31.968-4.672 64.928-7.296 98.752-7.296 282.752 0 512 171.936 512 384s-229.248 384-512 384zM512 192c-29.344 0-59.424 2.208-89.472 6.624-3.104 0.48-6.208 0.672-9.28 0.672-19.008 0-37.216-8.448-49.472-23.392-13.696-16.672-52.64-53.856-98.72-81.248 12.48 28.608 22.272 60.736 22.912 93.824 0.192 2.048 0.288 4.128 0.288 5.888 0 24.032-13.472 46.080-34.88 56.992-118.592 60.576-189.376 158.016-189.376 260.64 0 176.448 200.96 320 448 320s448-143.552 448-320c0-176.448-200.96-320-448-320z" />
<glyph unicode="&#xe902;" glyph-name="bulb" d="M512 960c-194.4 0-352-157.6-352-352 0-128.992 118.048-265.696 160.992-385.76 64.096-179.072 57.024-286.24 191.008-286.24 136 0 126.88 106.688 191.008 285.504 43.104 120.32 160.992 258.496 160.992 386.496 0 194.4-157.6 352-352 352zM594.976 90.368l-158.688-19.84c-5.664 16.416-11.744 35.584-19.136 60.608-0.096 0.288-0.224 0.672-0.288 0.992l198.048 24.736c-2.816-9.472-5.856-19.392-8.448-28.288-4.192-14.368-7.968-26.848-11.488-38.208zM407.552 162.944c-5.792 19.232-12.352 39.552-19.68 61.056h248.512c-3.904-11.488-7.84-23.008-11.264-33.888zM512 0c-32.416 0-47.328 3.712-63.904 40l135.616 16.96c-19.616-52.896-33.92-56.96-71.712-56.96zM661.504 288h-298.656c-15.936 34.528-35.072 69.12-53.952 102.944-41.728 74.72-84.896 152-84.896 217.056 0 158.816 129.184 288 288 288s288-129.184 288-288c0-64.576-43.2-142.272-84.96-217.44-18.72-33.728-37.696-68.192-53.536-102.56zM512 800c-105.888 0-192-86.112-192-192 0-8.832 7.168-16 16-16s16 7.168 16 16c0 88.224 71.776 160 160 160 8.832 0 16 7.168 16 16s-7.168 16-16 16z" />
<glyph unicode="&#xe903;" glyph-name="calendar" d="M938.656 864h-138.656v64c0 17.696-14.336 32-32 32s-32-14.304-32-32v-64h-192v64c0 17.696-14.336 32-32 32s-32-14.304-32-32v-64h-192v64c0 17.696-14.336 32-32 32s-32-14.304-32-32v-64h-138.672c-47.126 0-85.328-38.176-85.328-85.312v-757.344c0-47.136 38.202-85.344 85.328-85.344h853.328c47.136 0 85.344 38.208 85.344 85.344v757.344c0 47.136-38.208 85.312-85.344 85.312zM960 21.344c0-11.776-9.568-21.344-21.344-21.344h-853.328c-11.766 0-21.328 9.568-21.328 21.344v757.344c0 11.744 9.562 21.312 21.328 21.312h138.672v-64c0-17.696 14.336-32 32-32s32 14.304 32 32v64h192v-64c0-17.696 14.336-32 32-32s32 14.304 32 32v64h192v-64c0-17.696 14.336-32 32-32s32 14.304 32 32v64h138.656c11.776 0 21.344-9.568 21.344-21.312zM352 480v96h-128v-96zM352 320v96h-128v-96zM352 160v96h-128v-96zM576 160v96h-128v-96zM576 320v96h-128v-96zM576 480v96h-128v-96zM800 160v96h-128v-96zM800 320v96h-128v-96zM800 480v96h-128v-96z" />
<glyph unicode="&#xe904;" glyph-name="camera" d="M512 655.936c-141.408 0-256-114.592-256-256 0-141.376 114.592-256 256-256s256 114.624 256 256c0 141.408-114.592 256-256 256zM657.76 275.008c-69.024-80.512-190.208-89.792-270.688-20.832-80.544 68.992-89.824 190.208-20.832 270.72s190.208 89.792 270.688 20.8c80.544-68.96 89.824-190.176 20.832-270.688zM512 527.936c-70.688 0-127.968-57.312-128-127.968v-0.032c0-8.832 7.168-16 16-16s16 7.168 16 16v0.032c0.032 53.024 42.976 95.968 96 95.968 8.832 0 16 7.168 16 16.032 0 8.832-7.168 15.968-16 15.968zM943.776 686.656l-138.72 23.136-43.936 109.888c-14.688 36.64-49.696 60.288-89.12 60.288h-320c-39.424 0-74.432-23.648-89.152-60.32l-43.904-109.856-138.656-23.136c-46.528-7.712-80.288-47.52-80.288-94.688v-479.968c0-52.928 43.072-96 96-96h832c52.928 0 96 43.072 96 96v479.968c0 47.168-33.76 86.976-80.224 94.688zM960 112c0-17.664-14.304-32-32-32h-832c-17.696 0-32 14.336-32 32v479.968c0 15.68 11.328 29.024 26.752 31.584l174.208 29.024 57.312 143.296c4.896 12.128 16.64 20.128 29.728 20.128h320c13.088 0 24.832-8 29.728-20.128l57.312-143.296 174.208-29.024c15.456-2.56 26.752-15.904 26.752-31.584z" />
<glyph unicode="&#xe905;" glyph-name="clip" d="M939.616 827.712c-112.416 112.384-294.816 112.384-407.232 0l-466.88-460.832c-87.328-87.264-87.328-229.248 0-316.48 87.296-87.232 229.44-87.232 316.736 0l466.88 460.864c62.496 62.432 62.496 163.616 0 226.048-62.496 62.4-163.808 62.4-226.24 0l-351.008-350.592c-12.48-12.512-12.48-32.704 0-45.248 12.512-12.48 32.768-12.48 45.248 0l351.008 350.656c37.44 37.344 98.304 37.344 135.744 0 37.44-37.408 37.44-98.24 0-135.648l-466.88-460.864c-62.496-62.432-163.744-62.432-226.24 0-62.496 62.4-62.496 163.616 0 226.016l462.304 456.352c87.52 87.424 229.376 87.424 316.768 0 87.552-87.424 87.552-229.024 0.064-316.448l-346.464-346.048c-12.544-12.512-12.544-32.704 0-45.216 12.512-12.512 32.768-12.512 45.28 0l350.912 350.592c112.512 112.352 112.512 294.496 0 406.848z" />
<glyph unicode="&#xe906;" glyph-name="cloud" d="M829.251 555.424c-14.032 146.016-135.594 260.576-285.251 260.576-115.811 0-214.966-68.736-260.688-167.36-13.747 4.352-28.093 7.36-43.28 7.36-79.533 0-144-64.512-144-144 0-15.808 3.155-30.752 7.875-44.928-61.843-36.064-103.875-102.304-103.875-179.040 0-114.88 93.126-208 208-208v-0.032l575.968 0.032c132.563 0 239.968 107.424 239.968 240 0 117.024-83.843 214.208-194.717 235.392zM784 144.032v-0.032h-575.968c-79.405 0.032-144 64.608-144 144.032 0 51.2 26.97 97.44 72.125 123.744 43.875 25.216 46.877 30.208 28.47 75.488-3.094 9.312-4.595 17.376-4.595 24.736 0 44.128 35.875 80 80 80 0 0 21.002 1.504 43.28-7.392 36.72-14.624 40.72-0.608 58.064 37.12 36.688 79.104 116.218 130.272 202.624 130.272 115.187 0 210.438-87.136 221.533-202.688 3.968-45.824 3.968-45.824 51.718-56.736 82.717-15.808 142.749-88.384 142.749-172.544 0-97.056-78.938-176-176-176z" />
<glyph unicode="&#xe907;" glyph-name="cup" d="M899.584 799.264l-38.848 116.992c-8.736 26.112-33.184 43.744-60.736 43.744h-576c-27.552 0-52-17.632-60.704-43.744l-39.2-117.024c-33.408-2.176-60.096-29.312-60.096-63.232v-96c0-35.36 28.672-64 64-64h33.088c0-2.4-0.96-4.672-0.672-7.072l64-576c3.584-32.384 30.976-56.928 63.584-56.928h448c32.64 0 60 24.544 63.584 56.928l64 576c0.288 2.4-0.672 4.672-0.672 7.072h33.088c35.36 0 64 28.64 64 64v96c0 34.048-26.848 61.312-60.416 63.264zM224 896h576l32-96h-640zM288 0l-10.656 96h469.312l-10.656-96zM750.208 128h-476.416l-35.584 320h547.584zM789.344 480h-554.688l-10.656 96h576zM896 640h-768v96h768z" />
<glyph unicode="&#xe908;" glyph-name="data" d="M512 960c-215.776 0-448-65.056-448-208v-608c0-142.88 232.224-208 448-208s448 65.12 448 208v608c0 142.944-232.224 208-448 208zM896 144c0-79.488-171.904-144-384-144s-384 64.512-384 144v119.552c66.112-68.128 225.632-103.552 384-103.552s317.888 35.424 384 103.552zM896 336h-0.128c0-0.32 0.128-0.704 0.128-0.992 0-79.008-171.936-143.008-384-143.008s-384 64-384 143.008c0 0.288 0.128 0.672 0.128 0.992h-0.128v119.552c66.112-68.128 225.632-103.552 384-103.552s317.888 35.424 384 103.552zM896 528h-0.128c0-0.32 0.128-0.704 0.128-0.992 0-79.008-171.936-143.008-384-143.008s-384 64-384 143.008c0 0.288 0.128 0.672 0.128 0.992h-0.128v109.92c83.872-63.872 237.632-93.92 384-93.92s300.128 30.048 384 93.92zM512 608c-212.096 0-384 64.512-384 144 0 79.552 171.904 144 384 144s384-64.448 384-144c0-79.488-171.904-144-384-144zM800 96c17.696 0 32 14.304 32 32s-14.304 32-32 32c-17.696 0-32-14.304-32-32s14.304-32 32-32zM800 288c17.696 0 32 14.304 32 32s-14.304 32-32 32c-17.696 0-32-14.304-32-32s14.304-32 32-32zM800 480c17.696 0 32 14.304 32 32s-14.304 32-32 32c-17.696 0-32-14.304-32-32s14.304-32 32-32z" />
<glyph unicode="&#xe909;" glyph-name="diamond" d="M997.66 647.381l-160.059 160.091c-11.815 11.815-27.853 18.464-44.552 18.464h-562.066c-16.699 0-32.736-6.648-44.552-18.464l-160.059-160.091c-12.383-12.351-18.558-28.672-18.495-44.961 0.095-14.809 5.388-29.617 15.943-41.496l441.076-469.717c11.973-13.454 29.113-21.142 47.104-21.142s35.131 7.688 47.104 21.142l441.108 469.717c10.776 12.13 16.069 27.349 15.911 42.472-0.126 15.974-6.333 31.854-18.464 43.985zM581.947 605.381h-139.894l69.947 58.258zM536.608 684.15l86.142 71.775 63.551-63.583-79.777-66.45zM417.477 625.892l-79.777 66.45 63.551 63.583 86.142-71.775zM590.454 573.873l-78.454-392.365-78.454 392.365zM622.592 573.873h154.608l-231.897-386.568zM631.099 605.381l77.572 64.591 64.622-64.591zM660.307 762.919h110.687l-60.369-50.318zM512 704.63l-69.947 58.289h139.894zM313.376 712.602l-60.369 50.318h110.687zM315.329 669.972l77.572-64.591h-142.194zM401.408 573.873l77.288-386.568-231.897 386.568zM408.151 243.704l-310.036 330.169h111.978zM813.907 573.873h112.010l-310.099-330.201zM817.845 605.381l-84.85 84.85 72.405 60.337 145.156-145.187zM218.537 750.631l72.468-60.4-84.85-84.85h-135.073z" />
<glyph unicode="&#xe90a;" glyph-name="display" d="M864 800.064l-704-0.128c-17.696 0-32-14.176-32-31.872v-448c0-17.696 14.304-32 32-32h704c17.696 0 32 14.304 32 32v448c0 17.696-14.304 32-32 32zM864 319.936h-704v448.128h704zM928 927.936h-832c-53.024 0-96-42.976-96-96v-640c0-52.928 42.816-95.808 95.68-95.968h320.32v-38.912l-199.744-25.952c-14.24-3.584-24.256-16.352-24.256-31.040 0-17.696 14.304-32 32-32h576c17.696 0 32 14.304 32 32 0 14.688-9.984 27.456-24.256 31.040l-199.744 25.952v38.912h320.32c52.864 0.16 95.68 43.040 95.68 95.968v640c0 53.024-42.976 96-96 96zM960 191.936c0-17.664-14.336-32-32-32h-832c-17.664 0-32 14.336-32 32v640c0 17.664 14.336 32 32 32h832c17.664 0 32-14.336 32-32z" />
<glyph unicode="&#xe90b;" glyph-name="eye" d="M1015.304 454.932c-0.347 1.323-0.158 2.741-0.662 4.033-0.189 0.536-0.63 0.851-0.851 1.323-0.315 0.788-0.252 1.607-0.662 2.332-91.593 174.899-290.879 300.237-501.13 300.237s-409.54-125.117-501.133-300.016c-0.4-0.725-0.34-1.575-0.646-2.332-0.217-0.504-0.677-0.788-0.866-1.323-0.492-1.292-0.306-2.71-0.614-4.033-0.555-2.363-1.112-4.632-1.112-7.058 0-2.395 0.558-4.663 1.112-7.026 0.309-1.323 0.123-2.741 0.614-4.033 0.189-0.536 0.649-0.819 0.866-1.323 0.306-0.788 0.246-1.607 0.646-2.332 91.593-174.899 290.882-300.237 501.133-300.237s409.537 125.117 501.13 300.016c0.41 0.725 0.347 1.575 0.662 2.332 0.221 0.504 0.662 0.788 0.851 1.323 0.504 1.292 0.315 2.71 0.662 4.033 0.504 2.363 1.071 4.632 1.071 7.058 0 2.395-0.567 4.663-1.071 7.026zM512 196.159c-177.231 0-350.775 100.604-437.254 251.904 86.939 151.552 260.244 251.778 437.254 251.778 177.231 0 350.775-100.604 437.264-251.904-86.961-151.552-260.254-251.778-437.264-251.778zM512 573.968c-0.063 0-0.126-0.032-0.189-0.032-69.569-0.126-125.999-56.43-125.999-125.936 0-8.696 7.058-15.754 15.785-15.754 8.696 0 15.754 7.058 15.754 15.754 0 52.082 42.441 94.46 94.649 94.46 8.696 0 15.754 7.058 15.754 15.754s-7.058 15.754-15.754 15.754zM511.275 668.459c-122.061 0-220.995-98.745-220.995-220.554 0-121.84 98.934-220.554 220.995-220.554 122.029 0 220.963 98.714 220.963 220.554 0 121.809-98.934 220.554-220.963 220.554zM511.275 258.859c-104.448 0-189.424 84.787-189.424 189.046 0 104.227 84.976 189.046 189.424 189.046s189.393-84.819 189.393-189.046c0-104.259-84.945-189.046-189.393-189.046z" />
<glyph unicode="&#xe90c;" glyph-name="fire" d="M703.904 672c-2.016-85.6-66.272-157.888-66.272-157.888 0 159.232-125.728 285.888-125.728 285.888s-1.696-94.784-65.376-190.336c-63.712 222.944-254.816 350.336-254.816 350.336 95.552-350.336-31.84-477.76-31.84-732.544 0-149.504 126.528-291.456 320.032-291.456 286.624 0 342.048 105.216 371.68 223.776 40.8 163.232-20.32 352.992-147.68 512.224zM789.504 175.296c-20.544-82.176-43.808-175.296-309.6-175.296-160.256 0-256 115.648-256 227.456 0 85.632 15.616 155.936 32.128 230.4 20.992 94.368 42.496 190.944 33.184 318.752 98.688-136.608 133.792-317.6 133.792-317.6s91.872 128.992 116.576 188.896c18.944-38.528 36.32-167.904 36.32-295.904 0 0 84.992 69.984 148.736 175.264 67.136-120.352 91.328-246.208 64.864-351.968zM717.696 422.56l-27.168-31.52c-33.696-39.296-65.568-76.544-150.688-119.392-12.192 36.544-23.264 76.8-23.264 138.336v54.72l-48.544-76.096c-16.384-25.952-29.952-47.488-50.208-76.032-30.688 69.184-52.384 120.32-68.864 166.752l-15.328 43.2-16.608-48.32c-21.12-61.472-41.12-119.52-41.12-270.208 0-8.832 7.104-16 16-16 8.8 0 16 7.168 16 16 0 115.488 11.488 172.672 26.848 222.112 16.64-42.304 37.632-90.4 65.216-152l11.232-25.088 16.256 22.176c26.56 36.128 42.368 60.448 59.68 87.776 5.056-47.36 16.768-81.28 28.32-114.88l5.824-16.896 16.16 7.648c86.496 41.088 127.008 78.496 159.136 114.4 4.992-59.648-2.88-124.928-21.568-171.296-3.296-8.16 0.704-17.472 8.896-20.8 1.92-0.768 4-1.152 5.984-1.152 6.304 0 12.32 3.776 14.816 10.016 24.8 61.568 32.256 149.248 18.944 223.456z" />
<glyph unicode="&#xe90d;" glyph-name="food" horiz-adv-x="1008" d="M929.477 290.777h-84.787c-1.418 7.562-3.182 14.903-5.041 22.276l151.174 75.744c15.565 7.814 21.866 26.782 14.084 42.378s-26.656 21.835-42.283 14.115l-144.211-72.247c-55.044 118.942-175.057 201.838-314.289 201.838-169.574 0-310.823-122.722-340.567-284.105h-84.787c-43.449 0-78.769-35.383-78.769-78.927 0-15.47 5.64-30.405 15.911-41.968l110.119-124.109v-23.347c0-43.512 35.32-78.927 78.769-78.927h598.646c43.418 0 78.769 35.415 78.769 78.927v23.347l110.088 124.109c10.272 11.563 15.943 26.498 15.943 41.968 0 43.544-35.352 78.927-78.769 78.927zM812.835 290.777h-17.707l15.722 7.877c0.63-2.647 1.449-5.199 1.985-7.877zM504.123 543.311c126.944 0 236.308-75.776 286.153-184.383l-28.073-14.052c-44.583 98.336-143.234 166.865-258.080 166.865-134.916 0-247.619-94.492-276.322-220.963h-32.421c29.302 143.896 156.593 252.534 308.744 252.534zM648.302 290.777c-24.387 55.643-79.746 94.712-144.179 94.712s-119.792-39.070-144.179-94.712h-33.839c26.025 73.444 95.878 126.283 178.018 126.283 77.698 0 144.526-47.23 173.576-114.499l-23.505-11.784zM504.123 322.347c-27.853 0-52.649-12.351-69.947-31.571h-38.565c21.866 37.557 62.070 63.141 108.512 63.141 46.411 0 86.646-25.584 108.512-63.141h-38.597c-17.298 19.22-42.094 31.571-69.916 31.571zM504.123 448.63c-99.722 0-184.068-66.702-211.259-157.854h-32.516c28.105 108.733 126.566 189.424 243.775 189.424 102.305 0 190.401-61.503 229.849-149.472l-28.136-14.084c-34.249 77.572-111.726 131.986-201.712 131.986zM819.2 69.782v-47.356c0-8.728-7.058-15.785-15.754-15.785h-598.646c-8.728 0-15.754 7.058-15.754 15.785v47.356l-126.031 142.068c0 8.728 7.026 15.785 15.754 15.785h850.708c8.696 0 15.754-7.058 15.754-15.785zM251.305 583.987c0.095-0.189 0.158-0.378 0.252-0.567 0 0 0.032 0 0.063 0 2.647-5.041 7.877-8.539 13.958-8.539 8.759 0 15.848 7.121 15.848 15.88 0 1.355-0.221 2.678-0.567 3.97 0.063 0.189 0.063 0.378 0 0.599-11.815 27.853-0.599 58.384 13.202 91.278 14.903 35.572 30.878 75.020 13.296 115.161-2.269 5.797-7.814 9.893-14.368 9.893-8.539 0-15.47-6.932-15.47-15.47 0-1.89 0.41-3.655 1.008-5.325 0.032-0.063 0.032-0.126 0.063-0.189 0.032-0.095 0.063-0.189 0.095-0.284 0.032-0.126 0.095-0.252 0.126-0.378 12.729-28.704 0.441-58.1-13.454-91.309-14.714-35.037-30.941-73.823-14.588-113.396 0.189-0.473 0.347-0.882 0.536-1.323zM635.038 588.587c0.095-0.189 0.158-0.378 0.252-0.567 0 0 0.032 0 0.063 0 2.647-5.041 7.877-8.539 13.958-8.539 8.728 0 15.848 7.121 15.848 15.88 0 1.355-0.252 2.678-0.567 3.938 0.063 0.221 0.063 0.41 0 0.63-11.815 27.821-0.599 58.384 13.17 91.278 14.935 35.541 30.909 75.020 13.296 115.161-2.237 5.797-7.814 9.893-14.368 9.893-8.507 0-15.439-6.932-15.439-15.47 0-1.89 0.378-3.686 1.008-5.356 0-0.063 0-0.126 0.032-0.158 0.032-0.095 0.063-0.189 0.126-0.284 0.032-0.126 0.095-0.252 0.126-0.378 12.729-28.704 0.41-58.1-13.485-91.309-14.683-35.037-30.941-73.854-14.557-113.396 0.158-0.473 0.347-0.882 0.536-1.323zM473.183 724.827c0.095-0.189 0.158-0.378 0.252-0.567 0 0 0.032 0 0.063 0 2.647-5.041 7.877-8.539 13.958-8.539 8.759 0 15.848 7.121 15.848 15.88 0 1.355-0.221 2.678-0.567 3.938 0.063 0.221 0.063 0.41 0 0.63-11.815 27.821-0.599 58.384 13.202 91.278 14.903 35.541 30.878 75.020 13.296 115.161-2.269 5.797-7.814 9.893-14.368 9.893-8.539 0-15.47-6.932-15.47-15.47 0-1.89 0.41-3.686 1.008-5.356 0.032-0.063 0.032-0.126 0.063-0.189s0.032-0.158 0.095-0.252c0.032-0.126 0.095-0.252 0.126-0.378 12.729-28.704 0.441-58.132-13.454-91.309-14.714-35.037-30.941-73.854-14.588-113.396 0.189-0.473 0.347-0.914 0.536-1.323z" />
<glyph unicode="&#xe90e;" glyph-name="heart" d="M934.144 806.656c-116.16 114.912-301.792 117.344-422.144 9.184-120.32 108.16-305.952 105.728-422.134-9.184-119.718-118.4-119.718-310.336 0-428.768 34.221-33.856 353.686-349.792 353.686-349.792 37.856-37.408 99.072-37.408 136.896 0 0 0 349.824 345.952 353.696 349.792 119.712 118.432 119.712 310.368 0 428.768zM888.48 423.008l-353.664-349.76c-12.576-12.448-33.088-12.448-45.6 0l-353.693 349.76c-94.406 93.344-94.406 245.184 0 338.528 91.005 89.984 237.309 93.152 333.085 7.104l43.392-39.008 43.392 39.008c95.776 86.048 242.144 82.88 333.088-7.104 94.432-93.344 94.432-245.184 0-338.528zM296.064 735.168c-0.064 0-0.064-0.032-0.128-0.032-75.040-0.064-135.872-60.832-135.872-135.808 0-8.832 7.136-16 16-16 8.832 0 16 7.168 16 16v0.032c0 57.344 46.56 103.84 103.968 103.84h0.032c8.832 0 16 7.136 16 15.968s-7.168 16-16 16z" />
<glyph unicode="&#xe90f;" glyph-name="key" d="M701.109 952.123c-174.017 0-315.077-141.091-315.077-315.077 0-40.487 8.476-78.801 22.465-114.341l-382.787-382.787c-11.028-11.059-17.896-21.614-17.896-38.502v-94.523c0-33.745 29.271-63.015 63.015-63.015h94.523c16.888 0 27.569 6.743 38.628 17.77l45.214 45.245h73.823c34.784 0 63.015 28.231 63.015 63.015v63.015h63.015c34.784 0 63.015 28.199 63.015 63.015v73.854l74.673 74.673c35.541-14.021 73.854-22.496 114.373-22.496 173.985 0 315.077 141.060 315.077 315.077 0 173.985-141.091 315.077-315.077 315.077zM701.109 384.985c-46.663 0-89.828 13.548-127.291 35.667l-106.307-106.307c-11.815-11.815-18.464-27.853-18.464-44.552v-73.854h-63.015c-34.816 0-63.015-28.231-63.015-63.015v-63.015h-73.823c-16.699 0-32.736-6.648-44.552-18.464l-44.678-44.678-89.009 0.126-0.095 89.765 367.537 366.876c0 0 0-0.032 0.032-0.063l46.285 46.285c-22.118 37.463-35.667 80.66-35.667 127.291 0 139.201 112.861 252.062 252.062 252.062s252.062-112.861 252.062-252.062c0-139.201-112.861-252.062-252.062-252.062zM884.389 692.531c-35.352 49.184-78.36 92.128-127.732 127.701-8.097 5.829-18.464 7.31-27.853 4.001-43.764-15.407-73.696-45.34-89.041-89.104-1.166-3.245-1.733-6.68-1.733-10.051 0-6.27 1.985-12.509 5.734-17.77 35.446-49.278 78.423-92.223 127.669-127.669 8.066-5.797 18.432-7.31 27.79-4.033 43.796 15.313 73.76 45.277 89.135 89.104 1.166 3.245 1.733 6.68 1.733 10.051 0 6.27-1.953 12.509-5.703 17.77zM789.835 605.192c-46.537 33.524-87.087 74.075-120.359 119.509 12.193 34.753 35.005 57.565 68.781 69.979 46.568-33.587 87.056-74.012 120.202-120.076-12.288-34.469-35.037-57.155-68.624-69.411z" />
<glyph unicode="&#xe910;" glyph-name="lab" d="M664.632 837.533c-14.987 14.987-34.927 23.242-56.137 23.242s-41.119-8.256-56.137-23.274l-44.834-44.865c-15.019-14.955-23.274-34.895-23.306-56.137 0-14.955 4.096-29.275 11.78-41.722l-431.083-172.667c-28.821-12.669-49.501-38.674-55.318-69.537-5.858-30.99 3.969-62.805 26.497-85.286l403.894-399.439c17.4-17.4 40.515-27.275 64.933-27.846 0.54-0.032 1.873-0.032 2.445-0.032 6.414 0 12.891 0.635 19.369 2 31.53 6.541 57.408 28.323 69.124 58.043l169.587 424.714c12.828-8.414 27.783-12.955 43.468-12.955 21.21 0 41.182 8.287 56.106 23.306l44.707 44.675c15.114 15.050 23.465 34.991 23.465 56.296s-8.351 41.278-23.274 56.137zM536.862 23.572c-3.905-9.97-12.606-17.273-23.052-19.432-2.413-0.508-4.858-0.73-7.271-0.667-8.065 0.191-15.812 3.429-21.655 9.272l-404.139 399.693c-7.427 7.398-10.697 18.003-8.744 28.354 1.937 10.288 8.868 18.956 18.464 23.179l197.399 79.062c133.041-44.199 266.081-1.619 399.122-143.582zM864.986 524.84l-44.865-44.865c-6.223-6.255-16.257-6.255-22.449 0l-56.106 56.074-41.697-104.33c-95.571 95.408-192.73 107.442-280.363 118.206-28.164 3.461-55.439 7.081-82.301 12.86l269.637 108.020-54.455 54.423c-6.223 6.223-6.223 16.257 0 22.449l44.897 44.929c6.192 6.223 16.225 6.223 22.449 0l245.252-245.315c6.255-6.192 6.255-16.257 0-22.449zM699.869 431.718c0.002-0.002 0.005-0.005 0.007-0.007l-3.842-9.589zM531.845 289.24c43.754 0 79.38 35.594 79.38 79.38s-35.626 79.38-79.38 79.38c-43.754 0-79.38-35.594-79.38-79.38s35.626-79.38 79.38-79.38zM531.845 416.248c26.322 0 47.628-21.337 47.628-47.628s-21.306-47.628-47.628-47.628c-26.322 0-47.628 21.337-47.628 47.628s21.306 47.628 47.628 47.628zM944.62 956.031c-43.754 0-79.38-35.594-79.38-79.38s35.626-79.38 79.38-79.38c43.754 0 79.38 35.594 79.38 79.38s-35.626 79.38-79.38 79.38zM944.62 829.023c-26.322 0-47.628 21.337-47.628 47.628s21.306 47.628 47.628 47.628c26.322 0 47.628-21.337 47.628-47.628s-21.306-47.628-47.628-47.628zM261.953 416.248c0-35.022 28.481-63.504 63.504-63.504s63.504 28.481 63.504 63.504c0 34.991-28.481 63.504-63.504 63.504s-63.504-28.513-63.504-63.504zM325.457 448c17.527 0 31.752-14.193 31.752-31.752s-14.225-31.752-31.752-31.752c-17.527 0-31.752 14.193-31.752 31.752s14.225 31.752 31.752 31.752zM420.713 193.984c17.527 0 31.752 14.193 31.752 31.752s-14.225 31.752-31.752 31.752c-17.527 0-31.752-14.193-31.752-31.752s14.225-31.752 31.752-31.752zM928.744 733.767c-17.527 0-31.752-14.193-31.752-31.752s14.225-31.752 31.752-31.752c17.527 0 31.752 14.193 31.752 31.752s-14.225 31.752-31.752 31.752z" />
<glyph unicode="&#xe911;" glyph-name="like" d="M933.248 624.928c-39.968 10.496-134.048 10.368-271.616 13.984 6.528 30.048 8 57.088 8 105.152 0 114.816-83.616 215.936-157.632 215.936-52.256 0-95.328-42.72-96-95.232-0.704-64.448-20.608-175.776-128-232.192-7.872-4.16-30.4-15.264-33.696-16.736l0.201-0.171c-16.672 13.899-39.302 24.331-62.505 24.331h-96c-52.928 0-96-43.040-96-96v-512c0-52.96 43.072-96 96-96h96c38.080 0 69.952 22.976 85.376 55.232 0.384-0.128 1.056-0.288 1.504-0.352 2.112-0.576 4.576-1.216 7.648-2.016 0.576-0.128 0.864-0.192 1.472-0.384 18.432-4.544 53.92-13.056 129.76-30.496 16.256-3.68 102.112-21.984 191.136-21.984h174.912c53.344 0 91.744 20.48 114.624 61.664 0.352 0.64 7.712 15.008 13.728 34.464 4.512 14.624 6.176 35.296 0.736 56.288 34.368 23.648 45.408 59.328 52.64 82.56 12.032 38.144 8.416 66.752 0.032 87.264 19.296 18.24 35.808 46.080 42.784 88.512 4.288 26.304-0.32 53.376-12.48 75.904 18.144 20.352 26.4 45.952 27.328 69.632l0.352 6.688c0.256 4.224 0.448 6.816 0.448 16.032 0 40.448-27.968 91.968-90.752 109.92zM224 32c0-17.696-14.304-32-32-32h-96c-17.696 0-32 14.304-32 32v512c0 17.696 14.304 32 32 32h96c17.696 0 32-14.304 32-32zM959.296 494.88c-0.672-15.808-7.296-46.88-63.296-46.88-48 0-64 0-64 0-8.832 0-16-7.136-16-16 0-8.832 7.168-16 16-16 0 0 14.016 0 62.016 0s54.304-39.808 51.168-59.008c-3.904-23.872-15.104-68.992-69.152-68.992-54.016 0-76.032 0-76.032 0-8.832 0-16-7.136-16-16 0-8.832 7.168-16 16-16 0 0 38.016 0 63.008 0 53.984 0 49.28-41.184 41.504-65.76-10.208-32.32-16.448-62.24-84.48-62.24-23.040 0-52.224 0-52.224 0-8.832 0-16-7.136-16-16 0-8.832 7.168-16 16-16 0 0 22.208 0 50.208 0 34.976 0 36.64-33.12 32.992-45.024-4-12.992-8.736-22.624-8.96-23.040-9.664-17.44-25.248-27.936-58.24-27.936h-174.912c-87.904 0-175.040 19.936-177.312 20.416-132.928 30.624-139.936 33.024-148.256 35.392 0 0-27.072 4.544-27.072 28.192l-0.256 441.984c0 15.008 9.568 28.544 25.408 33.344 1.984 0.768 4.672 1.6 6.592 2.4 146.176 60.544 190.688 193.28 192 302.272 0.192 15.328 12 32 32 32 33.856 0 93.632-67.904 93.632-151.936 0-75.872-3.040-88.992-29.632-168.064 320 0 317.76-4.576 346.016-12 34.976-9.984 37.984-39.008 37.984-48.992 0-10.976-0.32-9.376-0.704-20.128zM144 128c-26.496 0-48-21.504-48-48s21.504-48 48-48c26.496 0 48 21.504 48 48s-21.504 48-48 48zM144 64c-8.8 0-16 7.168-16 16 0 8.8 7.2 16 16 16s16-7.2 16-16c0-8.832-7.2-16-16-16z" />
<glyph unicode="&#xe912;" glyph-name="location" d="M512.032 392.128c105.872 0 192 86.112 192 192 0 105.856-86.128 192-192 192-105.875 0-192-86.144-192-192 0-105.888 86.125-192 192-192zM512.032 744.128c88.25 0 160-71.744 160-160s-71.75-160-160-160c-88.253 0-160 71.744-160 160s71.747 160 160 160zM512 960c-211.782 0-384.032-170.112-384.032-384.064 0-224.032 192.032-453.152 332.032-614.176 0.531-0.64 22.998-25.76 50.781-25.76 0.061 0 2.342 0 2.438 0 27.779 0 50.25 25.12 50.781 25.76 140.032 161.024 332.032 390.144 332.032 614.176 0 213.952-172.253 384.064-384.032 384.064zM515.718 3.744c-0.656-0.608-2.624-2.080-4.314-3.168-0.31 0.928-2.688 2.784-4.125 4.288-117.28 134.944-315.312 362.656-315.312 571.072 0 176.48 143.594 320.064 320.032 320.064 176.467 0 320.032-143.584 320.032-320.064 0-208.416-198-436.128-316.314-572.192z" />
<glyph unicode="&#xe913;" glyph-name="lock" d="M800 544v128c0 159.072-128.928 288-288 288s-288-128.928-288-288v-128c-53.024 0-96-42.976-96-96v-224c0-159.072 128.928-288 288-288h192c159.072 0 288 128.928 288 288v224c0 53.024-42.976 96-96 96zM288 672c0 123.712 100.288 224 224 224s224-100.288 224-224v-128h-64v127.904c0 88.384-71.616 160-160 160s-160-71.616-160-160v-127.904h-64zM640 672v-128h-256v128c0 70.688 57.312 128 128 128s128-57.312 128-128zM832 224c0-123.488-100.512-224-224-224h-192c-123.488 0-224 100.512-224 224v224c0 17.664 14.336 32 32 32 21.344 0 42.656 0 64 0h448c21.344 0 42.656 0 64 0 17.664 0 32-14.336 32-32zM512 352c-35.328 0-64-28.672-64-64 0-19.456 10.656-56.32 21.344-85.504 8.736-23.744 19.648-42.464 42.656-42.464 24.992 0 33.952 18.528 42.688 42.144 10.816 29.248 21.312 66.304 21.312 85.824 0 35.328-28.64 64-64 64z" />
<glyph unicode="&#xe914;" glyph-name="mail" d="M896 784h-768c-70.688 0-128-57.312-128-128v-416c0-70.688 57.312-128 128-128h768c70.688 0 128 57.312 128 128v416c0 70.688-57.312 128-128 128zM64 616l223.968-168-223.968-168zM896 176h-768c-35.28 0-64 28.704-64 64l250.624 188 139.776-104.864c17.056-12.768 37.312-19.2 57.6-19.2s40.544 6.432 57.6 19.2l139.776 104.864 250.624-188c0-35.296-28.704-64-64-64zM960 280l-223.968 168 223.968 168zM550.4 348.768c-11.168-8.384-24.448-12.832-38.4-12.832-13.92 0-27.232 4.448-38.4 12.832l-409.6 307.232c0 35.264 28.72 64 64 64h768c35.296 0 64-28.736 64-64z" />
<glyph unicode="&#xe915;" glyph-name="megaphone" d="M800 960c-65.696 0-117.28-45.12-154.368-114.752l-0.704 0.384c-53.792-105.376-133.92-173.632-221.696-173.632h-295.232c-71.776 0-128-70.304-128-160 0-89.76 56.224-160 128-160 35.296-0.128 63.84-28.704 63.84-64v-288c0-35.392 28.672-64 64-64h128c35.36 0 64 28.608 64 64v32c0 32-32 46.304-32 64v224c0 0.736 0.512 1.248 0.576 1.984 0.32 4.576 1.568 8.832 3.584 12.64 0.576 1.056 1.184 1.888 1.888 2.816 2.56 3.808 5.76 6.944 9.696 9.376 0.192 0.128 0.256 0.32 0.448 0.448 0.128 0 0.224 0.096 0.352 0.096 2.56 1.44 5.632 1.76 8.48 2.56 80.8-8.544 153.92-73.728 204.064-171.936l0.864 0.384c37.088-69.376 88.608-114.368 154.208-114.368 147.072 0 224 225.376 224 448s-76.928 448-224 448zM640 512c0 33.184 1.92 65.248 5.248 96h90.752c35.36 0 64-43.008 64-96 0-53.056-28.64-96-64-96h-90.752c-3.328 30.752-5.248 62.752-5.248 96zM64 512c0 52.992 28.672 96 64 96h224.448c-19.84-23.328-32.448-57.184-32.448-96 0-38.88 12.608-72.736 32.448-96h-224.448c-35.328 0-64 42.944-64 96zM383.84 0h-128v288c0 23.296-6.24 45.12-17.184 64h22.336v-0.384h96.256c-3.424-9.92-5.408-20.48-5.408-31.616v-224c0-30.816 17.216-51.328 27.52-63.552 1.376-1.696 3.040-3.456 4.48-5.312zM423.232 415.616h-7.232v0.384c-35.328 0-64 42.944-64 96 0 52.992 28.672 96 64 96h7.232c60.32 0 116.864 23.744 166.592 64.576-9.12-51.52-13.824-106.080-13.824-160.576 0-54.688 4.704-109.44 13.888-160.992-49.728 40.864-106.304 64.608-166.656 64.608zM800 128c-64.576 0-120 91.872-145.312 224h81.312c71.776 0 128 70.24 128 160 0 89.696-56.224 160-128 160h-81.312c25.312 132.064 80.736 224 145.312 224 88.384 0 160-171.936 160-384s-71.616-384-160-384z" />
<glyph unicode="&#xe916;" glyph-name="music" d="M1001.297 941.139c-11.494 9.684-25.973 14.892-40.801 14.892-3.651 0-7.366-0.318-11.018-0.984l-539.846-95.256c-30.355-5.334-52.486-31.688-52.486-62.52v-545.181c-32.196 23.369-74.014 37.15-120.467 37.15-26.957 0-53.978-4.477-80.301-13.209-60.233-20.099-108.56-60.392-132.564-110.624-18.543-38.833-20.925-81.063-6.795-118.975 24.163-64.679 92.811-106.464 174.89-106.464 26.989 0 53.978 4.414 80.269 13.209 60.265 20.035 108.56 60.329 132.564 110.497 10.319 21.655 15.146 44.357 15.368 66.806h0.54v508.031c3.683 0 7.398 0.318 11.050 0.921l528.797 93.351v-385.437c-32.196 23.369-74.014 37.15-120.499 37.15-26.957 0-53.978-4.477-80.301-13.209-60.233-20.099-108.56-60.392-132.533-110.624-18.543-38.833-20.925-81.063-6.795-118.975 24.163-64.679 92.779-106.464 174.858-106.464 26.989 0 54.010 4.414 80.301 13.209 60.265 20.035 108.56 60.329 132.564 110.497 10.319 21.655 15.146 44.357 15.368 66.806h0.54v666.791c0 18.734-8.287 36.578-22.703 48.612zM252.047 13.379c-76.109-25.338-154.727-0.54-175.588 55.28-20.893 55.852 23.846 121.737 99.923 147.075 76.078 25.37 154.727 0.635 175.556-55.248 20.893-55.883-23.814-121.737-99.892-147.107zM854.222 108.635c-76.141-25.338-154.759-0.54-175.62 55.28-20.893 55.852 23.846 121.737 99.923 147.075 76.109 25.37 154.759 0.635 175.588-55.248 20.893-55.883-23.814-121.737-99.892-147.107zM959.226 797.271l-539.846-95.256v95.256l539.846 95.256z" />
<glyph unicode="&#xe917;" glyph-name="news" d="M928 960h-704c-53.030 0-96-42.976-96-96v-64h-32c-53.030 0-96-42.976-96-96v-640c0-70.688 57.312-128 128-128h768c70.688 0 128 57.312 128 128v800c0 53.024-42.97 96-96 96zM960 64c0-35.264-28.72-64-64-64h-768c-35.28 0-64 28.736-64 64v640c0 17.664 14.342 32 32 32h32v-640c0-17.696 14.314-32 32-32s32 14.304 32 32v768c0 17.664 14.342 32 32 32h704c17.658 0 32-14.336 32-32zM623.968 543.808h256c8.845 0 16 7.168 16 16 0 8.864-7.155 16-16 16h-256c-8.842 0-16-7.136-16-16 0-8.832 7.158-16 16-16zM623.968 639.808h256c8.845 0 16 7.168 16 16 0 8.864-7.155 16-16 16h-256c-8.842 0-16-7.136-16-16 0-8.832 7.158-16 16-16zM623.968 735.808h256c8.845 0 16 7.168 16 16 0 8.864-7.155 16-16 16h-256c-8.842 0-16-7.136-16-16 0-8.832 7.158-16 16-16zM528 95.872h-256c-8.845 0-16-7.2-16-16 0-8.896 7.155-16 16-16h256c8.845 0 16 7.104 16 16 0 8.8-7.155 16-16 16zM528 191.872h-256c-8.845 0-16-7.2-16-16 0-8.896 7.155-16 16-16h256c8.845 0 16 7.104 16 16 0 8.8-7.155 16-16 16zM528 287.872h-256c-8.845 0-16-7.2-16-16 0-8.896 7.155-16 16-16h256c8.845 0 16 7.104 16 16 0 8.8-7.155 16-16 16zM880 95.872h-256c-8.845 0-16-7.2-16-16 0-8.896 7.155-16 16-16h256c8.845 0 16 7.104 16 16 0 8.8-7.155 16-16 16zM880 191.872h-256c-8.845 0-16-7.2-16-16 0-8.896 7.155-16 16-16h256c8.845 0 16 7.104 16 16 0 8.8-7.155 16-16 16zM880 287.872h-256c-8.845 0-16-7.2-16-16 0-8.896 7.155-16 16-16h256c8.845 0 16 7.104 16 16 0 8.8-7.155 16-16 16zM880 479.84h-608c-8.845 0-16-7.136-16-16 0-8.832 7.155-16 16-16h608c8.845 0 16 7.168 16 16 0 8.864-7.155 16-16 16zM880 383.872h-608c-8.845 0-16-7.2-16-16 0-8.896 7.155-16 16-16h608c8.845 0 16 7.104 16 16 0 8.8-7.155 16-16 16zM288 544h224c17.686 0 32 14.336 32 32v223.84c0 17.696-14.314 32-32 32h-224c-17.686 0-32-14.304-32-32v-223.84c0-17.664 14.314-32 32-32zM320 768h160v-160h-160z" />
<glyph unicode="&#xe918;" glyph-name="note" d="M1005.248 717.248l-192 192c-12 12-28.288 18.752-45.248 18.752h-672c-52.928 0-96-43.040-96-96v-768c0-52.96 43.072-96 96-96h832c52.928 0 96 43.040 96 96v608c0 16.992-6.752 33.248-18.752 45.248zM960 64c0-17.696-14.304-32-32-32h-832c-17.696 0-32 14.304-32 32v768c0 17.696 14.304 32 32 32h640v-128h-0.032c0-53.024 42.976-96 96-96h128.032zM831.968 672c-35.264 0-64 28.736-64 64h0.032v128l192-192zM496 704h160c8.832 0 16 7.168 16 16 0 8.864-7.168 16-16 16h-160c-8.832 0-16-7.136-16-16 0-8.832 7.168-16 16-16zM496 608h160c8.832 0 16 7.168 16 16 0 8.864-7.168 16-16 16h-160c-8.832 0-16-7.136-16-16 0-8.832 7.168-16 16-16zM480 528c0-8.832 7.168-16 16-16h384c8.832 0 16 7.168 16 16 0 8.864-7.168 16-16 16h-384c-8.832 0-16-7.136-16-16zM880 352h-736c-8.832 0-16-7.136-16-16 0-8.832 7.168-16 16-16h736c8.832 0 16 7.168 16 16 0 8.864-7.168 16-16 16zM880 256h-736c-8.832 0-16-7.136-16-16 0-8.832 7.168-16 16-16h736c8.832 0 16 7.168 16 16 0 8.864-7.168 16-16 16zM880 160h-736c-8.832 0-16-7.136-16-16 0-8.832 7.168-16 16-16h736c8.832 0 16 7.168 16 16 0 8.864-7.168 16-16 16zM880 448h-736c-8.832 0-16-7.136-16-16 0-8.832 7.168-16 16-16h736c8.832 0 16 7.168 16 16 0 8.864-7.168 16-16 16zM160 512h224c17.696 0 32 14.336 32 32v192c0 17.696-14.304 32-32 32h-224c-17.696 0-32-14.304-32-32v-192c0-17.664 14.304-32 32-32zM192 704h160v-128h-160z" />
<glyph unicode="&#xe919;" glyph-name="paperplane" d="M1009.37 954.88c-5.283 3.424-11.344 5.12-17.376 5.12-6.189 0-12.374-1.76-17.75-5.376l-960-640c-9.875-6.56-15.312-18.112-14.061-29.952 1.216-11.808 8.906-21.984 19.933-26.368l250.378-100.192 117.718-205.984c5.626-9.888 16.096-16 27.44-16.128 0.125 0 0.218 0 0.339 0 11.222 0 21.658 5.92 27.44 15.552l66.47 110.816 310.218-124.064c3.811-1.568 7.843-2.304 11.872-2.304 5.44 0 10.848 1.376 15.69 4.128 8.438 4.736 14.282 13.056 15.875 22.624l160 960c2.096 12.544-3.469 25.184-14.186 32.128zM100.368 295.136l741.594 494.432-539.187-577.184c-2.845 1.664-5.376 3.936-8.499 5.184zM326.058 189.888c-0.064 0.096-0.16 0.16-0.221 0.288l606.157 648.832-516.749-805.184zM806.963 12.512l-273.312 109.312c-6.531 2.56-13.286 3.424-19.971 3.808l420.877 652.448z" />
<glyph unicode="&#xe91a;" glyph-name="params" d="M256 767.296v96.704c0 52.928-43.072 96-96 96-52.938 0-96-43.072-96-96v-96.704c-38.656-29.216-64-75.104-64-127.296s25.344-98.080 64-127.264v-480.736c0-52.928 43.062-96 96-96 52.928 0 96 43.072 96 96v480.736c38.656 29.184 64 75.072 64 127.264s-25.344 98.080-64 127.296zM128 864c0 17.696 14.314 32 32 32 17.696 0 32-14.304 32-32v-67.2c-10.336 2.080-21.024 3.2-32 3.2-10.97 0-21.658-1.12-32-3.2zM192 32c0-17.696-14.304-32-32-32-17.686 0-32 14.304-32 32v451.264c10.342-2.144 21.030-3.264 32-3.264 10.976 0 21.664 1.12 32 3.264zM251.68 613.12c-0.48-1.696-0.96-3.36-1.568-5.056-3.008-8.448-6.912-16.448-12.064-23.552-0.128-0.192-0.32-0.32-0.448-0.512-5.568-7.616-12.192-14.368-19.712-20.064-0.128-0.128-0.224-0.192-0.32-0.256-7.712-5.792-16.32-10.496-25.568-13.76-10.048-3.616-20.736-5.92-32-5.92-11.28 0-21.936 2.304-32 5.92-9.251 3.264-17.843 7.968-25.562 13.76-0.096 0.064-0.189 0.128-0.314 0.256-7.53 5.696-14.157 12.448-19.718 20.064-0.125 0.192-0.314 0.32-0.438 0.512-5.155 7.104-9.062 15.104-12.093 23.552-0.595 1.696-1.062 3.36-1.562 5.056-2.563 8.576-4.314 17.504-4.314 26.88 0 9.44 1.75 18.368 4.314 26.944 0.499 1.664 0.966 3.36 1.562 4.992 3.030 8.448 6.938 16.448 12.093 23.616 0.125 0.192 0.314 0.32 0.438 0.512 5.562 7.552 12.189 14.368 19.718 20.064 0.125 0.064 0.218 0.192 0.314 0.256 7.718 5.728 16.31 10.432 25.562 13.728 10.064 3.584 20.72 5.888 32 5.888 11.264 0 21.952-2.304 32-5.888 9.248-3.296 17.856-8 25.568-13.728 0.096-0.064 0.192-0.192 0.32-0.256 7.52-5.696 14.144-12.512 19.712-20.064 0.128-0.192 0.32-0.32 0.448-0.512 5.152-7.168 9.056-15.168 12.064-23.616 0.608-1.632 1.088-3.328 1.568-4.992 2.56-8.576 4.32-17.504 4.32-26.944 0-9.376-1.76-18.304-4.32-26.88zM960 767.296v96.704c0 52.928-43.072 96-96 96s-96-43.072-96-96v-96.704c-38.656-29.216-64-75.104-64-127.296s25.344-98.080 64-127.264v-480.736c0-52.928 43.072-96 96-96s96 43.072 96 96v480.736c38.656 29.184 64 75.072 64 127.264s-25.344 98.080-64 127.296zM832 864c0 17.696 14.304 32 32 32s32-14.304 32-32v-67.2c-10.336 2.080-21.024 3.2-32 3.2s-21.664-1.12-32-3.2zM896 32c0-17.696-14.304-32-32-32s-32 14.304-32 32v451.264c10.336-2.144 21.024-3.264 32-3.264s21.664 1.12 32 3.264zM955.68 613.12c-0.48-1.696-0.96-3.36-1.568-5.056-3.008-8.448-6.912-16.448-12.064-23.552-0.128-0.192-0.32-0.32-0.448-0.512-5.568-7.616-12.192-14.368-19.712-20.064-0.128-0.128-0.224-0.192-0.32-0.256-7.712-5.792-16.32-10.496-25.568-13.76-10.048-3.616-20.704-5.92-32-5.92-11.264 0-21.92 2.304-32 5.92-9.248 3.264-17.856 7.968-25.568 13.76-0.096 0.064-0.192 0.128-0.32 0.256-7.52 5.696-14.144 12.448-19.712 20.064-0.128 0.192-0.32 0.32-0.416 0.512-5.184 7.104-9.088 15.104-12.096 23.552-0.608 1.696-1.088 3.36-1.568 5.056-2.56 8.576-4.32 17.504-4.32 26.88 0 9.44 1.76 18.368 4.32 26.944 0.48 1.664 0.96 3.36 1.568 4.992 3.008 8.448 6.912 16.448 12.096 23.616 0.096 0.192 0.288 0.32 0.416 0.512 5.568 7.552 12.192 14.368 19.712 20.064 0.128 0.064 0.224 0.192 0.32 0.256 7.712 5.728 16.32 10.432 25.568 13.728 10.080 3.584 20.736 5.888 32 5.888 11.296 0 21.952-2.304 32-5.888 9.248-3.296 17.856-8 25.568-13.728 0.096-0.064 0.192-0.192 0.32-0.256 7.52-5.696 14.144-12.512 19.712-20.064 0.128-0.192 0.32-0.32 0.448-0.512 5.152-7.168 9.056-15.168 12.064-23.616 0.608-1.632 1.088-3.328 1.568-4.992 2.56-8.576 4.32-17.504 4.32-26.944 0-9.376-1.76-18.304-4.32-26.88zM608 383.296v480.704c0 52.928-43.072 96-96 96s-96-43.072-96-96v-480.704c-38.656-29.248-64-75.104-64-127.296s25.344-98.080 64-127.264v-96.736c0-52.928 43.072-96 96-96s96 43.072 96 96v96.736c38.656 29.184 64 75.072 64 127.264s-25.344 98.048-64 127.296zM480 864c0 17.696 14.304 32 32 32s32-14.304 32-32v-451.2c-10.336 2.080-21.024 3.2-32 3.2s-21.664-1.12-32-3.2zM544 32c0-17.696-14.304-32-32-32s-32 14.304-32 32v67.264c10.336-2.144 21.024-3.264 32-3.264s21.664 1.12 32 3.264zM603.68 229.12c-0.48-1.696-0.96-3.36-1.568-5.056-3.008-8.448-6.912-16.448-12.064-23.552-0.128-0.192-0.32-0.32-0.448-0.512-5.568-7.616-12.192-14.368-19.712-20.064-0.128-0.128-0.224-0.192-0.32-0.256-7.712-5.792-16.32-10.496-25.568-13.76-10.048-3.616-20.704-5.92-32-5.92-11.264 0-21.92 2.304-32 5.92-9.248 3.264-17.856 7.968-25.568 13.76-0.096 0.064-0.192 0.128-0.32 0.256-7.52 5.696-14.144 12.448-19.712 20.064-0.128 0.192-0.32 0.32-0.416 0.512-5.184 7.104-9.088 15.104-12.096 23.552-0.608 1.696-1.088 3.36-1.568 5.056-2.56 8.576-4.32 17.504-4.32 26.88 0 9.44 1.76 18.368 4.32 26.944 0.48 1.664 0.96 3.36 1.568 4.992 3.008 8.448 6.912 16.448 12.096 23.616 0.096 0.192 0.288 0.32 0.416 0.512 5.568 7.552 12.192 14.368 19.712 20.064 0.128 0.064 0.224 0.192 0.32 0.256 7.712 5.728 16.32 10.432 25.568 13.728 10.080 3.584 20.736 5.888 32 5.888 11.296 0 21.952-2.304 32-5.888 9.248-3.296 17.856-8 25.568-13.728 0.096-0.064 0.192-0.192 0.32-0.256 7.52-5.696 14.144-12.512 19.712-20.064 0.128-0.192 0.32-0.32 0.448-0.512 5.152-7.168 9.056-15.168 12.064-23.616 0.608-1.632 1.088-3.328 1.568-4.992 2.56-8.576 4.32-17.504 4.32-26.944 0-9.376-1.76-18.304-4.32-26.88z" />
<glyph unicode="&#xe91b;" glyph-name="pen" d="M940.672 877.44c-52.672 52.544-121.952 82.56-190.304 82.56-57.6 0-110.688-21.376-149.408-60.064l-155.744-156.928c-0.48-0.448-1.024-0.768-1.504-1.216-0.256-0.256-0.384-0.608-0.64-0.864l0.064-0.064-330.56-333.056c-15.232-15.136-26.304-33.984-32.416-54.56l-75.168-272.256c-0.096-0.736-4.992-22.144-4.992-32.992 0-61.856 50.208-112 112.16-112 12.32 0 36.16 5.888 37.024 5.984l271.296 71.328c20.576 6.112 39.328 17.248 54.56 32.512l488.384 492.224c88.864 88.96 78.848 237.952-22.752 339.392zM512.48 198.528c-2.624 28.896-10.784 57.216-23.008 84.096l302.528 302.496c18.496-58.432 9.024-119.552-31.52-160.128-0.256-0.256-0.576-0.384-0.832-0.64l0.416-0.416-247.296-249.248c0.032 7.936 0.416 15.744-0.288 23.84zM473.408 311.808c-11.936 19.616-25.504 38.528-42.304 55.328-19.584 19.552-42.016 34.816-65.408 47.744l305.024 304.992c23.904-10.624 46.88-25.76 67.136-45.984 17.28-17.28 30.688-36.576 40.96-56.672zM335.552 429.984c-29.6 11.968-60.672 18.752-91.776 19.168l246.496 248.384c37.728 36.8 92.704 47.392 146.816 33.952zM133.376 4.064c-3.488-0.8-14.336-3.552-21.728-4.064-26.304 0.288-47.648 21.696-47.648 48 0.384 5.344 2.528 14.592 3.264 18.016l33.664 122.048c36.576 0.992 75.936-13.248 106.88-44.256 31.456-31.392 46.24-71.52 44.608-108.512zM283.968 43.616c-0.768 42.912-18.24 87.616-53.504 122.784-33.344 33.408-76.96 52.672-120.48 54.368l31.872 115.456c2.304 7.68 6.88 15.232 12.48 21.888 64.192 45.952 162.912 32.384 231.52-36.224 72.512-72.544 83.744-178.752 27.872-242.208-3.712-1.92-7.488-3.808-11.52-5.024zM918.144 583.264l-53.888-54.304c0 7.232 0.864 14.208 0.224 21.568-5.632 61.92-34.528 121.792-81.376 168.608-52.128 52.128-121.28 82.080-189.728 82.272l53.024 53.44c26.464 26.464 63.488 41.152 103.968 41.152 51.552 0 104.416-23.296 145.056-63.84 38.208-38.144 60.992-85.472 64.192-133.376 3.008-44.736-11.712-85.728-41.472-115.52z" />
<glyph unicode="&#xe91c;" glyph-name="phone" d="M766.016 960h-508.031c-52.613 0-95.256-42.643-95.256-95.288v-825.55c0-52.613 42.643-95.256 95.256-95.256l508.031 0.064c52.613 0 95.256 42.611 95.256 95.224v825.55c0 52.645-42.643 95.256-95.256 95.256zM797.767 39.194c0-17.495-14.225-31.752-31.752-31.752l-508.031-0.032c-17.527 0-31.752 14.257-31.752 31.752v63.631l571.535 0.032zM797.767 134.577l-571.535-0.032v634.912l571.535 0.064zM797.767 801.24h-571.535v63.472c0 17.527 14.225 31.752 31.752 31.752l508.031 0.064c17.527 0 31.752-14.257 31.752-31.784zM575.504 848.9c0 8.764-7.112 15.844-15.876 15.844h-95.256c-8.764 0-15.876-7.081-15.876-15.844 0-8.795 7.112-15.908 15.876-15.908h95.256c8.764 0 15.876 7.112 15.876 15.908zM543.752 55.197c0 8.795-7.112 15.876-15.876 15.876h-31.752c-8.764 0-15.876-7.081-15.876-15.876 0-8.764 7.112-15.876 15.876-15.876h31.752c8.764 0 15.876 7.112 15.876 15.876z" />
<glyph unicode="&#xe91d;" glyph-name="photo" d="M864 960h-704c-70.688 0-128-57.312-128-128v-768c0-70.688 57.312-128 128-128h704c70.688 0 128 57.312 128 128v768c0 70.688-57.312 128-128 128zM928 64c0-35.264-28.704-64-64-64h-704c-35.264 0-64 28.736-64 64v768c0 35.296 28.736 64 64 64h704c35.296 0 64-28.704 64-64zM832 832h-640c-17.696 0-32-14.304-32-32v-576c0-17.696 14.304-32 32-32h640c17.696 0 32 14.304 32 32v576c0 17.696-14.304 32-32 32zM832 800v-443.808l-104 112.96c-6.080 6.912-14.816 10.848-24 10.848s-17.92-3.936-24-10.848l-83.264-94.4-252.736 286.4c-6.080 6.912-14.816 10.848-24 10.848s-17.92-3.936-24-10.848l-104-119.936v258.784zM192 492.832l128 147.168 276.672-313.632 88.384-102.368h-493.056zM727.712 224l-109.664 126.56 85.952 97.44 128-140.128v-83.872zM640 544c53.024 0 96 42.976 96 96s-42.976 96-96 96c-53.024 0-96-42.976-96-96s42.976-96 96-96zM640 704c35.296 0 64-28.704 64-64 0-35.264-28.704-64-64-64-35.264 0-64 28.736-64 64 0 35.296 28.736 64 64 64z" />
<glyph unicode="&#xe91e;" glyph-name="search" d="M640 960c-212.064 0-384-171.936-384-384 0-64.832 16.224-125.856 44.64-179.424l-267.008-266.944 0.224-0.224c-20.864-20.512-33.856-48.928-33.856-80.48 0-62.368 50.56-112.928 112.928-112.928 31.552 0 59.968 12.992 80.48 33.856l-0.064 0.064 266.912 266.848c53.632-28.48 114.752-44.768 179.744-44.768 212.064 0 384 171.936 384 384s-171.936 384-384 384zM153.44 9.856c-10.304-10.656-24.576-17.376-40.512-17.376-31.168 0-56.448 25.28-56.448 56.448 0 15.936 6.72 30.208 17.376 40.512l-0.288 0.256 258.112 258.112c22.56-30.432 49.44-57.312 79.808-79.936zM640 256c-176.704 0-320 143.296-320 320s143.296 320 320 320c176.736 0 320-143.296 320-320s-143.264-320-320-320zM640 800c-123.712 0-224-100.288-224-224 0-8.832 7.168-16 16-16s16 7.168 16 16c0 106.016 85.984 192 192 192 8.832 0 16 7.168 16 16s-7.168 16-16 16z" />
<glyph unicode="&#xe91f;" glyph-name="settings" d="M972.544 554.272l-98.112 19.68c-4.928 14.176-10.72 27.936-17.152 41.248l55.52 83.296c16.96 25.376 13.568 59.2-8 80.768l-61.536 61.536c-12.384 12.384-28.768 18.752-45.28 18.752-12.288 0-24.672-3.52-35.488-10.752l-83.296-55.52c-13.344 6.464-27.104 12.224-41.28 17.152l-19.648 98.112c-5.952 29.92-32.224 51.456-62.752 51.456h-87.040c-30.496 0-56.8-21.536-62.752-51.456l-19.648-98.112c-14.208-4.928-27.968-10.72-41.28-17.152l-83.296 55.52c-10.848 7.232-23.2 10.752-35.456 10.752-16.544 0-32.928-6.368-45.312-18.752l-61.536-61.536c-21.568-21.568-24.96-55.392-8-80.768l55.52-83.296c-6.464-13.344-12.224-27.104-17.152-41.28l-98.112-19.648c-29.92-5.952-51.456-32.256-51.456-62.752v-87.040c0-30.496 21.536-56.8 51.456-62.752l98.112-19.68c4.928-14.176 10.72-27.936 17.152-41.248l-55.52-83.296c-16.96-25.376-13.568-59.2 8-80.768l61.536-61.536c12.384-12.384 28.768-18.752 45.312-18.752 12.256 0 24.64 3.52 35.456 10.752l83.296 55.52c13.344-6.464 27.104-12.224 41.28-17.152l19.648-98.112c5.952-29.92 32.256-51.456 62.752-51.456h87.040c30.528 0 56.8 21.536 62.752 51.456l19.68 98.112c14.176 4.928 27.936 10.72 41.248 17.152l83.296-55.52c10.848-7.232 23.2-10.752 35.488-10.752 16.512 0 32.896 6.368 45.28 18.752l61.536 61.536c21.568 21.568 24.96 55.392 8 80.768l-55.52 83.296c6.464 13.344 12.224 27.104 17.152 41.28l98.112 19.648c29.92 5.952 51.456 32.256 51.456 62.752v87.040c0 30.496-21.536 56.8-51.456 62.752zM861.888 384.832c-22.24-4.416-40.448-20.288-47.872-41.696-4.128-11.808-8.928-23.296-14.336-34.432-9.888-20.384-8.256-44.512 4.352-63.392l55.52-83.328-61.568-61.536-83.296 55.52c-10.688 7.136-23.072 10.752-35.488 10.752-9.504 0-19.040-2.112-27.872-6.368-11.104-5.376-22.592-10.24-34.432-14.368-21.408-7.424-37.28-25.632-41.696-47.872l-19.68-98.112h-87.040l-19.648 98.112c-4.416 22.24-20.288 40.448-41.696 47.872-11.808 4.128-23.296 8.928-34.4 14.336-8.864 4.288-18.4 6.4-27.936 6.4-12.416 0-24.8-3.616-35.488-10.752l-83.328-55.52-61.536 61.536 55.52 83.328c12.576 18.88 14.208 42.976 4.384 63.36-5.376 11.104-10.24 22.592-14.368 34.432-7.424 21.408-25.632 37.28-47.872 41.696l-98.080 19.68-0.032 87.040 98.112 19.648c22.24 4.416 40.448 20.288 47.872 41.696 4.128 11.808 8.928 23.296 14.336 34.432 9.888 20.384 8.256 44.512-4.352 63.392l-55.52 83.296 61.536 61.568 83.328-55.52c10.688-7.136 23.072-10.752 35.488-10.752 9.504 0 19.040 2.112 27.904 6.368 11.072 5.376 22.56 10.24 34.4 14.368 21.408 7.424 37.28 25.632 41.696 47.872l19.68 98.080 87.040 0.032 19.648-98.112c4.416-22.24 20.288-40.448 41.696-47.872 11.84-4.128 23.296-8.928 34.432-14.336 8.832-4.288 18.368-6.4 27.904-6.4 12.416 0 24.8 3.616 35.488 10.752l83.296 55.52 61.568-61.568-55.52-83.296c-12.576-18.88-14.208-42.976-4.384-63.36 5.376-11.104 10.24-22.56 14.368-34.432 7.424-21.408 25.632-37.28 47.872-41.696l98.080-19.68 0.032-87.040zM512 672c-123.68 0-224-100.32-224-224s100.32-224 224-224c123.68 0 224 100.32 224 224s-100.32 224-224 224zM512 252c-108.224 0-196 87.776-196 196s87.776 196 196 196c108.224 0 196-87.776 196-196s-87.776-196-196-196zM512 576c-70.72 0-128-57.28-128-128s57.28-128 128-128c70.72 0 128 57.28 128 128s-57.28 128-128 128zM512 352c-52.992 0-96 43.008-96 96s43.008 96 96 96c52.992 0 96-43.008 96-96s-43.008-96-96-96z" />
<glyph unicode="&#xe920;" glyph-name="shop" d="M1004.797 601.6l-95.952 127.936c-3.766 5.024-8.237 9.376-12.861 13.536v152.928c0 35.328-28.656 64-64 64h-640c-35.344 0-64-28.672-64-64v-152.96c-4.592-4.128-9.030-8.448-12.781-13.44l-95.952-127.968c-12.422-16.512-19.251-36.992-19.251-57.632v-32c0-52.928 43.062-96 96-96h-0.016v-416c0-35.36 28.656-64 64-64h704c35.344 0 64 28.64 64 64v416h0.016c52.938 0 96 43.072 96 96v32c0 20.64-6.829 41.12-19.203 57.6zM831.984 896v-128h-640v128zM326.189 480h-134.064l128 224h70.064zM423.485 704h72.499v-224h-136.499zM527.984 704h72.499l64-224h-136.499zM633.782 704h70.061l128-224h-134.061zM64 512v32c0 6.944 2.25 13.664 6.406 19.2l96 128c6.032 8.064 15.517 12.8 25.594 12.8h91.267l-127.987-224h-59.28c-17.67 0-32 14.304-32 32zM639.984 0h-240v320h240zM863.984 0h-192v320c0 17.696-14.326 32-32 32h-240c-17.67 0-32-14.304-32-32v-320h-208v416h704zM960 512c0-17.696-14.33-32-32-32h-59.296l-128 224h91.296c10.077 0 19.562-4.736 25.594-12.8l96-128c4.157-5.536 6.406-12.256 6.406-19.2z" />
<glyph unicode="&#xe921;" glyph-name="sound" d="M865.050 511.377h0.064c0.064-8.7 7.112-15.749 15.876-15.749s15.876 7.112 15.876 15.876c0 0.095-0.064 0.159-0.064 0.254-0.191 174.921-141.899 316.63-316.916 317.075-0.286 0.032-0.54 0.191-0.857 0.191-8.764 0-15.876-7.112-15.876-15.876 0-8.732 7.081-15.844 15.844-15.876v-0.127c157.744 0 286.053-128.183 286.053-285.767zM296.849 928.121c-18.226 18.226-42.611 27.91-67.441 27.91-12.288 0-24.671-2.35-36.451-7.271-35.626-14.701-58.868-49.438-58.868-87.985l-0.032-436.843-99.161-99.098c-37.277-37.182-37.277-97.51 0-134.692l222.454-222.264c18.638-18.607 43.024-27.91 67.441-27.91 24.385 0 48.771 9.303 67.409 27.91l99.193 99.098h437.224c38.579 0 73.347 23.179 88.080 58.805 14.796 35.594 6.604 76.586-20.671 103.797zM446.432 111.874l-99.193-99.098c-8.097-8.097-17.559-9.303-22.449-9.303-4.922 0-14.384 1.207-22.48 9.303l-222.486 222.264c-8.097 8.097-9.303 17.559-9.303 22.449s1.207 14.352 9.303 22.417l99.161 99.13c0.286 0.286 0.381 0.699 0.667 0.953l267.764-267.478c-0.286-0.254-0.699-0.349-0.984-0.635zM491.393 130.481c-4.953 0-9.494-1.746-14.225-2.826l-282.37 282.116c1.080 4.699 2.826 9.272 2.826 14.161l0.032 382.484 676.602-675.935zM957.988 150.072c-4.953-11.907-16.448-19.591-29.371-19.591h-9.43l-721.531 720.832v9.462c0 12.891 7.684 24.417 19.591 29.339 3.937 1.619 8.001 2.413 12.161 2.413 8.478 0 16.479-3.302 22.449-9.272l699.241-698.574c9.113-9.113 11.812-22.703 6.89-34.61zM578.997 892.527v-0.127c210.325 0 381.404-170.921 381.404-381.023h0.064c0.064-17.495 14.257-31.625 31.752-31.625 17.559 0 31.784 14.193 31.784 31.752 0 0.095-0.064 0.159-0.064 0.254-0.191 245.061-198.831 443.638-444.051 444.083-0.286 0.032-0.54 0.191-0.857 0.191-17.559 0-31.784-14.193-31.784-31.752 0-17.527 14.225-31.72 31.752-31.752z" />
<glyph unicode="&#xe922;" glyph-name="stack" d="M1021.568 369.44l-128.064 480.192c-7.744 27.264-33.024 46.368-61.504 46.368h-640c-28.48 0-53.76-19.104-61.504-46.368l-128.064-480.192c-1.632-5.856-2.432-11.712-2.432-17.44v-224c0-70.688 57.312-128 128-128h768c70.688 0 128 57.312 128 128v224c0 5.728-0.8 11.584-2.432 17.44zM960 128c0-35.296-28.704-64-64-64h-768c-35.264 0-64 28.704-64 64v224l128.032 480.032h639.936l128.032-480.032zM759.744 768h-495.488c-14.496 0-27.2-9.76-30.944-23.776l-110.24-384c-2.528-9.6-0.512-19.84 5.568-27.712 6.048-7.904 15.424-12.512 25.376-12.512h146.176l46.304-92.64c10.848-21.664 32.992-35.36 57.248-35.36h216.512c24.256 0 46.4 13.696 57.248 35.36l46.304 92.64h146.208c9.92 0 19.296 4.608 25.376 12.512 6.048 7.872 8.064 18.112 5.536 27.712l-110.24 384c-3.744 14.016-16.448 23.776-30.944 23.776zM723.808 384c-24.384 0-46.304-13.536-57.248-35.392l-46.304-92.608h-216.512l-46.304 92.608c-10.944 21.856-32.864 35.392-57.248 35.392h-129.504l93.568 352h495.488l93.568-352z" />
<glyph unicode="&#xe923;" glyph-name="star" d="M1012.374 572.235c-8.728 25.175-31.13 43.607-58.069 47.608l-262.333 39.007-114.058 236.749c-11.973 24.86-37.683 40.771-65.914 40.771s-53.91-15.911-65.914-40.771l-114.026-236.749-262.365-39.007c-26.971-4.001-49.373-22.433-58.037-47.608-8.696-25.206-2.143-52.996 16.92-71.995l192.26-191.976-44.583-266.272c-4.537-26.782 7.089-53.721 29.869-69.411 12.509-8.57 27.223-12.95 41.937-12.95 12.099 0 24.198 2.962 35.226 8.822l228.714 123.132 228.746-123.132c10.996-5.86 23.127-8.822 35.194-8.822 14.714 0 29.397 4.38 41.968 12.95 22.749 15.691 34.375 42.63 29.869 69.411l-44.615 266.272 192.291 191.976c19.031 18.999 25.553 46.789 16.92 71.995zM751.080 357.793c-16.132-16.1-23.442-38.723-19.724-60.936l44.583-266.303-228.714 123.101c-10.996 5.923-23.095 8.854-35.226 8.854-12.099 0-24.229-2.93-35.194-8.854l-228.746-123.101 44.615 266.303c3.718 22.213-3.592 44.835-19.724 60.936l-192.26 191.913 262.333 39.101c23.977 3.56 44.615 18.558 54.949 39.92l114.026 236.717 114.058-236.717c10.303-21.362 30.909-36.36 54.886-39.92l262.365-39.101z" />
<glyph unicode="&#xe924;" glyph-name="study" d="M1024 704c0 44.992-30.608 83.456-74.406 93.568l-416.422 96.096c-6.982 1.568-14.109 2.336-21.171 2.336s-14.189-0.768-21.594-2.432l-415.968-96c-43.83-10.112-74.438-48.576-74.438-93.568s30.608-83.456 74.406-93.568l85.594-19.744v-270.688c0-84.928 97.203-160 352-160s352 75.072 352 160v270.688l85.562 19.744c43.83 10.112 74.438 48.576 74.438 93.568zM800 320c0-35.392-96-96-288-96s-288 60.608-288 96v255.904l266.829-61.568c6.982-1.568 14.109-2.336 21.171-2.336s14.189 0.768 21.594 2.432l266.406 61.472zM519.203 576.8c-2.374-0.512-4.781-0.8-7.203-0.8s-4.829 0.288-7.203 0.8l-416 96c-14.515 3.36-24.797 16.288-24.797 31.2s10.282 27.84 24.797 31.2l416 96c2.374 0.512 4.781 0.8 7.203 0.8s4.829-0.288 7.203-0.8l416-96c14.515-3.36 24.797-16.288 24.797-31.2s-10.282-27.84-24.797-31.2zM928 544v-288c0-17.696 14.33-32 32-32s32 14.304 32 32v288c0 17.696-14.33 32-32 32s-32-14.304-32-32zM960 192c-35.344 0-64-92.672-64-128 0-35.36 28.656-64 64-64s64 28.64 64 64c0 35.328-28.656 128-64 128z" />
<glyph unicode="&#xe925;" glyph-name="tag" d="M996.744 515.314l-158.76 254.016c-23.195 37.118-63.907 59.694-107.69 59.694h-603.287c-70.14 0-127.008-56.868-127.008-127.008v-508.031c0-70.14 56.868-127.008 127.008-127.008h603.287c43.783 0 84.495 22.576 107.69 59.694l158.76 254.016c25.767 41.182 25.767 93.446 0 134.628zM942.915 414.343l-158.791-254.047c-11.659-18.67-31.784-29.815-53.829-29.815h-603.287c-35.007 0-63.504 28.481-63.504 63.504v508.031c0 34.991 28.497 63.504 63.504 63.504h603.287c22.045 0 42.17-11.177 53.829-29.815l158.76-254.047c12.806-20.448 12.806-46.866 0.032-67.314zM730.295 543.256c-52.619 0-95.256-42.643-95.256-95.256s42.637-95.256 95.256-95.256c52.619 0 95.256 42.643 95.256 95.256s-42.637 95.256-95.256 95.256zM730.295 384.496c-35.070 0-63.504 28.45-63.504 63.504s28.434 63.504 63.504 63.504c35.070 0 63.504-28.45 63.504-63.504s-28.434-63.504-63.504-63.504z" />
<glyph unicode="&#xe926;" glyph-name="trash" d="M959.405 741.856c-3.091 50.24-44.374 90.112-95.405 90.112h-96v32.032c0 53.024-42.97 96-96 96h-320c-53.030 0-96-42.976-96-96v-32.032h-96c-51.030 0-92.314-39.872-95.405-90.112h-0.595v-69.856c0-35.36 28.656-64 64-64v-544c0-70.688 57.312-128 128-128h512c70.688 0 128 57.312 128 128v544c35.344 0 64 28.64 64 64v69.856zM320 863.968c0 17.696 14.314 32 32 32h320c17.686 0 32-14.304 32-32v-32h-384zM832 64c0-35.296-28.72-64-64-64h-512c-35.28 0-64 28.704-64 64v544h640zM896 672h-768v63.968c0 17.696 14.314 32 32 32h704c17.686 0 32-14.304 32-32zM288 63.872h64c17.686 0 32 14.304 32 32v416c0 17.696-14.314 32-32 32h-64c-17.686 0-32-14.304-32-32v-416c0-17.696 14.314-32 32-32zM288 511.872h64v-416h-64zM480 63.872h64c17.686 0 32 14.304 32 32v416c0 17.696-14.314 32-32 32h-64c-17.686 0-32-14.304-32-32v-416c0-17.696 14.314-32 32-32zM480 511.872h64v-416h-64zM672 63.872h64c17.686 0 32 14.304 32 32v416c0 17.696-14.314 32-32 32h-64c-17.686 0-32-14.304-32-32v-416c0-17.696 14.314-32 32-32zM672 511.872h64v-416h-64z" />
<glyph unicode="&#xe927;" glyph-name="truck" d="M794.624 593.76c-5.92 8.896-15.904 14.24-26.624 14.24h-31.968c-17.696 0-32-14.304-32-32v-192c0-17.696 14.304-32 32-32h128c17.664 0 32 14.304 32 32v48c0 6.304-1.888 12.512-5.376 17.76zM864.032 384h-128v192h31.968l96.032-144zM1007.904 469.248l-128 192c-17.888 26.784-47.776 42.752-79.872 42.752h-128.032v64c0 52.928-43.040 96-96 96h-480c-52.96 0-96-43.072-96-96v-352c0-52.928 43.040-96 96-96v-96c0-52.928 43.072-96 96-96h36.544c14.272-55.072 63.968-96 123.488-96 59.424 0 109.12 40.928 123.424 96h169.056c14.304-55.072 64-96 123.488-96 59.456 0 109.152 40.928 123.456 96h36.544c52.96 0 96 43.072 96 96v192c0 19.008-5.536 37.44-16.096 53.248zM96 384c-17.664 0-32 14.304-32 32v352c0 17.696 14.336 32 32 32h480c17.696 0 32.032-14.304 32.032-32v-352c0-17.696-14.336-32-32.032-32zM352.032 96c-35.392 0-64 28.64-64 64 0 35.328 28.608 64 64 64 35.296 0 63.968-28.672 63.968-64 0-35.36-28.672-64-63.968-64zM768 96c-35.36 0-63.968 28.64-63.968 64 0 35.328 28.608 64 63.968 64 35.328 0 64.032-28.672 64.032-64 0-35.36-28.704-64-64.032-64zM960.032 224c0-17.696-14.336-32-32.032-32h-36.544c-14.304 55.072-64 96-123.456 96-59.488 0-109.184-40.928-123.488-96h-169.056c-14.304 55.072-64 96-123.424 96-59.52 0-109.216-40.928-123.488-96h-36.544c-17.664 0-32 14.304-32 32v96h416c52.96 0 96 43.072 96 96v224h128.032c10.688 0 20.672-5.344 26.624-14.24l127.968-192c3.52-5.248 5.408-11.456 5.408-17.76z" />
<glyph unicode="&#xe928;" glyph-name="t-shirt" d="M1000 753.952l-160 128c-11.36 9.12-25.472 14.048-40 14.048h-576c-14.528 0-28.608-4.928-39.968-14.048l-160-128c-20.96-16.736-29.216-44.768-20.736-70.208l64-192c6.304-18.912 21.056-33.824 39.936-40.288 6.784-2.304 13.792-3.456 20.768-3.456 11.136 0 22.176 2.912 32 8.576v-392.576c0-35.36 28.64-64 64-64h576c35.36 0 64 28.64 64 64v392.576c9.824-5.664 20.864-8.576 32-8.576 6.976 0 13.984 1.152 20.768 3.456 18.88 6.464 33.632 21.376 39.968 40.288l63.968 192c8.48 25.44 0.224 53.472-20.704 70.208zM632.128 832c-17.664-37.152-64.576-64-120.128-64s-102.464 26.848-120.128 64zM896 512l-96 64v-512h-576v512l-96-64-64 192 160 128h133.664c17.824-55.104 79.872-96 154.336-96s136.512 40.896 154.336 96h133.664l160-128z" />
<glyph unicode="&#xe929;" glyph-name="tv" d="M711.402 698.078c-86.048 17.686-173.366 26.64-259.509 26.64-86.111 0-173.429-8.954-259.509-26.64-11.145-2.286-20.226-10.351-23.782-21.179-45.85-139.105-45.85-280.116 0-419.221 3.556-10.827 12.637-18.892 23.782-21.179 86.080-17.686 173.397-26.64 259.509-26.64 86.143 0 173.461 8.954 259.509 26.64 11.145 2.286 20.258 10.351 23.814 21.179 45.85 139.105 45.85 280.116 0 419.221-3.556 10.827-12.669 18.892-23.814 21.179zM705.020 267.585c-168.73-34.641-337.491-34.641-506.221 0-43.881 133.168-43.881 266.24 0 399.376 168.73 34.641 337.491 34.641 506.221 0 43.881-133.136 43.881-266.208 0-399.376zM987.39 771.235c-6.16 25.846-27.783 45.151-54.169 48.326-138.597 16.797-279.131 25.338-417.76 25.338-138.597 0-279.131-8.541-417.728-25.338-26.386-3.175-48.009-22.48-54.169-48.326-48.612-203.943-48.612-410.775 0-614.718 6.16-25.846 27.783-45.151 54.169-48.326 66.774-8.097 133.993-14.066 201.212-18.257-3.62-2.318-5.969-4.668-5.969-7.081 0-17.559 99.606-31.752 222.486-31.752s222.486 14.193 222.486 31.752c0 2.413-2.318 4.763-5.969 7.081 67.251 4.191 134.469 10.161 201.244 18.257 26.386 3.175 48.009 22.48 54.169 48.326 48.58 203.943 48.58 410.775 0 614.718zM925.537 171.218c-273.384-33.149-546.768-33.149-820.153 0-46.485 195.116-46.485 390.2 0 585.315 273.384 33.149 546.768 33.149 820.153 0 46.517-195.116 46.517-390.2 0-585.315zM849.206 590.884c26.322 0 47.66 21.337 47.66 47.628s-21.337 47.628-47.66 47.628c-26.322 0-47.691-21.337-47.691-47.628s21.369-47.628 47.691-47.628zM849.206 654.388c8.732 0 15.876-7.144 15.876-15.876s-7.144-15.876-15.876-15.876c-8.764 0-15.908 7.144-15.908 15.876s7.144 15.876 15.908 15.876zM880.989 273.364h-95.351c-8.795 0-15.908-7.112-15.908-15.876s7.112-15.876 15.908-15.876h95.351c8.764 0 15.876 7.112 15.876 15.876s-7.112 15.876-15.876 15.876zM912.773 368.62h-95.351c-8.795 0-15.908-7.112-15.908-15.876s7.112-15.876 15.908-15.876h95.351c8.764 0 15.876 7.112 15.876 15.876s-7.112 15.876-15.876 15.876zM912.773 463.876h-95.351c-8.795 0-15.908-7.112-15.908-15.876s7.112-15.876 15.908-15.876h95.351c8.764 0 15.876 7.112 15.876 15.876s-7.112 15.876-15.876 15.876zM436.018 597.075l-145.773-11.399c-8.668-0.984-16.956-8.859-18.416-17.495l-9.716-88.461c-0.445-8.7 6.319-15.844 15.050-15.844 8.7 0 16.098 7.144 16.448 15.876l5.303 60.138c1.175 8.668 9.272 16.448 17.94 17.337l119.165 8.16c8.764 0.318 15.876 7.684 15.876 16.448 0 8.732-7.112 15.59-15.876 15.241z" />
<glyph unicode="&#xe92a;" glyph-name="user" d="M988.050 59.321c-6.302 4.191-121.21 79.557-292.139 116.515 62.7 79.494 102.967 186.305 120.044 257.418 23.725 98.556 14.525 291.383-80.093 411.553-55.328 70.199-132.742 107.315-223.862 107.315s-168.535-37.116-223.831-107.315c-94.649-120.17-103.849-312.997-80.124-411.553 17.109-71.113 57.344-177.924 120.044-257.418-170.92-36.959-285.844-112.325-292.152-116.515-23.108-15.407-33.414-44.111-25.354-70.672 8.031-26.592 32.554-44.772 60.309-44.772h882.215c27.758 0 52.271 18.18 60.306 44.772 8.066 26.561-2.237 55.264-25.364 70.672zM646.443 214.906l-10.303-13.107c-75.146-86.3-173.135-86.3-248.249 0l-10.335 13.107c-87.749 111.191-131.293 258.237-112.545 398.541 17.203 134.821 94.46 275.661 246.989 275.661s229.786-140.839 246.989-275.661c18.653-140.367-24.734-287.319-112.545-398.541zM70.892 6.892c4.339 2.899 111.096 72.877 270.525 107.347l78.265 16.951c27.916-18.369 58.604-29.775 92.318-29.775s64.402 11.406 92.318 29.775l78.265-16.951c158.2-34.186 264.57-103.408 270.525-107.347z" />
<glyph unicode="&#xe92b;" glyph-name="video" d="M960 768h-28.352c-16.8 0-32.96-6.624-44.928-18.432l-86.72-85.504v39.936c0 53.024-42.976 96-96 96h-608c-52.928 0-96-43.072-96-96v-512c0-53.024 42.976-96 96-96h608c53.024 0 96 42.976 96 96v39.040l86.72-85.504c11.968-11.808 28.128-18.432 44.928-18.432h28.352c35.36 0 64 28.64 64 64v512.896c0 35.328-28.64 64-64 64zM96 160c-17.664 0-32 14.336-32 32v512c0 17.696 14.304 32 32 32h608c17.664 0 32-14.336 32-32v-512c0-17.664-14.336-32-32-32zM960 191.104h-32l-128 128v0.896l-32 32v192l160 160h32z" />
<glyph unicode="&#xe92c;" glyph-name="vinyl" d="M699.376 916.015c-258.458 103.471-551.889-22.118-655.36-280.576-103.534-258.489 22.118-551.952 280.576-655.423 258.458-103.503 551.889 22.118 655.392 280.576 103.503 258.489-22.118 551.92-280.608 655.423zM348.034 38.495c-225.816 90.459-335.935 347.687-245.539 573.503 90.427 225.784 347.656 335.967 573.472 245.508 225.816-90.427 335.935-347.687 245.539-573.472-90.427-225.816-347.687-335.935-573.472-245.539zM535.442 506.51c-32.327 12.95-69.002-2.773-81.952-35.068-12.918-32.327 2.773-69.002 35.068-81.92 32.295-12.95 69.002 2.773 81.92 35.037 12.95 32.327-2.741 69.002-35.037 81.952zM500.279 418.761c-16.132 6.491-23.977 24.828-17.55 40.992 6.491 16.1 24.86 23.946 40.992 17.518 16.1-6.459 23.977-24.828 17.518-40.992-6.491-16.1-24.86-23.946-40.96-17.518zM582.262 623.498c-96.918 38.817-206.974-8.318-245.76-105.204-38.817-96.918 8.318-206.943 105.204-245.76 96.949-38.817 206.974 8.287 245.792 105.204s-8.318 206.943-105.236 245.76zM465.148 331.043c-64.496 25.805-95.972 99.344-70.168 163.84 25.836 64.496 99.344 95.972 163.872 70.136s95.972-99.375 70.168-163.872c-25.868-64.496-99.375-96.004-163.872-70.105zM746.008 354.328c3.214 8.066-0.725 17.235-8.791 20.448-8.066 3.277-17.266-0.662-20.48-8.759l-0.032 0.032c-22.654-56.588-66.040-98.588-117.933-120.8-7.971-3.434-11.689-12.666-8.287-20.638 3.434-8.034 12.698-11.721 20.701-8.318 0.284 0.126 0.41 0.378 0.662 0.473 59.014 25.49 108.386 73.318 134.128 137.563zM854.205 327.956c-8.066 3.245-17.266-0.725-20.48-8.759-35.572-88.883-103.818-154.86-185.36-189.802-7.971-3.403-11.689-12.666-8.255-20.669 3.434-8.034 12.666-11.689 20.669-8.287 0.41 0.189 0.662 0.536 1.040 0.725 88.505 38.219 162.58 109.962 201.145 206.312 3.245 8.066-0.693 17.235-8.759 20.48zM795.695 351.366c-8.097 3.245-17.235-0.662-20.512-8.759-29.082-72.72-84.882-126.724-151.615-155.27h0.032c-8.003-3.434-11.721-12.698-8.287-20.701 3.403-8.003 12.666-11.689 20.669-8.287 0.347 0.158 0.504 0.441 0.851 0.63 73.728 31.823 135.452 91.593 167.621 171.906 3.245 8.097-0.693 17.266-8.759 20.48zM433.514 671.453c-3.466 8.034-12.698 11.689-20.701 8.255-0.284-0.095-0.441-0.347-0.693-0.441-59.014-25.49-108.386-73.35-134.097-137.563h-0.032c-3.245-8.097 0.693-17.235 8.759-20.448 8.097-3.245 17.266 0.693 20.512 8.759h0.032c22.623 56.525 66.040 98.556 117.933 120.737 7.971 3.434 11.689 12.666 8.287 20.701zM383.89 787.306c-3.466 8.003-12.698 11.689-20.701 8.287-0.378-0.158-0.63-0.504-0.977-0.693-88.537-38.25-162.58-109.962-201.177-206.312-3.245-8.097 0.693-17.266 8.759-20.512s17.235 0.693 20.48 8.759c35.572 88.883 103.786 154.86 185.36 189.802 7.971 3.434 11.689 12.666 8.255 20.669zM400.4 708.726c8.003 3.403 11.721 12.635 8.287 20.669-3.434 7.971-12.698 11.689-20.701 8.255-0.315-0.126-0.473-0.441-0.819-0.567-73.76-31.854-135.483-91.687-167.621-171.969-3.277-8.097 0.693-17.235 8.759-20.48 8.066-3.214 17.235 0.662 20.48 8.759 29.082 72.72 84.945 126.755 151.615 155.27z" />
<glyph unicode="&#xe92d;" glyph-name="wallet" d="M571.535 400.372c-35.086 0-63.504-28.45-63.504-63.504 0-35.086 28.418-63.504 63.504-63.504s63.504 28.418 63.504 63.504c0 35.054-28.418 63.504-63.504 63.504zM920.87 559.132c-0.032 0-0.032 0-0.064 0v285.767c0 52.613-42.643 95.256-95.256 95.256h-650.915c-96.304 0-174.636-78.364-174.636-174.636v-635.039c0-96.272 78.332-174.636 174.636-174.636h571.535c96.304 0 174.636 78.364 174.636 174.636v47.628c0.032 0 0.032 0 0.064 0 126.944 95.288 126.944 285.736 0 381.023zM174.636 876.651h650.915c17.495 0 31.752-14.225 31.752-31.752v-196.354c-9.97 3.556-20.575 5.842-31.752 5.842v158.76c0 17.559-14.225 31.752-31.752 31.752h-666.791c-17.559 0-31.752-14.193-31.752-31.752v-125.198c-19.591 20.004-31.752 47.342-31.752 77.57 0 61.376 49.755 111.132 111.132 111.132zM793.798 781.395h-666.791v31.752h666.791zM793.798 749.643v-31.752h-666.791v31.752zM793.798 686.14v-31.752h-619.163c-17.146 0-33.149 4.191-47.628 11.113v20.639zM857.302 130.481c0-61.376-49.755-111.132-111.132-111.132h-571.535c-61.376 0-111.132 49.755-111.132 111.132v500.442c30.228-24.989 68.933-40.039 111.132-40.039h650.915c17.495 0 31.752-14.225 31.752-31.752v-63.504h-285.736c-87.699 0-158.791-71.061-158.791-158.76s71.093-158.76 158.791-158.76h285.736zM897.85 241.612h-326.283c-52.549 0-95.288 42.738-95.288 95.256s42.738 95.256 95.288 95.256h285.736c19.623 0.254 39.055 9.748 50.867 25.529 3.334 4.414 5.874 9.43 7.938 14.638 0.286 0.699 0.794 1.238 1.048 1.937 22.83-29.91 35.403-66.647 35.403-105.607 0-48.834-19.718-94.144-54.709-127.008z" />
<glyph unicode="&#xe92e;" glyph-name="watch" d="M480 608c17.696 0 32 14.336 32 32 0 17.696-14.304 32-32 32s-32-14.304-32-32c0-17.664 14.304-32 32-32zM480 288c-17.696 0-32-14.336-32-32 0-17.696 14.304-32 32-32s32 14.304 32 32c0 17.664-14.304 32-32 32zM288 480c-17.696 0-32-14.304-32-32 0-17.664 14.304-32 32-32s32 14.336 32 32c0 17.696-14.304 32-32 32zM640 448c0-17.664 14.304-32 32-32s32 14.336 32 32c0 17.696-14.304 32-32 32s-32-14.304-32-32zM321.632 334.88c-12.544-12.512-12.544-32.768 0-45.248 12.48-12.512 32.704-12.512 45.248 0 12.512 12.48 12.512 32.736 0 45.248-12.544 12.48-32.768 12.48-45.248 0zM321.632 606.368c-12.544-12.48-12.544-32.704-0.032-45.248 12.512-12.48 32.736-12.48 45.28 0 12.512 12.544 12.512 32.768 0 45.248-12.544 12.544-32.768 12.544-45.248 0zM593.12 334.88c-12.48-12.512-12.48-32.768 0-45.248 12.544-12.512 32.768-12.512 45.28 0 12.512 12.48 12.512 32.736-0.032 45.248-12.48 12.48-32.704 12.48-45.248 0zM800 512c-2.24 0-4.128-1.056-6.304-1.28-11.136 55.84-37.408 105.792-73.504 147.008l-45.92 249.952c-5.632 30.336-32.096 52.32-62.912 52.32h-256c-30.848 0-57.312-21.984-62.944-52.32l-44.832-241.536c-53.728-57.216-87.584-133.408-87.584-218.144 0-82.624 32.448-156.96 83.872-213.696l45.184-245.984c5.664-30.336 32.096-52.32 62.944-52.32h256c30.848 0 57.28 21.984 62.944 52.32l45.6 245.792c38.016 41.952 65.632 93.44 77.152 151.2 2.176-0.256 4.064-1.312 6.304-1.312 35.36 0 64 28.672 64 64 0 35.36-28.64 64-64 64zM355.36 896h256l32-172.352c-47.264 27.456-101.408 44.352-160 44.352-58.624 0-112.768-16.896-160-44.352zM608 0h-256l-32 172.352c47.264-27.424 101.408-44.352 160-44.352s112.736 16.928 160 44.352zM480 192c-141.152 0-256 114.88-256 256 0 141.152 114.848 256 256 256s256-114.848 256-256c0-141.12-114.848-256-256-256zM638.112 607.168c-3.872 3.872-10.112 4.192-14.496 0.672l-166.112-137.12c-6.112-6.144-9.504-14.272-9.504-23.008 0-8.384 3.264-16.352 9.248-22.336 6.016-5.952 14.016-9.28 22.624-9.344 8 0.064 16.32 3.040 22.368 8.896l59.136 71.168 77.632 96.672c3.36 4.256 3.008 10.528-0.896 14.4z" />
<glyph unicode="&#xe92f;" glyph-name="world" d="M512 960c-282.756 0-512-229.244-512-512 0-282.789 229.244-512 512-512s512 229.211 512 512c0 282.756-229.244 512-512 512zM957.11 464.516h-198.061c-1.817 73.166-14.831 143.063-37.921 207.046 44.561 18.597 85.785 43.338 123.375 72.572 66.857-75.016 108.676-172.428 112.607-279.618zM493.733 2.989c-54.9 45.717-100.914 105.076-134.639 174.014 43.239 13.51 89.055 20.909 136.39 22.429v-196.542c-0.595 0.033-1.156 0.066-1.751 0.099zM530.234 893.011c62.299-51.894 113.135-121.327 147.522-202.356-47.071-16.12-97.148-25.435-149.24-27.119v229.574c0.595-0.033 1.123-0.066 1.718-0.099zM585.233 887.395c91.169-15.162 172.99-57.74 236.643-119.379-34.585-26.525-72.374-49.020-113.202-66.031-30.092 71.284-72.242 134.276-123.442 185.41zM495.484 893.11v-229.574c-52.092 1.685-102.169 11-149.24 27.119 34.387 81.028 85.256 150.462 147.522 202.356 0.595 0.033 1.123 0.066 1.718 0.099zM315.326 701.985c-40.795 17.012-78.617 39.507-113.202 66.031 63.653 61.638 145.474 104.217 236.643 119.379-51.2-51.134-93.349-114.126-123.442-185.41zM333.824 660.199c50.936-17.672 105.175-27.978 161.66-29.696v-165.987h-197.467c1.751 69.17 14.006 135.267 35.807 195.683zM495.484 431.484v-199.019c-52.092-1.586-102.466-10.108-149.933-25.402-28.606 68.113-45.485 143.988-47.533 224.421zM438.767 8.605c-81.656 13.576-155.846 49.152-216.196 100.814 32.57 22.561 67.716 41.654 105.307 56.155 28.804-59.722 66.527-112.739 110.889-156.969zM528.516 2.89v196.542c47.335-1.519 93.151-8.919 136.39-22.429-33.726-68.938-79.74-128.297-134.639-174.014-0.595-0.033-1.156-0.066-1.751-0.099zM696.122 165.574c37.591-14.501 72.737-33.594 105.307-56.155-60.317-51.662-134.507-87.238-216.196-100.814 44.395 44.23 82.085 97.247 110.889 156.969zM678.45 207.063c-47.467 15.294-97.842 23.816-149.933 25.402v199.019h197.467c-2.048-80.434-18.927-156.309-47.533-224.421zM528.516 464.516v165.987c56.485 1.718 110.757 12.024 161.66 29.696 21.801-60.416 34.056-126.514 35.807-195.683zM179.497 744.134c37.591-29.234 78.815-53.975 123.375-72.572-23.090-63.983-36.104-133.88-37.888-207.046h-198.094c3.964 107.19 45.75 204.602 112.607 279.618zM66.89 431.484h198.094c2.048-84.397 19.654-164.104 49.614-235.751-41.819-16.318-80.863-38.053-116.868-63.752-77.56 77.163-126.514 182.701-130.841 299.503zM826.269 131.98c-36.005 25.699-75.049 47.434-116.868 63.752 29.96 71.647 47.566 151.354 49.647 235.751h198.061c-4.327-116.802-53.281-222.34-130.841-299.503z" />
</font>
</defs>
</svg>
